if (_typeface_js && _typeface_js.loadFace) _typeface_js.loadFace({"glyphs":{"S":{"x_min":-13.390625,"x_max":757,"ha":771,"o":"m 665 918 q 608 819 629 870 q 553 694 567 717 l 550 690 q 546 702 547 697 q 515 786 527 763 q 478 832 502 810 q 337 887 416 887 q 217 846 265 887 q 169 745 169 806 q 340 590 169 631 l 455 562 q 700 303 700 503 q 616 116 700 192 q 408 41 532 41 q 235 64 331 41 l 156 84 q 77 96 108 96 q -7 69 36 96 l -13 79 q 104 320 70 205 l 116 317 q 202 151 131 210 q 388 93 273 93 q 533 135 479 93 q 587 248 587 177 q 512 383 587 330 q 292 454 458 421 q 106 537 164 479 q 49 700 49 596 q 125 874 49 807 q 326 941 202 941 q 511 912 405 941 q 584 899 561 899 q 657 922 618 899 l 665 918 m 706 889 l 700 879 q 653 790 673 833 q 599 678 606 690 l 596 674 l 580 680 l 582 687 q 639 803 602 731 l 685 893 l 689 899 l 706 889 m 508 754 q 348 834 434 834 q 262 804 296 834 q 229 728 229 774 q 297 625 229 678 l 303 621 l 299 616 q 210 732 210 656 q 248 818 210 785 q 347 852 286 852 q 449 827 405 852 q 513 757 493 802 l 508 754 m 665 485 q 757 294 757 415 q 656 74 757 164 q 412 -15 556 -15 q 279 0 339 -15 l 171 26 q 90 36 133 36 q 19 20 51 36 l 11 39 q 82 56 46 56 q 175 43 123 56 l 279 18 q 411 4 342 4 q 642 90 547 4 q 738 299 738 176 q 665 481 738 403 l 665 485 m 181 290 q 316 117 206 167 l 316 111 q 163 286 190 148 l 181 290 m 97 509 l 120 497 q 250 430 142 457 l 360 403 q 508 355 471 375 q 561 294 545 335 l 556 292 q 490 343 525 327 q 353 383 454 359 q 156 442 206 417 q 97 509 106 467 "},"¦":{"x_min":296,"x_max":400,"ha":695,"o":"m 296 926 l 400 926 l 400 449 l 296 449 l 296 926 m 296 213 l 400 213 l 400 -231 l 296 -231 l 296 213 "},"/":{"x_min":-32.546875,"x_max":742.59375,"ha":667,"o":"m 697 1042 l 31 -67 l -32 -67 l 634 1042 l 697 1042 m -20 -107 l 51 -107 l 730 1022 l 742 1008 l 61 -125 l -12 -125 l -20 -107 "},"y":{"x_min":-32.703125,"x_max":1006,"ha":891,"o":"m 975 1164 l 979 1159 l 972 1151 q 772 895 851 1025 q 729 824 742 845 l 477 421 l 477 146 l 575 56 l 245 56 l 343 146 l 343 421 l 180 671 l 144 728 q 65 837 96 803 q -25 919 35 872 l -32 926 l 309 926 l 225 838 l 451 498 l 472 532 l 271 838 l 343 906 l 357 895 l 295 838 l 483 548 l 635 788 q 701 944 701 892 q 643 1043 701 987 q 967 1160 840 1090 l 975 1164 m 1006 1124 l 1006 1096 l 999 1089 q 901 980 942 1035 q 779 798 860 926 l 534 412 l 534 146 l 654 0 l 230 0 l 222 18 l 619 18 l 516 146 l 516 416 l 766 811 l 805 873 q 1006 1124 910 1041 "},"≈":{"x_min":34.59375,"x_max":659.859375,"ha":694,"o":"m 630 684 l 659 668 q 564 564 619 602 q 453 526 509 526 q 366 542 420 526 l 323 555 q 191 583 233 583 q 134 571 156 583 q 76 523 111 559 q 63 510 71 519 l 34 526 q 241 670 131 670 q 373 640 282 670 q 493 615 455 615 q 630 684 570 615 m 630 461 l 659 445 q 564 341 619 379 q 453 303 509 303 q 323 332 418 303 q 191 360 236 360 q 134 348 156 360 q 76 300 111 336 q 63 286 71 296 l 34 303 q 241 447 131 447 q 373 417 283 447 q 493 392 455 392 q 630 461 569 392 "},"Á":{"x_min":0.265625,"x_max":1056.5625,"ha":1052,"o":"m 656 926 l 585 845 l 697 550 l 724 565 l 623 832 l 695 915 l 713 907 l 644 828 l 739 575 q 749 582 748 581 l 771 601 q 797 624 792 617 q 851 487 815 547 q 823 487 832 487 q 729 467 758 487 l 851 134 l 953 55 l 611 55 l 704 134 l 629 332 q 514 189 554 257 l 499 193 q 618 342 539 260 l 623 349 l 611 378 q 477 222 530 311 l 465 242 q 375 370 429 298 l 368 378 q 316 190 316 262 q 330 118 316 147 q 400 18 345 88 q 415 0 405 12 l 49 0 l 35 18 l 381 18 l 369 32 q 310 117 324 87 q 297 188 297 147 q 353 394 297 257 l 323 425 q 300 361 314 403 l 278 292 q 260 200 260 237 q 272 137 260 162 q 327 68 285 112 q 339 56 331 64 l 0 56 q 153 190 97 106 q 266 452 210 275 l 268 462 q 165 499 232 492 q 222 615 202 554 q 234 604 232 606 l 264 575 q 302 545 280 560 l 314 575 l 306 582 q 249 630 272 611 l 243 634 l 253 649 q 323 594 290 626 l 415 848 l 343 926 l 656 926 m 488 708 l 414 511 q 421 503 420 504 l 448 472 q 505 396 471 447 l 512 386 q 581 458 541 422 l 488 708 m 458 786 l 350 501 q 439 397 402 449 l 470 354 q 477 345 471 353 q 484 353 483 351 l 493 364 q 501 373 495 367 q 390 505 453 446 l 477 734 l 458 786 m 857 592 q 931 424 872 531 q 914 427 916 427 l 859 431 q 805 434 822 434 q 792 434 802 434 l 905 134 l 1056 0 l 663 0 l 651 18 l 1011 18 l 889 126 l 768 445 q 821 452 791 452 q 902 445 857 452 l 894 460 q 836 605 851 540 l 857 592 m 718 1196 l 552 1062 l 480 1062 l 579 1196 l 718 1196 m 509 1005 l 494 1024 l 577 1024 l 744 1159 l 757 1142 l 587 1005 l 509 1005 "},"g":{"x_min":33,"x_max":919.578125,"ha":947,"o":"m 795 902 l 668 652 q 601 815 656 759 q 457 872 547 872 q 258 772 329 872 q 188 495 188 673 q 509 103 188 103 l 619 103 l 619 455 l 448 455 q 368 461 392 455 q 322 487 344 467 l 322 504 q 371 480 346 486 q 450 475 395 475 l 619 475 l 619 511 l 430 511 l 400 511 q 299 584 299 511 q 316 632 299 612 q 356 653 333 653 q 387 640 374 653 q 401 609 401 627 q 378 575 401 579 l 362 571 q 354 564 354 569 q 376 556 354 556 l 400 556 l 847 556 l 754 465 l 754 130 l 840 56 l 494 56 l 425 56 q 282 77 339 56 q 169 151 226 98 q 33 486 33 276 q 161 823 33 702 q 429 930 274 930 q 587 905 498 930 q 708 881 679 881 q 795 902 751 881 m 836 860 l 720 631 l 703 638 l 820 868 l 836 860 m 619 756 l 606 765 q 465 821 529 821 q 332 765 388 821 q 273 659 291 725 q 255 485 255 593 q 282 275 255 348 q 382 145 309 203 l 382 137 q 268 269 303 184 q 234 500 234 354 q 294 750 234 661 q 464 840 354 840 q 619 760 559 840 l 619 756 m 876 517 l 807 448 l 807 130 l 919 1 l 650 1 l 406 1 q 370 2 382 1 q 284 38 327 6 l 299 38 q 425 18 345 18 l 459 18 l 881 18 l 788 122 l 788 455 l 866 533 l 876 517 "},"²":{"x_min":42.5,"x_max":471,"ha":509,"o":"m 426 541 l 426 426 l 42 426 q 206 626 70 546 q 310 707 283 672 q 338 796 338 741 q 309 874 338 845 q 231 904 280 904 q 155 879 184 904 q 126 816 126 855 q 143 766 126 786 q 189 746 161 746 q 240 770 218 746 l 247 767 q 218 715 241 734 q 159 696 194 696 q 82 725 113 696 q 52 799 52 754 q 101 898 52 859 q 225 937 150 937 q 361 892 305 937 q 417 782 417 847 q 282 624 417 693 l 220 592 q 119 505 150 556 l 109 488 l 107 486 l 142 486 q 260 584 175 540 l 317 612 q 449 773 449 678 q 379 900 449 845 l 381 903 q 465 772 465 865 q 330 601 465 667 l 273 574 q 165 490 189 532 l 163 486 l 277 486 q 383 496 356 486 q 417 541 409 507 l 426 541 m 471 513 l 471 370 l 82 370 l 67 384 l 455 384 l 455 522 l 471 513 m 332 792 l 330 798 q 235 862 299 862 q 189 846 207 862 q 172 805 172 830 q 197 758 172 775 l 200 756 l 200 751 q 157 806 157 760 q 178 858 157 838 q 235 878 200 878 q 304 853 277 878 q 332 792 332 829 m 281 742 l 279 735 q 175 658 254 658 q 90 706 117 658 q 169 670 130 670 q 267 749 251 670 l 281 742 "},"–":{"x_min":0,"x_max":713.4375,"ha":713,"o":"m 615 524 l 645 444 l 28 444 l 0 524 l 615 524 m 713 395 l 72 395 l 57 414 l 688 414 l 657 507 l 678 491 l 713 395 "},"ë":{"x_min":-0.421875,"x_max":875.96875,"ha":862,"o":"m 762 926 l 751 913 q 641 718 682 828 q 631 741 634 734 q 551 845 594 822 q 398 868 508 868 q 276 868 347 868 l 276 555 l 320 555 l 320 831 q 418 836 371 836 q 544 817 504 836 q 617 746 585 799 q 604 756 608 752 q 524 806 549 798 q 428 814 500 814 q 351 814 406 814 l 337 814 l 337 555 l 461 555 l 549 675 l 549 382 l 461 496 l 276 496 l 276 115 l 320 115 l 320 464 l 466 464 l 484 446 l 337 446 l 337 115 q 533 134 475 115 q 624 212 591 154 l 660 273 q 668 288 662 277 q 712 169 686 214 q 798 65 738 124 l 38 65 l 142 143 l 142 446 q 38 411 85 439 l 29 425 q 142 464 70 455 l 142 496 q 125 497 130 497 q 0 446 56 497 q 142 555 30 555 l 142 844 l 38 926 l 762 926 m 794 878 l 789 872 q 679 685 707 761 l 667 700 q 785 892 713 805 l 794 878 m 596 652 l 596 352 l 579 361 l 579 661 l 596 652 m 875 60 l 840 0 l 100 0 l 89 18 l 831 18 l 854 60 q 717 253 757 150 l 738 245 q 865 71 776 158 l 875 60 m 520 1197 q 566 1178 547 1197 q 585 1132 585 1159 q 566 1085 585 1104 q 520 1067 547 1067 q 473 1085 492 1067 q 455 1132 455 1104 q 473 1178 455 1159 q 520 1197 492 1197 m 605 1167 q 642 1100 642 1150 q 618 1039 642 1064 q 558 1015 594 1015 q 495 1047 519 1015 l 495 1051 q 550 1029 527 1029 q 606 1052 583 1029 q 630 1108 630 1075 q 605 1167 630 1134 m 370 1167 q 408 1100 408 1150 q 384 1039 408 1064 q 324 1015 360 1015 q 261 1047 284 1015 l 261 1051 q 316 1029 293 1029 q 372 1052 348 1029 q 396 1108 396 1075 q 370 1167 396 1134 m 285 1197 q 331 1178 312 1197 q 350 1132 350 1159 q 331 1085 350 1104 q 285 1067 312 1067 q 238 1085 257 1067 q 220 1132 220 1104 q 238 1178 220 1159 q 285 1197 257 1197 "},"ƒ":{"x_min":-261.265625,"x_max":932.984375,"ha":833,"o":"m 557 669 l 586 590 l 405 590 l 317 132 q 279 -25 295 18 q 224 -110 262 -70 q 33 -188 150 -188 q -157 -119 -68 -188 q -261 35 -247 -51 q -178 76 -223 49 l -113 115 l -103 121 q -108 58 -108 83 q -69 -68 -108 -17 q 26 -119 -30 -119 q 126 -62 90 -119 q 189 133 163 -6 l 194 164 l 279 590 l 154 590 l 126 669 l 294 669 q 417 920 328 826 q 621 1015 507 1015 q 766 972 700 1015 q 855 864 832 929 q 735 791 795 838 q 604 959 714 959 q 487 882 536 959 q 419 669 438 806 l 462 669 q 614 925 494 925 q 672 900 644 925 q 712 839 699 876 q 703 849 704 847 l 680 874 q 612 909 649 909 q 529 845 564 909 q 479 669 494 781 l 557 669 m 613 658 l 653 542 l 453 542 l 371 118 q 328 -50 349 1 q 265 -143 306 -102 q 50 -225 182 -225 q -110 -188 -51 -225 l -105 -179 q 41 -211 -33 -211 q 255 -129 175 -211 q 313 -40 293 -89 q 354 121 333 7 l 440 560 l 630 560 l 592 669 l 613 658 m 855 927 q 932 839 901 896 q 760 744 811 792 l 754 759 q 910 847 812 812 q 855 919 890 886 l 855 927 m -40 101 q -49 39 -49 70 q -31 -39 -49 -2 q 14 -95 -13 -77 l 19 -97 l 19 -107 q -67 39 -67 -64 q -55 104 -67 77 l -40 101 m 164 560 l 258 560 l 258 542 l 170 542 l 164 560 "},"Î":{"x_min":26.015625,"x_max":436.78125,"ha":425,"o":"m 28 926 l 350 926 l 259 833 l 259 127 l 345 56 l 28 56 l 123 133 l 123 841 l 28 926 m 381 887 l 312 818 l 312 127 l 425 0 l 72 0 l 55 18 l 385 18 l 293 121 l 293 824 l 369 900 l 381 887 m 192 1111 l 111 1016 l 52 1016 l 40 1030 l 105 1030 l 183 1122 l 165 1141 l 97 1063 l 26 1063 l 139 1198 l 227 1198 l 345 1063 l 235 1063 l 192 1111 m 436 1016 l 279 1016 l 266 1030 l 402 1030 l 285 1167 l 310 1162 l 436 1016 "},"e":{"x_min":-0.421875,"x_max":876.765625,"ha":863,"o":"m 762 926 l 751 913 q 642 718 682 828 q 631 741 635 734 q 551 845 594 822 q 398 868 509 868 q 276 868 347 868 l 276 555 l 320 555 l 320 831 q 418 836 371 836 q 545 817 504 836 q 617 746 585 799 q 604 756 608 752 q 524 806 549 798 q 428 814 500 814 q 351 814 406 814 l 337 814 l 337 555 l 461 555 l 549 675 l 549 382 l 461 496 l 276 496 l 276 115 l 320 115 l 320 464 l 467 464 l 484 446 l 337 446 l 337 115 q 533 134 475 115 q 625 212 591 154 l 661 273 q 669 288 663 277 q 712 169 686 214 q 799 65 739 124 l 38 65 l 142 143 l 142 446 q 38 411 85 439 l 29 425 q 142 464 70 455 l 142 496 q 125 497 130 497 q 0 446 56 497 q 142 555 30 555 l 142 844 l 38 926 l 762 926 m 795 878 l 790 872 q 680 685 707 761 l 668 700 q 785 892 714 805 l 795 878 m 596 652 l 596 352 l 579 361 l 579 661 l 596 652 m 876 60 l 841 0 l 100 0 l 89 18 l 832 18 l 855 60 q 718 253 758 150 l 739 245 q 865 71 777 158 l 876 60 "},"Ã":{"x_min":0.265625,"x_max":1056,"ha":1051,"o":"m 656 926 l 585 845 l 696 550 l 723 565 l 623 832 l 695 915 l 713 907 l 644 828 l 739 575 q 748 582 747 581 l 771 601 q 796 624 791 617 q 851 487 814 547 q 822 487 831 487 q 728 467 758 487 l 851 134 l 952 55 l 610 55 l 704 134 l 629 332 q 514 189 554 257 l 498 193 q 618 342 538 260 l 623 348 l 610 378 q 477 222 530 311 l 464 242 q 374 370 429 298 l 367 378 q 316 190 316 262 q 330 117 316 147 q 400 18 344 88 q 415 0 404 12 l 49 0 l 35 18 l 380 18 l 369 32 q 310 117 324 87 q 297 188 297 147 q 353 394 297 257 l 323 425 q 300 361 314 403 l 278 292 q 260 200 260 236 q 272 137 260 162 q 327 68 285 112 q 339 55 331 64 l 0 55 q 153 190 97 106 q 266 452 210 275 l 268 462 q 165 499 232 492 q 222 615 202 554 q 234 604 232 606 l 264 575 q 302 545 280 560 l 314 575 l 306 582 q 249 630 272 611 l 243 634 l 253 649 q 323 594 290 626 l 415 848 l 343 926 l 656 926 m 488 708 l 413 511 q 420 503 419 504 l 448 472 q 505 396 470 447 l 512 386 q 581 458 541 422 l 488 708 m 457 786 l 350 501 q 438 397 401 449 l 470 354 q 477 345 470 353 q 483 353 483 351 l 493 364 q 500 373 495 367 q 390 505 453 446 l 477 734 l 457 786 m 856 592 q 931 424 871 531 q 914 427 916 427 l 859 431 q 805 434 822 434 q 791 434 802 434 l 904 133 l 1056 0 l 663 0 l 651 18 l 1010 18 l 888 126 l 767 445 q 820 452 790 452 q 902 445 857 452 l 893 460 q 835 605 850 540 l 856 592 m 697 1195 q 699 1177 699 1182 q 668 1095 699 1129 q 593 1061 637 1061 q 466 1099 545 1061 q 401 1123 421 1123 q 350 1070 357 1123 l 303 1070 q 338 1167 303 1128 q 425 1207 373 1207 q 554 1157 470 1207 q 606 1138 587 1138 q 636 1151 624 1138 q 649 1185 649 1165 q 648 1195 649 1188 l 697 1195 m 735 1176 l 749 1164 q 713 1060 749 1102 q 625 1018 677 1018 q 548 1038 591 1018 l 556 1047 q 622 1033 595 1033 q 734 1168 722 1033 l 735 1176 m 407 1090 l 407 1070 q 387 1019 392 1050 l 333 1019 l 322 1035 l 376 1035 q 407 1090 383 1073 "},"J":{"x_min":-27.921875,"x_max":675.78125,"ha":712,"o":"m 647 926 l 556 834 l 556 330 l 556 309 q 590 240 556 258 q 504 95 582 151 q 310 39 426 39 q 35 206 96 39 l 26 232 q 9 259 19 252 q -27 271 0 266 l 174 422 q 164 287 164 355 q 200 141 164 196 q 297 87 236 87 q 420 281 420 87 l 420 842 l 328 926 l 647 926 m 675 888 l 609 820 l 609 324 l 609 298 l 618 256 q 656 221 627 239 q 597 102 646 163 q 321 -20 499 -20 q 105 57 186 -20 l 105 63 q 200 10 155 24 q 311 -4 245 -4 q 522 58 429 -4 q 635 214 614 121 q 597 257 604 240 q 591 328 591 275 l 591 827 l 665 902 l 675 888 m 237 406 l 236 397 q 223 286 223 321 q 321 108 223 155 l 311 108 q 205 275 205 139 q 219 406 205 344 l 237 406 "},"»":{"x_min":31.203125,"x_max":398.765625,"ha":425,"o":"m 205 453 l 94 269 l 31 269 l 104 465 l 31 646 l 94 646 l 205 453 m 61 219 l 53 239 l 118 239 l 139 274 l 148 250 l 130 219 l 61 219 m 343 453 l 232 269 l 169 269 l 242 465 l 169 646 l 232 646 l 343 453 m 398 442 l 268 219 l 199 219 l 191 239 l 256 239 l 377 442 l 269 629 l 302 605 l 398 442 "},"∆":{"x_min":-3.640625,"x_max":929.515625,"ha":926,"o":"m 502 945 l 929 0 l -3 0 l 420 945 l 502 945 m 415 787 l 150 195 q 132 134 132 152 q 146 102 132 111 q 199 93 161 93 l 717 93 l 415 787 "},"©":{"x_min":46,"x_max":1042.3125,"ha":1088,"o":"m 738 788 l 719 794 q 533 831 618 831 q 188 467 188 831 q 254 238 188 321 q 469 113 320 155 l 458 106 q 235 222 292 156 q 167 462 167 303 q 522 849 167 849 q 738 788 671 849 m 723 733 l 718 725 q 650 597 678 660 l 645 588 l 639 591 q 592 688 629 652 q 503 725 555 725 q 399 663 435 725 q 363 489 363 602 q 406 308 363 373 q 527 243 449 243 q 670 390 654 243 q 683 407 670 407 q 701 380 701 407 q 649 255 701 302 q 512 209 597 209 q 330 283 397 209 q 263 483 263 357 q 332 679 263 600 q 506 759 402 759 q 619 737 556 759 q 671 725 652 725 q 716 737 697 725 l 723 733 m 604 654 q 528 682 564 682 q 420 485 420 682 q 515 257 420 296 l 515 250 q 432 324 463 259 q 401 486 401 388 q 526 697 401 697 q 604 662 568 697 l 604 654 m 751 374 q 696 219 751 272 q 543 167 641 167 q 399 213 466 167 l 399 216 q 536 182 455 182 q 679 231 627 182 q 732 373 732 280 l 732 383 l 751 374 m 769 705 l 764 697 q 687 559 718 626 l 671 567 l 676 577 q 750 706 703 631 l 755 713 l 769 705 m 518 935 q 848 805 718 935 q 978 475 978 675 q 853 161 978 278 q 522 44 729 44 q 233 126 361 44 q 46 488 46 248 q 174 814 46 693 q 518 935 302 935 m 511 886 q 127 473 127 886 q 226 189 127 287 q 515 92 326 92 q 796 193 700 92 q 893 489 893 294 q 868 669 893 598 q 789 792 844 740 q 511 886 689 886 m 791 900 q 974 740 906 854 q 1042 478 1042 626 q 904 125 1042 259 q 542 -9 766 -9 q 271 69 397 -9 l 271 72 q 538 11 378 11 q 888 140 753 11 q 1024 475 1024 269 q 961 727 1024 617 q 791 892 899 838 l 791 900 "},"˘":{"x_min":127,"x_max":566.578125,"ha":694,"o":"m 127 1214 l 175 1214 q 199 1162 182 1176 q 323 1130 238 1130 q 427 1150 392 1130 q 466 1214 462 1170 l 512 1214 q 513 1205 513 1207 q 459 1097 513 1140 q 323 1055 405 1055 q 182 1097 238 1055 q 127 1205 127 1139 q 127 1214 127 1207 m 206 1048 l 213 1059 q 349 1022 272 1022 q 487 1065 434 1022 q 552 1190 539 1108 l 566 1180 q 500 1053 559 1100 q 348 1006 441 1006 q 206 1048 261 1006 "},"≥":{"x_min":58,"x_max":638,"ha":695,"o":"m 58 62 l 638 62 l 638 0 l 58 0 l 58 62 m 58 98 l 58 167 l 452 421 l 58 686 l 58 869 l 638 473 l 638 462 l 58 98 "},"ò":{"x_min":33,"x_max":834.3125,"ha":867,"o":"m 553 774 l 542 781 q 423 817 477 817 q 245 466 245 817 q 355 126 245 210 l 349 120 q 252 246 281 168 q 224 458 224 324 q 421 835 224 835 q 553 774 511 835 m 408 935 q 672 810 573 935 q 771 476 771 685 q 673 161 771 278 q 412 44 576 44 q 181 126 282 44 q 33 488 33 248 q 134 814 33 693 q 408 935 236 935 m 408 877 q 179 473 179 877 q 404 101 179 101 q 565 199 510 101 q 620 488 620 298 q 567 788 620 703 q 408 877 511 877 m 625 900 q 778 740 721 853 q 834 478 834 627 q 723 125 834 259 q 432 -9 612 -9 q 217 69 317 -9 l 217 72 q 427 11 301 11 q 706 139 597 11 q 816 466 816 267 q 766 726 816 615 q 625 893 716 837 l 625 900 m 353 1195 l 447 1065 l 368 1065 l 212 1195 l 353 1195 m 537 1019 l 423 1019 l 404 1036 l 498 1036 l 414 1154 l 443 1147 l 537 1019 "},"^":{"x_min":-37.984375,"x_max":731.75,"ha":694,"o":"m 731 392 l 663 392 l 409 787 l 143 392 l -37 392 l 353 973 l 364 973 l 731 392 "},"«":{"x_min":23.0625,"x_max":405.546875,"ha":420,"o":"m 163 459 l 276 648 l 335 648 l 261 459 l 335 273 l 271 273 l 163 459 m 298 433 l 373 616 l 387 598 l 320 435 l 405 222 l 318 222 l 296 239 l 375 239 l 298 433 m 23 459 l 136 648 l 194 648 l 120 459 l 194 273 l 130 273 l 23 459 m 157 433 l 265 222 l 177 222 l 155 239 l 234 239 l 157 433 "},"D":{"x_min":28.09375,"x_max":807,"ha":839,"o":"m 48 926 l 315 926 q 605 850 511 926 q 746 502 746 739 q 623 146 746 256 q 498 76 567 96 q 316 56 430 56 l 28 56 l 121 127 l 121 848 l 48 926 m 254 869 l 254 108 l 291 108 l 291 824 q 355 830 326 830 q 443 818 410 830 q 507 778 475 807 q 354 812 436 812 q 308 809 336 812 l 308 108 q 423 120 383 108 q 497 169 462 133 q 596 504 596 268 q 489 818 596 734 q 285 869 425 869 l 254 869 m 70 0 l 59 18 l 308 18 q 585 68 490 18 q 790 489 790 177 q 698 798 790 697 l 671 828 q 663 838 669 830 q 807 492 807 747 q 664 97 807 224 q 308 0 555 0 l 70 0 "},"∙":{"x_min":0,"x_max":248,"ha":248,"o":"m 92 589 q 157 562 130 589 q 184 496 184 535 q 156 430 184 457 q 92 404 129 404 q 26 430 53 404 q 0 496 0 457 q 27 561 0 534 q 92 589 54 589 m 207 559 q 248 467 248 522 q 211 383 248 419 q 128 347 175 347 q 35 388 70 347 l 39 394 q 122 368 85 368 q 198 398 166 368 q 230 472 230 429 q 202 553 230 512 l 207 559 "},"ÿ":{"x_min":-32.3125,"x_max":1006.453125,"ha":891,"o":"m -32 926 l 310 926 l 226 838 l 451 498 l 473 532 l 272 838 l 344 906 l 358 895 l 296 838 l 484 548 l 635 788 q 701 944 701 893 q 653 1034 701 982 q 600 1015 627 1015 q 537 1047 560 1015 l 537 1051 q 592 1029 568 1029 q 649 1052 625 1029 q 673 1108 673 1075 q 647 1167 673 1134 q 685 1100 685 1150 q 668 1049 685 1073 q 967 1160 848 1094 l 975 1164 l 979 1159 l 973 1151 q 772 895 851 1026 q 729 824 742 845 l 478 421 l 478 146 l 575 56 l 245 56 l 344 146 l 344 421 l 180 671 l 145 728 q 66 837 97 803 q -24 919 35 872 l -32 926 m 1006 1123 l 1006 1096 l 999 1089 q 901 981 942 1035 q 779 798 860 927 l 534 412 l 534 146 l 655 0 l 230 0 l 222 18 l 619 18 l 516 146 l 516 416 l 766 811 l 805 873 q 1006 1123 910 1041 m 563 1197 q 609 1178 590 1197 q 628 1132 628 1159 q 609 1085 628 1104 q 563 1067 590 1067 q 516 1085 535 1067 q 498 1132 498 1104 q 516 1178 498 1159 q 563 1197 535 1197 m 413 1167 q 451 1100 451 1150 q 426 1039 451 1064 q 367 1015 402 1015 q 303 1047 327 1015 l 303 1051 q 358 1029 335 1029 q 415 1052 391 1029 q 439 1108 439 1075 q 413 1167 439 1134 m 327 1197 q 373 1178 354 1197 q 392 1132 392 1159 q 373 1085 392 1104 q 327 1067 354 1067 q 280 1085 299 1067 q 262 1132 262 1104 q 280 1178 262 1159 q 327 1197 299 1197 "},"í":{"x_min":27.734375,"x_max":443.921875,"ha":425,"o":"m 27 926 l 349 926 l 258 833 l 258 127 l 344 56 l 27 56 l 122 133 l 122 841 l 27 926 m 380 887 l 311 818 l 311 127 l 424 0 l 71 0 l 54 18 l 384 18 l 292 121 l 292 824 l 368 900 l 380 887 m 404 1196 l 238 1062 l 166 1062 l 265 1196 l 404 1196 m 195 1005 l 180 1024 l 263 1024 l 431 1159 l 443 1142 l 273 1005 l 195 1005 "},"ˆ":{"x_min":141.734375,"x_max":552.03125,"ha":694,"o":"m 308 1111 l 227 1016 l 168 1016 l 155 1030 l 221 1030 l 299 1122 l 281 1141 l 212 1063 l 141 1063 l 255 1199 l 343 1199 l 460 1063 l 351 1063 l 308 1111 m 552 1016 l 395 1016 l 382 1030 l 518 1030 l 400 1167 l 425 1162 l 552 1016 "},"w":{"x_min":-41.71875,"x_max":1213.578125,"ha":1097,"o":"m 1172 1158 q 1030 951 1078 1054 q 917 610 983 848 l 800 183 l 814 130 l 897 56 l 588 56 l 677 130 l 557 565 l 440 140 l 557 0 l 210 0 l 197 18 l 519 18 l 418 136 l 546 599 l 523 680 l 384 172 l 395 130 l 475 56 l 165 56 l 257 130 l 60 840 l -41 926 l 289 926 l 197 840 l 352 281 l 376 363 l 245 830 l 306 885 l 322 874 l 266 824 l 384 397 l 529 926 l 593 926 l 770 287 l 791 363 l 635 926 l 654 926 l 800 397 l 864 626 q 924 907 924 842 q 856 1021 924 980 q 1026 1090 935 1046 q 1162 1168 1117 1133 l 1172 1158 m 1213 1107 q 1079 905 1132 1017 q 972 590 1027 792 l 852 152 l 982 0 l 634 0 l 618 18 l 940 18 l 831 145 l 955 599 q 1062 910 1011 801 q 1197 1118 1113 1019 l 1213 1107 "},"$":{"x_min":22.609375,"x_max":792,"ha":814,"o":"m 699 933 q 589 711 622 812 l 588 704 l 584 705 q 424 893 557 854 l 424 594 l 465 583 l 465 848 q 515 818 500 831 q 551 770 530 804 l 545 770 l 540 774 q 483 819 503 808 l 483 578 l 493 574 q 651 504 606 542 q 735 320 735 434 q 651 131 735 208 q 445 54 567 54 q 424 55 439 54 l 424 -70 l 369 -70 l 369 3 l 358 5 q 276 23 304 16 l 213 39 q 126 50 170 50 q 54 34 89 50 l 45 55 q 118 70 82 70 q 281 41 165 70 q 360 24 322 31 l 369 22 l 369 60 q 203 96 318 67 q 117 111 152 111 q 28 84 75 111 l 22 94 l 28 104 q 140 334 106 233 l 151 334 q 221 181 164 239 q 369 113 278 123 l 369 402 l 355 406 q 184 460 220 441 q 131 524 148 479 l 156 510 q 277 447 177 473 l 358 427 l 369 424 l 369 461 l 355 464 q 166 530 215 493 q 107 607 129 559 q 85 708 85 656 q 161 889 85 822 q 369 957 238 957 l 369 1048 l 424 1048 l 424 952 q 465 944 447 948 l 465 1024 l 483 1011 l 483 944 q 567 922 498 940 q 626 914 601 914 q 693 938 662 914 l 699 933 m 481 110 q 585 163 548 124 q 622 260 622 202 q 580 367 622 319 q 525 412 553 397 q 431 445 497 427 l 423 447 l 423 106 q 430 106 427 106 q 456 110 432 106 q 464 110 459 110 l 464 398 q 597 307 571 374 l 592 307 q 481 374 551 357 l 481 110 m 368 607 l 368 846 q 292 814 320 842 q 265 742 265 786 q 337 637 265 682 l 337 632 q 245 745 245 671 q 281 829 245 794 q 368 865 317 865 l 368 902 q 251 860 300 902 q 203 760 203 818 q 359 609 203 650 l 368 607 m 742 906 l 736 895 q 662 755 691 817 l 636 697 l 632 689 l 616 695 q 622 708 622 706 l 651 772 q 726 913 689 856 l 742 906 m 699 500 q 792 309 792 432 q 711 109 792 198 q 517 5 631 20 l 487 1 l 481 0 l 481 -122 l 406 -122 l 391 -104 l 464 -104 l 464 18 q 586 46 520 18 q 721 154 670 81 q 772 312 772 226 q 699 496 772 420 l 699 500 m 217 307 q 258 204 230 241 q 352 131 286 167 l 352 127 q 249 189 291 142 q 198 302 207 237 l 217 307 "},"∫":{"x_min":-26,"x_max":720,"ha":695,"o":"m 437 703 l 437 7 q 427 -154 437 -104 q 387 -247 417 -204 q 174 -360 320 -360 q 31 -315 88 -360 q -26 -204 -26 -270 q 0 -138 -26 -165 q 62 -111 25 -111 q 124 -135 98 -111 q 150 -191 150 -158 q 137 -232 150 -213 q 124 -267 124 -253 q 137 -296 124 -284 q 171 -308 151 -308 q 240 -254 215 -308 q 266 -109 266 -201 l 266 622 q 274 788 266 737 q 307 881 282 838 q 516 994 373 994 q 662 950 604 994 q 720 840 720 906 q 694 772 720 799 q 631 745 669 745 q 569 769 595 745 q 544 825 544 792 q 556 866 544 847 q 569 899 569 887 q 519 942 569 942 q 437 790 437 942 l 437 745 q 437 703 437 728 "},"\\":{"x_min":-74.59375,"x_max":736.484375,"ha":718,"o":"m -10 1042 l 649 -67 l 585 -67 l -74 1042 l -10 1042 m 632 -107 l 703 -107 l 31 1022 l 60 1008 l 736 -125 l 661 -125 l 632 -107 "},"Ì":{"x_min":-8.890625,"x_max":424.9375,"ha":425,"o":"m 27 926 l 349 926 l 258 833 l 258 127 l 344 56 l 27 56 l 122 133 l 122 841 l 27 926 m 380 887 l 311 818 l 311 127 l 424 0 l 71 0 l 54 18 l 384 18 l 292 121 l 292 824 l 368 900 l 380 887 m 132 1195 l 225 1065 l 146 1065 l -8 1195 l 132 1195 m 316 1019 l 201 1019 l 182 1036 l 277 1036 l 192 1153 l 221 1147 l 316 1019 "},"µ":{"x_min":-6,"x_max":663,"ha":640,"o":"m 663 73 l 663 48 l 520 -13 q 514 -15 517 -15 q 445 64 464 -15 q 439 91 443 73 q 332 0 369 22 q 243 -21 295 -21 q 91 99 134 -21 l 91 70 q 121 -125 91 -2 q 132 -196 132 -170 q 112 -246 132 -226 q 63 -267 92 -267 q 13 -247 32 -267 q -6 -196 -6 -227 q 4 -109 -6 -166 q 45 364 45 104 l 45 635 l 183 635 l 183 236 q 207 95 183 137 q 289 53 231 53 q 431 147 362 53 l 431 636 l 567 636 l 567 172 q 578 84 567 106 q 621 62 589 62 q 663 73 640 62 "},"Ç":{"x_min":33,"x_max":790.578125,"ha":823,"o":"m 451 37 l 437 -23 q 507 -108 507 -23 q 470 -206 507 -167 q 378 -245 433 -245 q 272 -177 310 -245 l 277 -174 l 301 -159 q 345 -127 318 -148 q 386 -191 345 -191 q 419 -164 405 -191 q 434 -103 434 -138 q 396 -57 434 -57 q 362 -77 376 -57 l 350 -67 q 367 -19 359 -44 l 368 -14 q 227 47 299 -3 l 227 52 q 373 1 291 10 q 381 28 377 12 l 381 32 q 125 168 218 49 q 33 482 33 288 q 139 815 33 682 q 408 948 246 948 q 581 910 484 948 q 665 891 632 891 q 729 910 701 891 l 740 904 l 733 892 q 627 679 672 785 l 621 663 l 613 668 q 540 831 597 771 q 402 892 484 892 q 259 816 317 892 q 187 499 187 723 q 253 196 187 305 q 438 88 320 88 q 590 151 534 88 q 657 333 647 215 q 680 362 660 362 q 707 319 707 362 q 686 203 707 263 q 634 109 665 143 q 451 37 567 37 m 544 787 q 427 837 482 837 q 252 501 252 837 q 292 247 252 349 q 407 116 333 145 l 408 109 q 279 232 327 126 q 232 503 232 339 q 281 763 232 672 q 424 854 331 854 q 544 796 489 854 l 544 787 m 509 -43 q 556 -148 556 -78 q 515 -244 556 -204 q 419 -285 475 -285 q 335 -255 366 -285 l 335 -249 q 410 -271 373 -271 q 499 -228 460 -271 q 537 -130 537 -185 q 504 -46 537 -84 l 509 -43 m 387 -96 q 418 -72 392 -72 l 418 -79 q 396 -106 405 -86 l 387 -96 m 756 321 q 520 -11 756 37 l 513 -13 l 495 5 q 616 45 556 5 q 709 149 679 87 q 740 315 740 211 l 745 330 l 756 321 m 790 872 l 783 859 q 665 629 709 733 l 646 638 l 654 655 q 713 773 688 726 l 768 869 l 774 881 l 790 872 m 390 -159 l 405 -166 l 393 -174 l 390 -159 "},"’":{"x_min":23.375,"x_max":288,"ha":306,"o":"m 209 931 q 230 838 230 884 q 28 604 230 669 l 23 614 l 30 620 q 100 760 100 679 q 64 860 100 818 q 76 865 72 864 q 209 931 153 893 m 276 911 q 288 835 288 869 q 63 558 288 643 l 54 576 l 66 580 q 225 692 181 626 q 269 831 269 760 q 257 920 269 866 l 276 911 "},"-":{"x_min":0,"x_max":436.0625,"ha":436,"o":"m 338 524 l 367 444 l 28 444 l 0 524 l 338 524 m 436 395 l 72 395 l 57 414 l 410 414 l 379 507 l 400 491 l 436 395 "},"Q":{"x_min":33,"x_max":923.03125,"ha":890,"o":"m 531 806 q 521 810 524 809 q 430 835 468 835 q 283 741 328 835 q 239 435 239 647 q 375 111 239 191 l 369 111 q 259 219 297 132 q 222 448 222 305 q 268 754 222 660 q 421 848 315 848 q 531 811 486 848 l 531 806 m 617 111 q 764 49 678 49 q 867 74 810 49 l 872 72 q 819 -7 840 27 l 769 -98 l 766 -103 q 571 16 655 -83 q 431 -16 501 -16 q 251 42 318 -16 l 253 47 q 421 3 344 3 q 559 29 497 3 q 555 36 556 33 q 537 59 545 51 q 407 36 474 36 q 139 166 245 36 q 33 492 33 296 q 137 818 33 693 q 410 943 241 943 q 676 820 575 943 q 777 496 777 697 q 742 287 777 373 q 623 117 707 200 l 617 111 m 581 212 q 628 501 628 312 q 399 889 628 889 q 177 482 177 889 q 238 195 177 299 q 407 92 300 92 q 495 111 453 92 q 389 185 455 185 q 373 184 384 185 l 420 242 q 540 172 470 228 l 548 165 q 567 191 556 175 l 571 195 q 452 265 525 240 l 461 281 q 573 219 520 259 l 581 212 m 637 894 q 787 745 731 855 q 843 492 843 636 q 716 119 843 275 q 836 80 754 87 l 836 76 q 797 72 810 72 q 688 116 737 72 q 824 493 824 254 q 637 890 824 754 l 637 894 m 923 40 q 819 -121 868 -30 l 815 -129 l 798 -121 q 851 -32 821 -75 l 904 44 l 907 50 l 923 40 "},"M":{"x_min":-23.09375,"x_max":1021,"ha":1016,"o":"m 941 926 l 848 831 l 848 134 l 932 56 l 619 56 l 714 134 l 714 591 l 499 0 l 434 0 l 428 18 l 487 18 l 714 649 l 714 752 l 462 56 l 414 56 l 229 603 l 229 244 q 238 142 229 172 q 283 77 247 113 l 344 0 l -10 0 l -23 18 l 310 18 l 285 56 l -17 56 l -3 62 q 95 146 71 104 q 120 280 120 189 l 120 841 l 30 926 l 381 926 l 283 837 l 474 269 l 499 328 l 325 831 l 414 897 l 428 885 l 344 826 l 505 353 l 680 837 l 597 926 l 941 926 m 174 765 l 174 277 q 195 123 174 165 q 283 62 216 81 l 277 72 q 211 205 211 119 l 211 256 l 211 657 l 174 765 m 979 873 l 903 818 l 903 134 l 1021 0 l 660 0 l 651 18 l 979 18 l 885 124 l 885 829 l 965 884 l 979 873 "},"C":{"x_min":33,"x_max":790.515625,"ha":809,"o":"m 741 905 l 733 893 q 627 679 672 786 l 621 664 l 612 668 q 540 832 597 772 q 402 893 483 893 q 258 817 316 893 q 186 499 186 723 q 252 197 186 306 q 438 88 319 88 q 590 151 533 88 q 657 333 646 215 q 680 362 660 362 q 707 317 707 362 q 677 181 707 252 q 416 32 614 32 q 136 155 240 32 q 33 490 33 279 q 140 817 33 685 q 408 949 248 949 q 581 911 484 949 q 665 892 632 892 q 730 911 701 892 l 741 905 m 544 788 q 427 838 482 838 q 252 502 252 838 q 292 248 252 349 q 407 116 333 146 l 407 109 q 279 233 327 126 q 232 503 232 340 q 424 855 232 855 q 544 797 489 855 l 544 788 m 760 321 q 676 65 760 153 q 441 -22 592 -22 q 228 47 326 -22 l 228 52 q 438 -4 314 -4 q 659 82 574 -4 q 721 176 701 124 q 741 315 741 228 l 745 330 l 760 321 m 790 873 l 783 860 q 665 630 709 734 l 646 639 l 654 656 q 713 774 688 727 l 768 870 l 774 882 l 790 873 "},"œ":{"x_min":33,"x_max":1337.4375,"ha":1323,"o":"m 513 0 l 509 0 q 425 -12 457 -12 q 217 66 315 -12 l 217 69 q 435 7 302 7 q 497 13 471 7 l 515 17 l 521 18 l 1292 18 l 1315 61 q 1178 253 1218 151 l 1199 245 q 1326 72 1237 159 l 1337 61 l 1302 0 l 513 0 m 553 771 q 423 815 479 815 q 245 464 245 815 q 355 124 245 207 l 349 115 q 253 241 282 163 q 224 454 224 320 q 421 832 224 832 q 553 771 511 832 m 530 56 l 526 53 q 433 41 490 41 q 141 161 249 41 q 33 485 33 281 q 134 810 33 689 q 408 931 236 931 q 505 920 457 931 l 1222 920 l 1211 907 q 1102 712 1142 821 q 1091 734 1095 727 q 1012 839 1055 816 q 859 862 969 862 l 759 862 l 737 862 l 737 555 l 781 555 l 781 827 q 879 827 833 827 q 1005 809 964 827 q 1077 739 1045 791 q 1064 750 1068 746 q 985 799 1009 791 q 889 808 960 808 q 812 808 863 808 l 798 808 l 798 555 l 922 555 l 1009 675 l 1009 382 l 922 496 l 737 496 l 737 115 l 781 115 l 781 464 l 928 464 l 945 446 l 798 446 l 798 115 q 994 134 936 115 q 1085 211 1051 154 l 1121 274 q 1129 288 1123 277 q 1173 163 1146 211 q 1259 56 1199 116 l 530 56 m 614 427 l 614 521 q 603 686 614 628 q 567 784 593 744 q 409 873 510 873 q 179 470 179 873 q 405 99 179 99 q 601 291 553 99 l 603 295 q 614 427 614 349 m 1255 878 l 1250 872 q 1140 685 1168 761 l 1128 700 q 1246 892 1174 805 l 1255 878 m 1056 652 l 1056 352 l 1039 361 l 1039 661 l 1056 652 "},"!":{"x_min":37.53125,"x_max":412.5625,"ha":449,"o":"m 189 908 q 236 796 208 833 q 326 730 265 758 l 319 718 q 227 529 254 618 q 200 295 200 439 l 200 285 l 174 285 l 174 298 q 135 543 174 420 q 37 740 97 667 q 133 802 103 769 q 189 908 163 836 m 412 740 l 404 730 q 286 528 323 624 q 250 274 250 431 l 244 267 l 225 267 q 267 520 225 392 q 379 734 310 649 q 231 880 259 804 l 253 870 q 412 740 303 795 m 191 222 q 254 196 228 222 q 280 133 280 170 q 254 71 280 97 q 191 46 228 46 q 129 71 155 46 q 104 133 104 97 q 129 196 104 170 q 191 222 155 222 m 303 193 q 340 106 340 158 q 305 25 340 60 q 225 -9 271 -9 q 136 31 170 -9 l 141 36 q 220 11 184 11 q 293 40 263 11 q 324 110 324 69 q 296 188 324 149 l 303 193 "},"ç":{"x_min":33,"x_max":790.578125,"ha":823,"o":"m 451 37 l 437 -23 q 507 -108 507 -23 q 470 -206 507 -167 q 378 -245 433 -245 q 272 -177 310 -245 l 277 -174 l 301 -159 q 345 -127 318 -148 q 386 -191 345 -191 q 419 -164 405 -191 q 434 -103 434 -138 q 396 -57 434 -57 q 362 -77 376 -57 l 350 -67 q 367 -19 359 -44 l 368 -14 q 227 47 299 -3 l 227 52 q 373 1 291 10 q 381 28 377 12 l 381 32 q 125 168 218 49 q 33 482 33 288 q 139 815 33 682 q 408 948 246 948 q 581 910 484 948 q 665 891 632 891 q 729 910 701 891 l 740 904 l 733 892 q 627 679 672 785 l 621 663 l 613 668 q 540 831 597 771 q 402 892 484 892 q 259 816 317 892 q 187 499 187 723 q 253 196 187 305 q 438 88 320 88 q 590 151 534 88 q 657 333 647 215 q 680 362 660 362 q 707 319 707 362 q 686 203 707 263 q 634 109 665 143 q 451 37 567 37 m 544 787 q 427 837 482 837 q 252 501 252 837 q 292 247 252 349 q 407 116 333 145 l 408 109 q 279 232 327 126 q 232 503 232 339 q 281 763 232 672 q 424 854 331 854 q 544 796 489 854 l 544 787 m 509 -43 q 556 -148 556 -78 q 515 -244 556 -204 q 419 -285 475 -285 q 335 -255 366 -285 l 335 -249 q 410 -271 373 -271 q 499 -228 460 -271 q 537 -130 537 -185 q 504 -46 537 -84 l 509 -43 m 387 -96 q 418 -72 392 -72 l 418 -79 q 396 -106 405 -86 l 387 -96 m 756 321 q 520 -11 756 37 l 513 -13 l 495 5 q 616 45 556 5 q 709 149 679 87 q 740 315 740 211 l 745 330 l 756 321 m 790 872 l 783 859 q 665 629 709 733 l 646 638 l 654 655 q 713 773 688 726 l 768 869 l 774 881 l 790 872 m 390 -159 l 405 -166 l 393 -174 l 390 -159 "},"È":{"x_min":-0.421875,"x_max":876.765625,"ha":863,"o":"m 762 926 l 751 913 q 642 718 682 828 q 631 741 635 734 q 551 845 594 822 q 398 868 509 868 q 276 868 347 868 l 276 555 l 320 555 l 320 831 q 418 836 371 836 q 545 817 504 836 q 617 746 585 799 q 604 756 608 752 q 524 806 549 798 q 428 814 500 814 q 351 814 406 814 l 337 814 l 337 555 l 461 555 l 549 675 l 549 382 l 461 496 l 276 496 l 276 115 l 320 115 l 320 464 l 467 464 l 484 446 l 337 446 l 337 115 q 533 134 475 115 q 625 212 591 154 l 661 273 q 669 288 663 277 q 712 169 686 214 q 799 65 739 124 l 38 65 l 142 143 l 142 446 q 38 411 85 439 l 29 425 q 142 464 70 455 l 142 496 q 125 497 130 497 q 0 446 56 497 q 142 555 30 555 l 142 844 l 38 926 l 762 926 m 795 878 l 790 872 q 680 685 707 761 l 668 700 q 785 892 714 805 l 795 878 m 596 652 l 596 352 l 579 361 l 579 661 l 596 652 m 876 60 l 841 0 l 100 0 l 89 18 l 832 18 l 855 60 q 718 253 758 150 l 739 245 q 865 71 777 158 l 876 60 m 304 1195 l 398 1065 l 319 1065 l 164 1195 l 304 1195 m 488 1019 l 374 1019 l 355 1036 l 450 1036 l 365 1153 l 394 1147 l 488 1019 "},"{":{"x_min":46,"x_max":509.3125,"ha":611,"o":"m 454 1037 l 454 981 q 321 940 364 981 q 279 816 279 899 q 286 762 279 784 l 304 704 q 315 644 315 673 q 152 503 315 530 l 152 498 q 204 487 182 494 q 352 625 352 517 q 342 685 352 654 l 323 743 q 316 797 316 765 q 359 921 316 881 q 491 962 402 962 l 491 1018 l 509 1009 l 509 953 q 377 912 420 953 q 334 788 334 871 q 341 734 334 755 l 360 675 q 371 620 371 645 q 216 483 371 515 q 319 343 319 443 q 309 281 319 315 l 291 216 q 282 149 282 183 q 372 -8 282 19 q 319 130 319 35 q 328 197 319 164 l 346 262 q 356 324 356 297 q 296 442 356 400 q 356 388 338 418 q 374 314 374 358 q 364 252 374 287 l 347 187 q 337 121 337 154 q 387 -12 337 31 q 454 -18 418 -18 l 454 -73 q 368 -71 424 -71 q 191 -23 240 -71 q 132 144 132 33 q 162 304 132 190 q 174 380 174 348 q 158 431 174 404 q 108 434 129 434 q 78 434 99 434 l 69 450 q 108 452 92 452 q 140 449 117 452 q 46 474 110 474 l 46 530 q 173 619 173 530 q 162 679 173 645 q 132 820 132 778 q 198 995 132 938 q 370 1035 244 1035 q 454 1037 432 1035 m 509 -50 l 509 -120 q 227 -92 340 -120 l 227 -88 q 438 -102 324 -102 l 478 -102 l 491 -102 l 491 -34 l 509 -50 "},"X":{"x_min":-32.546875,"x_max":964.359375,"ha":969,"o":"m 864 926 l 715 828 l 498 552 l 746 144 l 864 56 l 514 56 l 600 139 l 446 391 l 254 144 l 366 0 l -4 0 l -14 18 l 330 18 l 233 144 l 436 408 l 417 438 l 195 157 l 278 56 l -32 56 l 126 157 l 388 489 l 177 835 l 48 926 l 406 926 l 317 848 l 468 601 l 493 633 l 366 835 l 441 907 l 453 895 l 388 835 l 503 646 l 651 835 l 566 926 l 864 926 m 889 874 l 756 796 l 564 547 l 798 161 l 964 0 l 543 0 l 531 18 l 920 18 l 783 152 l 543 547 l 744 808 l 878 888 l 889 874 "},"ô":{"x_min":33,"x_max":834.3125,"ha":867,"o":"m 553 774 l 542 781 q 423 817 477 817 q 245 466 245 817 q 355 126 245 210 l 349 120 q 252 246 281 168 q 224 458 224 324 q 421 835 224 835 q 553 774 511 835 m 408 935 q 672 810 573 935 q 771 476 771 685 q 673 161 771 278 q 412 44 576 44 q 181 126 282 44 q 33 488 33 248 q 134 814 33 693 q 408 935 236 935 m 408 877 q 179 473 179 877 q 404 101 179 101 q 565 199 510 101 q 620 488 620 298 q 567 788 620 703 q 408 877 511 877 m 625 900 q 778 740 721 853 q 834 478 834 627 q 723 125 834 259 q 432 -9 612 -9 q 217 69 317 -9 l 217 72 q 427 11 301 11 q 706 139 597 11 q 816 466 816 267 q 766 726 816 615 q 625 893 716 837 l 625 900 m 414 1111 l 333 1016 l 274 1016 l 261 1030 l 326 1030 l 404 1122 l 387 1141 l 318 1063 l 247 1063 l 361 1198 l 448 1198 l 565 1063 l 456 1063 l 414 1111 m 657 1016 l 500 1016 l 488 1030 l 623 1030 l 506 1167 l 531 1162 l 657 1016 "},"¼":{"x_min":106,"x_max":1172,"ha":1190,"o":"m 295 926 l 295 471 l 336 426 l 167 426 l 220 471 l 220 805 q 171 794 195 794 q 115 831 141 794 l 120 829 l 145 813 q 171 809 152 809 q 220 821 192 809 l 220 854 q 154 834 192 834 q 106 867 106 834 q 125 888 106 888 q 142 874 142 888 q 142 868 142 871 l 141 864 l 146 859 q 152 858 148 858 q 206 877 179 858 q 246 926 233 897 l 295 926 m 324 910 l 340 903 l 340 456 l 415 371 l 190 371 l 182 385 l 387 385 l 324 455 l 324 910 m 900 940 l 363 51 l 299 51 l 835 940 l 900 940 m 311 11 l 383 11 l 933 920 l 944 906 l 393 -7 l 318 -7 l 311 11 m 954 556 l 954 552 q 889 399 940 485 q 765 233 838 313 l 765 223 l 792 223 q 907 368 867 303 q 983 538 947 432 l 997 531 l 997 526 q 940 397 985 478 q 860 277 896 316 l 812 227 l 808 223 l 946 223 l 946 375 q 1015 436 993 401 l 1023 436 l 1023 223 l 1057 223 l 1057 421 l 1073 413 l 1073 223 q 1127 177 1127 223 q 1099 148 1127 148 q 1073 167 1073 148 q 1075 178 1073 175 l 1079 181 q 1079 184 1079 183 q 1058 195 1079 195 l 1051 195 l 1023 195 l 1023 100 l 1074 55 l 894 55 l 946 97 l 946 134 l 744 134 l 735 149 l 946 149 l 946 195 l 703 195 l 703 208 q 811 383 770 289 q 852 556 852 478 l 954 556 m 1134 207 q 1172 161 1172 194 q 1161 131 1172 144 q 1136 119 1150 119 q 1100 130 1122 119 l 1098 136 q 1125 129 1114 129 q 1159 163 1159 129 q 1134 207 1159 184 m 1146 0 l 931 0 l 916 14 l 1119 14 l 1057 84 l 1057 146 l 1073 138 l 1073 85 l 1146 0 "},"#":{"x_min":43,"x_max":772,"ha":815,"o":"m 439 319 l 348 319 l 303 0 l 215 0 l 202 16 l 286 16 l 332 338 l 442 338 l 448 377 l 297 377 l 252 55 l 164 55 l 201 319 l 67 319 l 60 338 l 204 338 l 209 377 l 43 377 l 43 433 l 217 433 l 229 518 l 96 518 l 89 537 l 232 537 l 237 575 l 76 575 l 76 633 l 245 633 l 286 925 l 375 925 l 334 633 l 373 633 l 410 896 l 428 891 l 392 633 l 483 633 l 524 925 l 611 925 l 570 633 l 610 633 l 647 896 l 664 891 l 628 633 l 723 633 l 723 575 l 561 575 l 542 433 l 581 433 l 596 537 l 758 537 l 758 620 l 772 605 l 772 518 l 612 518 l 600 433 l 692 433 l 692 377 l 534 377 l 489 55 l 403 55 l 439 319 m 467 518 l 376 518 l 364 433 l 456 433 l 467 518 m 475 575 l 326 575 l 305 433 l 345 433 l 359 537 l 470 537 l 475 575 m 540 0 l 452 0 l 439 16 l 523 16 l 568 338 l 730 338 l 730 422 l 744 407 l 744 319 l 584 319 l 540 0 "},"Ê":{"x_min":-0.421875,"x_max":876.765625,"ha":863,"o":"m 762 926 l 751 913 q 642 718 682 828 q 631 741 635 734 q 551 845 594 822 q 398 868 509 868 q 276 868 347 868 l 276 555 l 320 555 l 320 831 q 418 836 371 836 q 545 817 504 836 q 617 746 585 799 q 604 756 608 752 q 524 806 549 798 q 428 814 500 814 q 351 814 406 814 l 337 814 l 337 555 l 461 555 l 549 675 l 549 382 l 461 496 l 276 496 l 276 115 l 320 115 l 320 464 l 467 464 l 484 446 l 337 446 l 337 115 q 533 134 475 115 q 625 212 591 154 l 661 273 q 669 288 663 277 q 712 169 686 214 q 799 65 739 124 l 38 65 l 142 143 l 142 446 q 38 411 85 439 l 29 425 q 142 464 70 455 l 142 496 q 125 497 130 497 q 0 446 56 497 q 142 555 30 555 l 142 844 l 38 926 l 762 926 m 795 878 l 790 872 q 680 685 707 761 l 668 700 q 785 892 714 805 l 795 878 m 596 652 l 596 352 l 579 361 l 579 661 l 596 652 m 876 60 l 841 0 l 100 0 l 89 18 l 832 18 l 855 60 q 718 253 758 150 l 739 245 q 865 71 777 158 l 876 60 m 411 1111 l 330 1016 l 270 1016 l 258 1030 l 324 1030 l 402 1122 l 385 1141 l 315 1063 l 244 1063 l 358 1198 l 446 1198 l 563 1063 l 454 1063 l 411 1111 m 655 1016 l 498 1016 l 486 1030 l 621 1030 l 503 1167 l 528 1162 l 655 1016 "},")":{"x_min":102,"x_max":530,"ha":617,"o":"m 102 1043 q 295 977 204 1043 q 465 525 465 856 q 316 9 465 139 q 102 -82 226 -68 l 102 -17 q 194 29 162 3 q 250 106 225 56 q 299 289 284 177 q 314 598 314 402 q 266 878 314 791 q 102 986 219 965 l 102 1043 m 327 993 q 481 812 433 927 q 530 507 530 696 q 437 61 530 216 q 146 -129 344 -92 l 135 -116 q 423 67 334 -80 q 511 511 511 215 q 469 797 511 695 q 316 993 427 900 l 327 993 "},"Å":{"x_min":0.265625,"x_max":1056.1875,"ha":1051,"o":"m 656 926 l 586 845 l 696 550 l 723 565 l 623 832 l 695 915 l 713 907 l 644 828 l 739 575 q 748 582 747 581 l 771 601 q 797 624 791 617 q 851 487 814 547 q 822 487 831 487 q 728 467 758 487 l 851 134 l 953 55 l 611 55 l 704 134 l 629 332 q 514 189 554 257 l 499 193 q 618 342 539 260 l 623 349 l 611 378 q 477 222 530 311 l 465 242 q 374 370 430 298 l 368 378 q 316 190 316 262 q 330 118 316 147 q 400 18 345 88 q 415 0 405 12 l 49 0 l 35 18 l 381 18 l 369 32 q 310 117 324 87 q 297 188 297 147 q 353 394 297 257 l 323 425 q 300 361 314 403 l 278 292 q 260 200 260 237 q 272 137 260 162 q 327 68 285 112 q 339 56 331 64 l 0 56 q 153 190 97 106 q 266 452 210 275 l 268 462 q 165 499 232 492 q 222 615 202 554 q 234 604 232 606 l 264 575 q 302 545 280 560 l 314 575 l 306 582 q 249 630 272 611 l 243 634 l 253 649 q 323 594 290 626 l 415 848 l 343 926 l 656 926 m 489 708 l 414 511 q 421 503 420 504 l 449 472 q 506 396 471 447 l 512 386 q 582 458 542 422 l 489 708 m 458 786 l 350 501 q 439 397 402 449 l 470 354 q 477 345 471 353 q 484 353 483 351 l 493 364 q 501 373 495 367 q 390 505 454 446 l 477 734 l 458 786 m 856 592 q 931 424 871 531 q 914 427 916 427 l 859 431 q 805 434 822 434 q 791 434 802 434 l 904 134 l 1056 0 l 663 0 l 650 18 l 1010 18 l 888 126 l 767 445 q 820 452 791 452 q 902 445 857 452 l 894 460 q 835 605 850 540 l 856 592 m 590 1213 q 652 1112 652 1181 q 618 1028 652 1063 q 538 993 585 993 q 447 1032 483 993 l 452 1037 q 531 1005 491 1005 q 606 1036 575 1005 q 638 1112 638 1068 q 583 1207 638 1169 l 590 1213 m 497 1234 q 566 1205 537 1234 q 595 1137 595 1177 q 566 1068 595 1096 q 497 1040 537 1040 q 428 1068 457 1040 q 400 1137 400 1096 q 428 1205 400 1177 q 497 1234 457 1234 m 498 1180 q 466 1167 479 1180 q 454 1136 454 1154 q 466 1105 454 1118 q 498 1093 479 1093 q 529 1105 516 1093 q 542 1136 542 1118 q 529 1167 542 1154 q 498 1180 516 1180 "},"ø":{"x_min":32,"x_max":836,"ha":869,"o":"m 687 935 l 636 846 q 733 692 695 796 q 771 475 771 588 q 674 162 771 280 q 417 44 577 44 q 201 113 296 44 l 158 43 l 93 43 l 158 149 q 32 494 32 272 q 135 813 32 690 q 404 936 238 936 q 592 882 512 936 l 622 935 l 687 935 m 603 681 l 306 183 q 356 127 327 150 l 350 120 q 285 183 308 148 l 597 711 q 582 757 592 730 l 243 183 q 408 101 301 101 q 566 198 512 101 q 620 484 620 295 q 603 681 620 593 m 533 784 q 429 819 492 819 q 244 466 244 819 q 256 314 244 375 l 533 784 m 551 811 q 405 878 497 878 q 181 478 181 878 q 213 242 181 314 l 241 289 l 239 299 q 224 465 224 390 q 423 836 224 836 q 539 792 486 836 l 551 811 m 724 921 l 736 906 l 700 846 q 836 470 836 712 q 722 125 836 259 q 430 -8 609 -8 q 230 57 327 -8 l 188 -16 l 59 -16 l 70 3 l 177 3 l 218 72 q 423 11 332 11 q 708 139 599 11 q 818 475 818 268 q 781 689 818 591 q 679 846 744 787 l 724 921 "},"â":{"x_min":0.265625,"x_max":1056.5625,"ha":1052,"o":"m 656 926 l 585 845 l 697 550 l 724 565 l 623 832 l 695 915 l 713 907 l 644 828 l 739 575 q 749 582 748 581 l 771 601 q 797 624 792 617 q 851 487 815 547 q 823 487 832 487 q 729 467 758 487 l 851 134 l 953 55 l 611 55 l 704 134 l 629 332 q 514 189 554 257 l 499 193 q 618 342 539 260 l 623 349 l 611 378 q 477 222 530 311 l 465 242 q 375 370 429 298 l 368 378 q 316 190 316 262 q 330 118 316 147 q 400 18 345 88 q 415 0 405 12 l 49 0 l 35 18 l 381 18 l 369 32 q 310 117 324 87 q 297 188 297 147 q 353 394 297 257 l 323 425 q 300 361 314 403 l 278 292 q 260 200 260 237 q 272 137 260 162 q 327 68 285 112 q 339 56 331 64 l 0 56 q 153 190 97 106 q 266 452 210 275 l 268 462 q 165 499 232 492 q 222 615 202 554 q 234 604 232 606 l 264 575 q 302 545 280 560 l 314 575 l 306 582 q 249 630 272 611 l 243 634 l 253 649 q 323 594 290 626 l 415 848 l 343 926 l 656 926 m 488 708 l 414 511 q 421 503 420 504 l 448 472 q 505 396 471 447 l 512 386 q 581 458 541 422 l 488 708 m 458 786 l 350 501 q 439 397 402 449 l 470 354 q 477 345 471 353 q 484 353 483 351 l 493 364 q 501 373 495 367 q 390 505 453 446 l 477 734 l 458 786 m 857 592 q 931 424 872 531 q 914 427 916 427 l 859 431 q 805 434 822 434 q 792 434 802 434 l 905 134 l 1056 0 l 663 0 l 651 18 l 1011 18 l 889 126 l 768 445 q 821 452 791 452 q 902 445 857 452 l 894 460 q 836 605 851 540 l 857 592 m 506 1111 l 425 1016 l 366 1016 l 353 1030 l 419 1030 l 497 1122 l 479 1141 l 410 1063 l 339 1063 l 453 1199 l 541 1199 l 657 1063 l 549 1063 l 506 1111 m 750 1016 l 593 1016 l 580 1030 l 716 1030 l 598 1167 l 623 1162 l 750 1016 "},"}":{"x_min":101.953125,"x_max":566,"ha":612,"o":"m 518 535 l 518 479 q 418 455 448 479 q 388 383 388 432 q 399 311 388 355 q 430 151 430 198 q 369 -15 430 40 q 189 -63 319 -63 l 101 -63 l 101 -9 q 235 30 193 -9 q 277 156 277 69 q 267 223 277 189 l 249 287 q 240 350 240 322 q 343 488 240 448 q 289 527 313 502 q 364 496 331 505 q 410 503 384 500 l 410 508 q 243 648 243 535 q 253 707 243 676 l 272 764 q 281 821 281 787 q 259 908 281 861 q 135 940 220 940 l 125 958 q 244 933 201 958 q 102 982 205 982 l 102 1036 q 186 1036 142 1036 q 362 996 314 1036 q 431 822 431 940 q 399 682 431 781 q 388 623 388 648 q 518 535 388 535 m 116 -100 l 218 -100 q 397 -53 348 -100 q 458 114 458 3 q 427 274 458 160 q 416 346 416 317 q 446 417 416 394 q 547 441 477 441 l 547 504 l 566 486 l 566 422 q 465 399 496 422 q 435 327 435 376 q 446 255 435 298 q 477 95 477 141 q 416 -71 477 -14 q 237 -119 367 -119 l 160 -119 l 135 -119 l 116 -100 m 450 550 q 417 606 417 578 q 427 664 417 631 q 459 808 459 759 q 410 956 459 874 q 478 785 478 894 q 446 645 478 733 q 436 596 436 615 q 450 550 436 581 "},"‰":{"x_min":23,"x_max":1285,"ha":1304,"o":"m 689 925 l 203 49 l 144 49 l 628 925 l 689 925 m 716 909 l 727 890 l 237 -1 l 172 -1 l 161 17 l 228 17 l 716 909 m 252 847 q 217 862 235 862 q 169 832 182 862 q 157 725 157 802 q 202 552 157 600 l 193 552 q 150 614 162 576 q 139 727 139 651 q 154 845 139 813 q 212 877 170 877 q 258 847 239 877 l 252 847 m 197 953 q 327 885 277 953 q 377 710 377 818 q 331 546 377 604 q 204 488 286 488 q 71 551 119 488 q 23 725 23 614 q 70 890 23 828 q 197 953 118 953 m 199 898 q 130 856 151 898 q 109 720 109 815 q 203 535 109 535 q 292 716 292 535 q 199 898 292 898 m 321 920 l 332 920 q 406 833 379 889 q 433 705 433 776 q 381 527 433 596 q 249 459 330 459 q 192 475 216 459 l 202 475 q 237 469 220 469 q 365 535 314 469 q 416 704 416 602 q 321 920 416 831 m 671 362 q 634 375 652 375 q 576 300 576 375 l 576 215 l 576 181 q 620 65 584 103 l 612 65 q 568 128 580 91 q 557 240 557 164 q 572 358 557 326 q 630 390 588 390 q 675 362 657 390 l 671 362 m 615 468 q 744 400 694 468 q 795 225 795 332 q 749 60 795 118 q 622 2 704 2 q 489 65 537 2 q 441 240 441 129 q 488 405 441 343 q 615 468 536 468 m 617 413 q 548 371 569 413 q 527 235 527 330 q 621 50 527 50 q 710 230 710 50 q 617 413 710 413 m 739 434 l 750 434 q 823 347 797 403 q 850 219 850 290 q 799 41 850 110 q 666 -27 748 -27 q 610 -11 633 -27 l 620 -11 q 656 -17 637 -17 q 783 49 733 -17 q 834 217 834 115 q 739 434 834 344 m 1106 362 q 1069 375 1087 375 q 1011 300 1011 375 l 1011 215 l 1011 181 q 1055 65 1019 103 l 1047 65 q 1003 128 1015 91 q 992 240 992 164 q 1007 358 992 326 q 1065 390 1022 390 q 1110 362 1092 390 l 1106 362 m 1050 468 q 1179 400 1129 468 q 1230 225 1230 332 q 1184 60 1230 118 q 1057 2 1139 2 q 924 65 972 2 q 876 240 876 129 q 923 405 876 343 q 1050 468 971 468 m 1052 413 q 983 371 1004 413 q 962 235 962 330 q 1056 50 962 50 q 1145 230 1145 50 q 1052 413 1145 413 m 1174 434 l 1185 434 q 1258 347 1232 403 q 1285 219 1285 290 q 1234 41 1285 110 q 1101 -27 1183 -27 q 1045 -11 1068 -27 l 1055 -11 q 1091 -17 1072 -17 q 1218 49 1168 -17 q 1269 217 1269 115 q 1174 434 1269 345 "},"Ä":{"x_min":0.265625,"x_max":1056.234375,"ha":1051,"o":"m 656 926 l 585 845 l 696 550 l 724 565 l 623 832 l 695 915 l 713 907 l 644 828 l 739 575 q 749 582 747 581 l 771 601 q 797 624 791 617 q 851 487 814 547 q 822 487 831 487 q 728 467 758 487 l 851 134 l 953 55 l 610 55 l 704 134 l 628 332 q 514 189 554 257 l 498 193 q 618 342 538 260 l 623 349 l 610 378 q 477 222 530 311 l 464 242 q 375 370 429 298 l 368 378 q 316 190 316 262 q 330 118 316 147 q 400 18 345 88 q 415 0 405 12 l 49 0 l 35 18 l 381 18 l 370 32 q 310 117 324 87 q 297 188 297 147 q 353 394 297 257 l 323 425 q 300 361 314 403 l 278 292 q 260 200 260 237 q 272 137 260 162 q 327 68 285 112 q 339 56 331 64 l 0 56 q 153 190 97 106 q 266 452 210 275 l 268 462 q 165 499 232 492 q 222 615 202 554 q 234 604 232 606 l 264 575 q 302 545 280 560 l 314 575 l 306 582 q 249 630 272 611 l 243 634 l 253 649 q 323 594 290 626 l 415 848 l 343 926 l 656 926 m 488 708 l 414 511 q 421 503 420 504 l 448 472 q 505 396 471 447 l 512 386 q 581 458 541 422 l 488 708 m 458 786 l 350 501 q 439 397 402 449 l 470 354 q 477 345 471 353 q 483 353 483 351 l 493 364 q 501 373 495 367 q 390 505 453 446 l 477 734 l 458 786 m 856 592 q 931 424 871 531 q 914 427 916 427 l 859 431 q 805 434 822 434 q 791 434 802 434 l 905 134 l 1056 0 l 663 0 l 650 18 l 1010 18 l 888 126 l 768 445 q 820 452 791 452 q 902 445 857 452 l 894 460 q 835 605 850 540 l 856 592 m 625 1197 q 671 1178 652 1197 q 690 1132 690 1159 q 671 1085 690 1104 q 625 1067 652 1067 q 578 1085 597 1067 q 560 1132 560 1104 q 578 1177 560 1158 q 625 1197 597 1197 m 709 1167 q 747 1100 747 1150 q 722 1039 747 1064 q 662 1015 698 1015 q 599 1047 622 1015 l 599 1051 q 654 1029 630 1029 q 711 1052 687 1029 q 735 1108 735 1075 q 709 1167 735 1134 m 475 1167 q 513 1100 513 1150 q 488 1039 513 1064 q 429 1015 464 1015 q 366 1047 389 1015 l 366 1051 q 420 1029 397 1029 q 477 1052 453 1029 q 501 1108 501 1075 q 475 1167 501 1134 m 389 1197 q 435 1178 416 1197 q 454 1132 454 1159 q 435 1085 454 1104 q 389 1067 416 1067 q 342 1085 361 1067 q 324 1132 324 1104 q 342 1178 324 1159 q 389 1197 361 1197 "},"¸":{"x_min":208.609375,"x_max":492,"ha":695,"o":"m 373 -50 q 383 -49 380 -49 q 427 -72 410 -49 q 444 -133 444 -96 q 407 -231 444 -192 q 314 -271 371 -271 q 208 -203 247 -271 l 214 -200 q 281 -153 254 -174 q 322 -217 281 -217 q 356 -190 341 -217 q 371 -129 371 -164 q 332 -84 371 -84 q 298 -103 312 -84 l 286 -92 q 318 10 307 -39 l 388 10 l 373 -50 m 415 -11 l 430 -27 l 422 -52 l 406 -42 l 415 -11 m 446 -68 q 492 -174 492 -104 q 452 -269 492 -228 q 360 -311 412 -311 q 271 -281 300 -311 l 271 -275 q 351 -297 308 -297 q 435 -253 397 -297 q 473 -157 473 -210 q 440 -72 473 -111 l 446 -68 m 322 -122 q 353 -99 328 -99 l 353 -106 q 332 -132 340 -113 l 322 -122 m 325 -185 l 341 -193 l 328 -201 l 325 -185 "},"a":{"x_min":0.265625,"x_max":1056.5625,"ha":1052,"o":"m 656 926 l 585 845 l 697 550 l 724 565 l 623 832 l 695 915 l 713 907 l 644 828 l 739 575 q 749 582 748 581 l 771 601 q 797 624 792 617 q 851 487 815 547 q 823 487 832 487 q 729 467 758 487 l 851 134 l 953 55 l 611 55 l 704 134 l 629 332 q 514 189 554 257 l 499 193 q 618 342 539 260 l 623 349 l 611 378 q 477 222 530 311 l 465 242 q 375 370 429 298 l 368 378 q 316 190 316 262 q 330 118 316 147 q 400 18 345 88 q 415 0 405 12 l 49 0 l 35 18 l 381 18 l 369 32 q 310 117 324 87 q 297 188 297 147 q 353 394 297 257 l 323 425 q 300 361 314 403 l 278 292 q 260 200 260 237 q 272 137 260 162 q 327 68 285 112 q 339 56 331 64 l 0 56 q 153 190 97 106 q 266 452 210 275 l 268 462 q 165 499 232 492 q 222 615 202 554 q 234 604 232 606 l 264 575 q 302 545 280 560 l 314 575 l 306 582 q 249 630 272 611 l 243 634 l 253 649 q 323 594 290 626 l 415 848 l 343 926 l 656 926 m 488 708 l 414 511 q 421 503 420 504 l 448 472 q 505 396 471 447 l 512 386 q 581 458 541 422 l 488 708 m 458 786 l 350 501 q 439 397 402 449 l 470 354 q 477 345 471 353 q 484 353 483 351 l 493 364 q 501 373 495 367 q 390 505 453 446 l 477 734 l 458 786 m 857 592 q 931 424 872 531 q 914 427 916 427 l 859 431 q 805 434 822 434 q 792 434 802 434 l 905 134 l 1056 0 l 663 0 l 651 18 l 1011 18 l 889 126 l 768 445 q 821 452 791 452 q 902 445 857 452 l 894 460 q 836 605 851 540 l 857 592 "},"—":{"x_min":0,"x_max":991.484375,"ha":991,"o":"m 893 524 l 923 444 l 28 444 l 0 524 l 893 524 m 991 395 l 72 395 l 57 414 l 966 414 l 934 507 l 956 491 l 991 395 "},"=":{"x_min":104,"x_max":712,"ha":816,"o":"m 657 655 l 657 570 l 104 570 l 104 655 l 657 655 m 696 616 l 712 601 l 712 513 l 139 513 l 127 532 l 696 532 l 696 616 m 657 423 l 657 338 l 104 338 l 104 423 l 657 423 m 696 385 l 712 370 l 712 282 l 139 282 l 127 301 l 696 301 l 696 385 "},"N":{"x_min":-13.984375,"x_max":825.03125,"ha":834,"o":"m 801 926 q 701 852 723 886 q 668 697 668 801 l 668 653 l 668 56 l 553 56 l 232 677 l 232 308 l 232 278 l 240 180 q 302 80 254 112 l 307 75 q 214 275 214 106 l 214 339 l 214 710 l 178 781 l 178 390 q 202 147 178 205 q 317 63 226 89 l 376 0 l 8 0 l -2 18 l 337 18 l 302 56 l -13 56 q 95 136 68 85 q 123 308 123 186 l 123 850 l 32 926 l 376 926 l 279 861 l 608 221 l 608 302 l 326 850 l 421 915 l 434 902 l 350 845 l 608 339 l 608 656 l 608 692 q 588 849 608 810 q 493 926 569 889 l 801 926 m 825 875 l 812 855 q 741 810 760 843 q 723 699 723 777 l 723 0 l 577 0 l 568 18 l 705 18 l 705 692 q 729 825 705 788 q 825 875 754 863 "},"˚":{"x_min":221,"x_max":473,"ha":694,"o":"m 411 1214 q 473 1113 473 1182 q 439 1028 473 1063 q 359 993 406 993 q 268 1032 304 993 l 273 1037 q 352 1005 312 1005 q 427 1036 395 1005 q 459 1113 459 1068 q 404 1208 459 1169 l 411 1214 m 318 1235 q 387 1206 358 1235 q 416 1137 416 1178 q 387 1068 416 1096 q 318 1040 358 1040 q 249 1068 278 1040 q 221 1137 221 1096 q 249 1206 221 1177 q 318 1235 278 1235 m 319 1181 q 287 1168 300 1181 q 275 1137 275 1155 q 287 1105 275 1118 q 319 1093 300 1093 q 350 1105 337 1093 q 363 1137 363 1118 q 350 1168 363 1155 q 319 1181 337 1181 "},"ú":{"x_min":22.78125,"x_max":829.234375,"ha":843,"o":"m 806 925 l 685 828 l 685 390 q 677 216 685 269 q 646 129 669 163 q 419 43 587 43 q 171 129 241 43 q 115 392 115 198 l 115 842 l 22 925 l 342 925 l 251 835 l 251 391 l 251 286 q 293 143 251 185 q 436 101 335 101 q 588 165 546 101 q 622 389 622 217 l 622 828 l 517 925 l 806 925 m 829 879 l 737 802 l 737 381 q 704 111 737 174 q 444 -16 638 -16 q 193 67 277 -16 l 198 64 l 222 51 q 437 2 306 2 q 685 120 624 2 q 718 376 718 183 l 718 810 l 819 893 l 829 879 m 371 888 l 304 821 l 304 317 l 304 270 l 325 184 q 384 122 340 158 l 385 115 q 306 183 328 139 q 285 319 285 227 l 285 828 l 361 902 l 371 888 m 650 1196 l 484 1062 l 412 1062 l 512 1196 l 650 1196 m 442 1005 l 426 1024 l 509 1024 l 676 1159 l 689 1142 l 519 1005 l 442 1005 "},"2":{"x_min":80.40625,"x_max":763.3125,"ha":834,"o":"m 711 245 l 711 56 l 80 56 q 168 247 104 165 q 349 404 231 329 q 494 510 457 471 q 567 697 567 590 q 518 829 567 781 q 385 878 469 878 q 265 836 312 878 q 218 732 218 795 q 247 648 218 682 q 322 615 277 615 q 406 655 367 615 l 417 649 q 369 564 408 596 q 274 532 330 532 q 146 580 196 532 q 96 703 96 629 q 177 868 96 803 q 380 933 258 933 q 605 858 513 933 q 697 675 697 783 q 476 396 697 518 l 372 339 q 190 158 258 277 q 187 153 189 156 l 230 153 q 424 327 283 250 l 517 377 q 681 505 630 438 q 733 659 733 573 q 619 876 733 790 l 623 882 q 753 660 753 814 q 530 362 753 482 l 436 311 q 256 153 288 230 l 467 153 q 640 170 597 153 q 697 245 682 187 l 711 245 m 763 220 l 763 0 l 146 0 l 133 18 l 745 18 l 745 220 l 763 220 m 558 693 q 397 822 517 822 q 312 792 347 822 q 278 718 278 762 q 339 632 278 659 l 339 623 q 282 657 304 629 q 261 721 261 684 q 300 806 261 772 q 397 841 339 841 q 512 798 466 841 q 558 693 558 756 m 459 619 q 394 511 436 545 q 284 478 352 478 q 148 554 195 478 l 153 554 l 161 548 q 223 503 199 514 q 281 493 247 493 q 443 625 417 493 l 459 619 "},"ü":{"x_min":22.78125,"x_max":829.234375,"ha":843,"o":"m 806 925 l 685 828 l 685 390 q 677 216 685 269 q 646 129 669 163 q 419 43 587 43 q 171 129 241 43 q 115 392 115 198 l 115 842 l 22 925 l 342 925 l 251 835 l 251 391 l 251 286 q 293 143 251 185 q 436 101 335 101 q 588 165 546 101 q 622 389 622 217 l 622 828 l 517 925 l 806 925 m 829 879 l 737 802 l 737 381 q 704 111 737 174 q 444 -16 638 -16 q 193 67 277 -16 l 198 64 l 222 51 q 437 2 306 2 q 685 120 624 2 q 718 376 718 183 l 718 810 l 819 893 l 829 879 m 370 888 l 304 821 l 304 317 l 304 270 l 324 184 q 383 122 340 158 l 385 115 q 306 183 328 139 q 285 319 285 227 l 285 828 l 361 902 l 370 888 m 548 1197 q 594 1178 575 1197 q 613 1132 613 1159 q 594 1085 613 1104 q 548 1067 575 1067 q 501 1085 520 1067 q 483 1132 483 1104 q 501 1178 483 1159 q 548 1197 520 1197 m 632 1167 q 670 1100 670 1150 q 645 1038 670 1063 q 586 1014 621 1014 q 522 1046 546 1014 l 522 1051 q 577 1028 554 1028 q 634 1051 610 1028 q 658 1108 658 1074 q 632 1167 658 1134 m 398 1167 q 436 1100 436 1150 q 411 1038 436 1063 q 351 1014 387 1014 q 288 1046 312 1014 l 288 1051 q 343 1028 320 1028 q 400 1051 376 1028 q 424 1108 424 1074 q 398 1167 424 1134 m 312 1197 q 358 1178 339 1197 q 377 1132 377 1159 q 358 1085 377 1104 q 312 1067 339 1067 q 265 1085 284 1067 q 247 1132 247 1104 q 265 1178 247 1159 q 312 1197 284 1197 "},"Z":{"x_min":23.0625,"x_max":866.703125,"ha":890,"o":"m 767 926 l 223 113 l 266 113 l 799 911 l 811 894 l 289 114 l 357 114 l 410 114 l 438 114 q 544 135 494 114 q 619 190 594 156 q 674 283 651 232 q 794 56 731 134 l 23 56 l 525 811 l 512 811 l 425 811 q 254 784 301 811 q 187 675 208 758 l 172 690 q 228 786 185 748 q 295 820 257 812 q 423 828 334 828 q 526 828 479 828 l 537 828 l 563 867 q 469 867 516 867 q 277 855 329 867 q 185 803 224 843 q 136 717 155 771 l 131 728 q 35 918 97 806 l 31 926 l 767 926 m 866 61 l 832 0 l 57 0 l 43 18 l 821 18 l 845 61 q 722 276 767 156 l 745 267 q 861 67 780 165 l 866 61 "},"u":{"x_min":22.78125,"x_max":829.234375,"ha":843,"o":"m 806 925 l 685 828 l 685 390 q 677 216 685 269 q 646 129 669 163 q 419 43 587 43 q 171 129 241 43 q 115 392 115 198 l 115 842 l 22 925 l 342 925 l 251 835 l 251 391 l 251 286 q 293 143 251 185 q 436 101 335 101 q 588 165 546 101 q 622 389 622 217 l 622 828 l 517 925 l 806 925 m 829 879 l 737 802 l 737 381 q 704 111 737 174 q 444 -16 638 -16 q 193 67 277 -16 l 198 64 l 222 51 q 437 2 306 2 q 685 120 624 2 q 718 376 718 183 l 718 810 l 819 893 l 829 879 m 371 888 l 304 821 l 304 317 l 304 270 l 325 184 q 384 122 340 158 l 385 115 q 306 183 328 139 q 285 319 285 227 l 285 828 l 361 902 l 371 888 "},"˜":{"x_min":124,"x_max":570.796875,"ha":694,"o":"m 520 1195 q 520 1177 520 1182 q 489 1094 520 1128 q 414 1060 458 1060 q 288 1099 366 1060 q 223 1123 243 1123 q 172 1070 178 1123 l 124 1070 q 159 1167 124 1128 q 247 1207 195 1207 q 375 1156 292 1207 q 427 1137 408 1137 q 457 1151 445 1137 q 470 1184 470 1165 q 469 1195 470 1189 l 520 1195 m 557 1175 l 570 1163 q 535 1060 570 1102 q 446 1018 499 1018 q 369 1038 412 1018 l 378 1047 q 443 1033 416 1033 q 556 1167 544 1033 l 557 1175 m 229 1090 l 229 1070 q 209 1019 214 1049 l 155 1019 l 144 1035 l 197 1035 q 229 1090 205 1073 "},"Ó":{"x_min":33,"x_max":834.3125,"ha":867,"o":"m 553 774 l 542 781 q 423 817 477 817 q 245 466 245 817 q 355 126 245 210 l 349 120 q 252 246 281 168 q 224 458 224 324 q 421 835 224 835 q 553 774 511 835 m 408 935 q 672 810 573 935 q 771 476 771 685 q 673 161 771 278 q 412 44 576 44 q 181 126 282 44 q 33 488 33 248 q 134 814 33 693 q 408 935 236 935 m 408 877 q 179 473 179 877 q 404 101 179 101 q 565 199 510 101 q 620 488 620 298 q 567 788 620 703 q 408 877 511 877 m 625 900 q 778 740 721 853 q 834 478 834 627 q 723 125 834 259 q 432 -9 612 -9 q 217 69 317 -9 l 217 72 q 427 11 301 11 q 706 139 597 11 q 816 466 816 267 q 766 726 816 615 q 625 893 716 837 l 625 900 m 625 1196 l 460 1062 l 388 1062 l 487 1196 l 625 1196 m 417 1005 l 402 1024 l 485 1024 l 652 1159 l 665 1142 l 494 1005 l 417 1005 "},"k":{"x_min":28.09375,"x_max":981.484375,"ha":940,"o":"m 33 926 l 350 926 l 257 836 l 257 426 l 294 469 l 294 831 l 369 905 l 380 890 l 310 822 l 310 490 l 520 741 q 566 839 566 795 q 540 888 566 865 q 478 919 514 911 l 478 926 l 835 926 l 835 919 q 582 728 717 890 l 488 616 l 738 129 l 851 55 l 500 55 l 589 122 l 420 458 l 310 323 l 310 129 l 420 0 l 72 0 l 54 18 l 380 18 l 294 122 l 294 332 l 412 477 l 397 507 l 257 340 l 257 129 l 338 56 l 28 56 l 121 135 l 121 845 l 33 926 m 868 861 q 669 748 768 861 l 550 615 l 789 129 l 981 0 l 550 0 l 531 18 l 923 18 l 779 117 l 531 615 l 657 757 q 861 878 756 868 l 868 861 "},"ˇ":{"x_min":170.90625,"x_max":524.90625,"ha":694,"o":"m 349 1120 l 417 1199 l 489 1199 l 375 1063 l 287 1063 l 170 1199 l 280 1199 l 349 1120 m 524 1153 l 407 1013 l 348 1013 l 332 1030 l 398 1030 l 511 1168 l 524 1153 "},"Ù":{"x_min":22.78125,"x_max":829.234375,"ha":843,"o":"m 806 925 l 685 828 l 685 390 q 677 216 685 269 q 646 129 669 163 q 419 43 587 43 q 171 129 241 43 q 115 392 115 198 l 115 842 l 22 925 l 342 925 l 251 835 l 251 391 l 251 286 q 293 143 251 185 q 436 101 335 101 q 588 165 546 101 q 622 389 622 217 l 622 828 l 517 925 l 806 925 m 829 879 l 737 802 l 737 381 q 704 111 737 174 q 444 -16 638 -16 q 193 67 277 -16 l 198 64 l 222 51 q 437 2 306 2 q 685 120 624 2 q 718 376 718 183 l 718 810 l 819 893 l 829 879 m 371 888 l 304 821 l 304 317 l 304 270 l 325 184 q 384 122 340 158 l 385 115 q 306 183 328 139 q 285 319 285 227 l 285 828 l 361 902 l 371 888 m 378 1194 l 471 1065 l 392 1065 l 236 1194 l 378 1194 m 562 1019 l 448 1019 l 429 1036 l 524 1036 l 439 1153 l 467 1147 l 562 1019 "},"Ÿ":{"x_min":-32.3125,"x_max":1006.453125,"ha":891,"o":"m -32 926 l 310 926 l 226 838 l 451 498 l 473 532 l 272 838 l 344 906 l 358 895 l 296 838 l 484 548 l 635 788 q 701 944 701 893 q 653 1034 701 982 q 600 1015 627 1015 q 537 1047 560 1015 l 537 1051 q 592 1029 568 1029 q 649 1052 625 1029 q 673 1108 673 1075 q 647 1167 673 1134 q 685 1100 685 1150 q 668 1049 685 1073 q 967 1160 848 1094 l 975 1164 l 979 1159 l 973 1151 q 772 895 851 1026 q 729 824 742 845 l 478 421 l 478 146 l 575 56 l 245 56 l 344 146 l 344 421 l 180 671 l 145 728 q 66 837 97 803 q -24 919 35 872 l -32 926 m 1006 1123 l 1006 1096 l 999 1089 q 901 981 942 1035 q 779 798 860 927 l 534 412 l 534 146 l 655 0 l 230 0 l 222 18 l 619 18 l 516 146 l 516 416 l 766 811 l 805 873 q 1006 1123 910 1041 m 563 1197 q 609 1178 590 1197 q 628 1132 628 1159 q 609 1085 628 1104 q 563 1067 590 1067 q 516 1085 535 1067 q 498 1132 498 1104 q 516 1178 498 1159 q 563 1197 535 1197 m 413 1167 q 451 1100 451 1150 q 426 1039 451 1064 q 367 1015 402 1015 q 303 1047 327 1015 l 303 1051 q 358 1029 335 1029 q 415 1052 391 1029 q 439 1108 439 1075 q 413 1167 439 1134 m 327 1197 q 373 1178 354 1197 q 392 1132 392 1159 q 373 1085 392 1104 q 327 1067 354 1067 q 280 1085 299 1067 q 262 1132 262 1104 q 280 1178 262 1159 q 327 1197 299 1197 "},"€":{"x_min":-2.28125,"x_max":829.625,"ha":815,"o":"m 463 855 q 584 797 529 855 l 584 788 q 467 838 522 838 q 301 645 333 838 l 442 645 l 464 583 l 228 583 q 226 499 226 542 q 226 441 226 470 l 272 441 q 272 503 272 466 q 272 527 272 508 q 272 552 272 546 l 510 552 l 482 623 l 501 615 l 533 534 l 292 534 q 292 502 292 527 q 292 441 292 465 l 442 441 l 464 379 l 233 379 q 477 88 275 88 q 696 333 674 88 q 719 361 699 361 q 746 317 746 361 q 716 181 746 251 q 455 32 653 32 q 212 117 308 32 q 91 331 125 194 l 53 331 l 46 348 l 87 348 q 81 379 83 363 l 21 379 l -2 441 l 73 441 q 73 490 73 465 q 73 534 73 512 l 53 534 l 46 552 l 75 552 q 79 583 77 567 l 21 583 l -2 645 l 93 645 q 217 858 130 777 q 448 949 313 949 q 584 920 500 949 q 704 891 668 891 q 769 911 740 891 l 780 905 l 772 893 q 667 679 703 772 l 660 664 l 652 668 q 587 823 638 762 q 441 893 530 893 q 235 645 274 893 l 281 645 q 463 855 317 855 m 447 116 l 447 109 q 334 201 380 122 q 284 348 298 263 l 510 348 l 482 419 l 501 411 l 533 331 l 307 331 q 447 116 344 158 m 793 322 q 482 -22 793 -22 q 267 47 366 -22 l 267 52 q 477 -4 354 -4 q 653 46 576 -4 q 762 191 733 99 q 783 315 776 239 l 784 331 l 793 322 m 829 872 l 822 860 q 704 630 745 727 l 685 638 l 693 655 q 753 773 717 710 l 814 882 l 829 872 "},"¢":{"x_min":138,"x_max":676.59375,"ha":814,"o":"m 365 907 l 417 907 l 417 817 q 459 811 435 817 l 459 883 l 476 869 l 476 807 q 531 786 498 801 q 590 770 569 770 q 631 788 614 770 l 637 784 q 549 596 581 693 l 542 596 q 505 708 542 659 q 417 767 469 758 l 417 223 l 427 223 q 459 228 443 223 l 459 723 q 499 693 476 720 l 499 684 l 476 697 l 476 233 q 536 282 509 245 q 567 365 562 319 l 570 389 q 590 412 573 412 q 613 379 613 412 q 588 276 613 324 q 522 205 562 228 q 417 178 484 184 l 417 68 l 365 68 l 365 137 l 354 141 q 278 180 310 157 l 273 191 q 365 154 317 165 l 365 180 q 199 280 260 197 q 138 490 138 364 q 201 711 138 619 q 365 817 264 802 l 365 907 m 365 710 q 305 520 305 667 q 346 296 305 399 l 352 283 l 352 278 q 287 510 287 373 q 365 731 287 680 l 365 765 q 254 511 254 731 q 280 334 254 400 q 365 237 307 269 l 365 710 m 676 757 l 673 751 q 633 674 650 711 l 590 583 l 586 575 l 570 585 q 659 767 608 676 l 676 757 m 661 380 q 612 220 661 284 q 476 136 563 155 l 476 18 l 402 18 l 388 35 l 459 35 l 459 152 q 591 225 540 164 q 642 372 642 286 q 641 391 642 377 l 661 380 "},"Ω":{"x_min":-43.78125,"x_max":968.09375,"ha":925,"o":"m 968 190 l 915 0 l 518 0 l 518 85 q 671 208 621 142 q 761 506 761 329 q 677 787 761 679 q 462 896 594 896 q 243 783 321 896 q 164 512 164 670 q 251 213 164 338 q 407 85 302 140 l 407 0 l 9 0 l -43 190 l -15 190 q 32 111 3 136 q 120 87 62 87 l 164 87 l 316 87 l 316 90 q 129 191 194 134 q -18 508 -18 321 q 114 810 -18 678 q 463 941 244 941 q 832 792 699 941 q 943 513 943 667 q 789 187 943 315 q 609 90 727 135 l 609 88 l 773 88 l 818 88 q 894 113 867 88 q 940 190 921 138 l 968 190 "},"é":{"x_min":-0.421875,"x_max":876.765625,"ha":863,"o":"m 762 926 l 751 913 q 642 718 682 828 q 631 741 635 734 q 551 845 594 822 q 398 868 509 868 q 276 868 347 868 l 276 555 l 320 555 l 320 831 q 418 836 371 836 q 545 817 504 836 q 617 746 585 799 q 604 756 608 752 q 524 806 549 798 q 428 814 500 814 q 351 814 406 814 l 337 814 l 337 555 l 461 555 l 549 675 l 549 382 l 461 496 l 276 496 l 276 115 l 320 115 l 320 464 l 467 464 l 484 446 l 337 446 l 337 115 q 533 134 475 115 q 625 212 591 154 l 661 273 q 669 288 663 277 q 712 169 686 214 q 799 65 739 124 l 38 65 l 142 143 l 142 446 q 38 411 85 439 l 29 425 q 142 464 70 455 l 142 496 q 125 497 130 497 q 0 446 56 497 q 142 555 30 555 l 142 844 l 38 926 l 762 926 m 795 878 l 790 872 q 680 685 707 761 l 668 700 q 785 892 714 805 l 795 878 m 596 652 l 596 352 l 579 361 l 579 661 l 596 652 m 876 60 l 841 0 l 100 0 l 89 18 l 832 18 l 855 60 q 718 253 758 150 l 739 245 q 865 71 777 158 l 876 60 m 493 1196 l 328 1062 l 255 1062 l 355 1196 l 493 1196 m 284 1005 l 269 1024 l 353 1024 l 520 1159 l 532 1142 l 362 1005 l 284 1005 "},"s":{"x_min":-13.390625,"x_max":757,"ha":771,"o":"m 665 918 q 608 819 629 870 q 553 694 567 717 l 550 690 q 546 702 547 697 q 515 786 527 763 q 478 832 502 810 q 337 887 416 887 q 217 846 265 887 q 169 745 169 806 q 340 590 169 631 l 455 562 q 700 303 700 503 q 616 116 700 192 q 408 41 532 41 q 235 64 331 41 l 156 84 q 77 96 108 96 q -7 69 36 96 l -13 79 q 104 320 70 205 l 116 317 q 202 151 131 210 q 388 93 273 93 q 533 135 479 93 q 587 248 587 177 q 512 383 587 330 q 292 454 458 421 q 106 537 164 479 q 49 700 49 596 q 125 874 49 807 q 326 941 202 941 q 511 912 405 941 q 584 899 561 899 q 657 922 618 899 l 665 918 m 706 889 l 700 879 q 653 790 673 833 q 599 678 606 690 l 596 674 l 580 680 l 582 687 q 639 803 602 731 l 685 893 l 689 899 l 706 889 m 508 754 q 348 834 434 834 q 262 804 296 834 q 229 728 229 774 q 297 625 229 678 l 303 621 l 299 616 q 210 732 210 656 q 248 818 210 785 q 347 852 286 852 q 449 827 405 852 q 513 757 493 802 l 508 754 m 665 485 q 757 294 757 415 q 656 74 757 164 q 412 -15 556 -15 q 279 0 339 -15 l 171 26 q 90 36 133 36 q 19 20 51 36 l 11 39 q 82 56 46 56 q 175 43 123 56 l 279 18 q 411 4 342 4 q 642 90 547 4 q 738 299 738 176 q 665 481 738 403 l 665 485 m 181 290 q 316 117 206 167 l 316 111 q 163 286 190 148 l 181 290 m 97 509 l 120 497 q 250 430 142 457 l 360 403 q 508 355 471 375 q 561 294 545 335 l 556 292 q 490 343 525 327 q 353 383 454 359 q 156 442 206 417 q 97 509 106 467 "},"B":{"x_min":9.421875,"x_max":838,"ha":898,"o":"m 45 834 q 407 941 206 941 q 645 875 553 941 q 738 705 738 809 q 578 520 738 566 l 578 513 q 617 502 594 508 q 735 574 692 519 q 778 705 778 628 q 699 876 778 801 l 699 880 l 706 874 q 795 698 795 805 q 642 492 795 549 q 745 405 708 461 q 782 278 782 348 q 708 116 782 177 q 513 56 635 56 l 28 56 l 122 135 l 122 429 q 28 421 81 429 l 22 440 q 122 447 83 447 l 122 483 l 105 483 q 9 477 67 483 l 39 541 l 50 541 q 90 541 76 541 q 122 538 110 541 l 122 793 l 45 834 m 258 844 l 258 538 q 268 538 265 538 l 280 538 q 291 538 282 538 l 291 816 q 405 843 350 843 q 506 819 469 843 q 569 741 543 796 l 550 752 q 404 829 499 829 q 310 799 352 829 l 310 538 l 338 538 q 531 581 468 538 q 595 713 595 624 q 542 839 595 791 q 404 887 489 887 q 258 844 329 887 m 258 484 l 258 108 l 291 108 l 291 443 q 360 443 339 443 q 523 422 473 443 q 604 344 574 401 l 596 344 q 512 408 563 390 q 365 426 462 426 l 310 426 l 310 117 l 331 117 l 429 117 q 621 292 621 117 q 558 443 621 402 q 322 484 495 484 q 258 484 305 484 m 765 434 q 838 263 838 378 q 757 73 838 148 q 526 0 678 0 l 65 0 l 53 18 l 481 18 q 682 46 621 18 q 819 268 819 110 q 757 428 819 356 l 765 434 "},"…":{"x_min":67,"x_max":1044,"ha":1110,"o":"m 154 222 q 217 196 191 222 q 243 133 243 170 q 217 71 243 97 q 154 46 191 46 q 92 71 118 46 q 67 133 67 97 q 92 196 67 170 q 154 222 118 222 m 266 193 q 303 106 303 158 q 268 25 303 60 q 189 -9 234 -9 q 100 31 134 -9 l 105 36 q 183 11 148 11 q 256 40 226 11 q 287 110 287 69 q 259 188 287 149 l 266 193 m 525 222 q 587 196 561 222 q 613 133 613 170 q 587 71 613 97 q 525 46 561 46 q 462 71 488 46 q 437 133 437 97 q 462 196 437 170 q 525 222 488 222 m 636 193 q 674 106 674 158 q 639 25 674 60 q 559 -9 604 -9 q 470 31 504 -9 l 475 36 q 554 11 518 11 q 627 40 596 11 q 658 110 658 69 q 630 188 658 149 l 636 193 m 895 222 q 957 196 931 222 q 983 133 983 170 q 957 71 983 97 q 895 46 931 46 q 832 71 858 46 q 807 133 807 97 q 832 196 807 170 q 895 222 858 222 m 1006 193 q 1044 106 1044 158 q 1009 25 1044 60 q 929 -9 974 -9 q 840 31 874 -9 l 845 36 q 924 11 888 11 q 997 40 966 11 q 1028 110 1028 69 q 1000 188 1028 149 l 1006 193 "},"?":{"x_min":23,"x_max":585,"ha":603,"o":"m 72 582 q 23 709 23 642 q 91 849 23 795 q 267 904 159 904 q 452 843 378 904 q 527 692 527 783 q 495 582 527 629 q 389 484 464 535 l 317 436 q 255 375 281 412 q 229 314 229 337 l 229 277 q 223 260 229 267 q 207 254 218 254 q 180 276 192 254 q 168 325 168 297 q 271 524 168 419 q 362 633 339 593 q 386 720 386 673 q 352 814 386 778 q 262 850 318 850 q 181 820 215 850 q 148 749 148 790 q 202 671 148 705 q 196 667 196 667 l 160 646 q 72 582 120 623 m 484 864 q 585 677 585 790 q 535 537 585 602 q 390 415 510 504 l 352 387 q 283 290 283 336 q 301 234 283 266 l 277 241 q 265 290 265 265 q 289 356 265 326 q 378 430 313 385 q 528 559 487 505 q 569 685 569 614 q 544 784 569 738 q 480 857 520 831 l 484 864 m 287 660 l 272 652 q 121 555 172 594 l 115 551 l 104 566 l 111 570 q 252 660 200 633 q 196 752 196 695 q 218 799 196 780 q 274 819 240 819 q 371 745 339 819 l 367 745 q 272 801 325 801 q 214 748 214 801 q 287 660 214 691 m 270 222 q 333 196 307 222 q 359 133 359 170 q 333 71 359 97 q 270 46 307 46 q 208 71 234 46 q 183 133 183 97 q 208 196 183 170 q 270 222 234 222 m 381 193 q 419 106 419 158 q 384 25 419 60 q 304 -9 350 -9 q 216 31 249 -9 l 220 36 q 299 11 263 11 q 372 40 341 11 q 403 110 403 69 q 375 188 403 148 l 381 193 "},"H":{"x_min":4.796875,"x_max":872.578125,"ha":873,"o":"m 44 926 l 363 926 l 271 835 l 271 542 q 307 538 286 538 l 307 828 l 381 902 l 394 890 l 325 820 l 325 537 l 347 535 q 448 531 399 531 q 570 537 519 531 l 570 849 l 487 926 l 800 926 l 707 835 l 707 128 l 789 55 l 477 55 l 570 134 l 570 422 q 452 409 512 409 q 334 415 395 409 l 325 415 l 325 128 l 436 0 l 86 0 l 68 18 l 399 18 l 307 119 l 307 427 l 327 427 q 456 427 416 427 q 570 441 521 427 l 570 464 q 421 456 506 456 q 354 457 375 456 l 286 463 q 271 464 282 464 l 271 128 l 357 55 l 44 55 l 135 134 l 135 432 q 44 386 78 432 l 29 393 q 135 446 69 446 l 135 473 q 14 415 59 473 l 4 422 q 135 537 44 520 l 135 843 l 44 926 m 829 887 l 760 820 l 760 128 l 872 0 l 520 0 l 503 18 l 833 18 l 743 120 l 743 827 l 818 902 l 829 887 "},"î":{"x_min":26.015625,"x_max":436.78125,"ha":425,"o":"m 28 926 l 350 926 l 259 833 l 259 127 l 345 56 l 28 56 l 123 133 l 123 841 l 28 926 m 381 887 l 312 818 l 312 127 l 425 0 l 72 0 l 55 18 l 385 18 l 293 121 l 293 824 l 369 900 l 381 887 m 192 1111 l 111 1016 l 52 1016 l 40 1030 l 105 1030 l 183 1122 l 165 1141 l 97 1063 l 26 1063 l 139 1198 l 227 1198 l 345 1063 l 235 1063 l 192 1111 m 436 1016 l 279 1016 l 266 1030 l 402 1030 l 285 1167 l 310 1162 l 436 1016 "},"c":{"x_min":33,"x_max":790.515625,"ha":809,"o":"m 741 905 l 733 893 q 627 679 672 786 l 621 664 l 612 668 q 540 832 597 772 q 402 893 483 893 q 258 817 316 893 q 186 499 186 723 q 252 197 186 306 q 438 88 319 88 q 590 151 533 88 q 657 333 646 215 q 680 362 660 362 q 707 317 707 362 q 677 181 707 252 q 416 32 614 32 q 136 155 240 32 q 33 490 33 279 q 140 817 33 685 q 408 949 248 949 q 581 911 484 949 q 665 892 632 892 q 730 911 701 892 l 741 905 m 544 788 q 427 838 482 838 q 252 502 252 838 q 292 248 252 349 q 407 116 333 146 l 407 109 q 279 233 327 126 q 232 503 232 340 q 424 855 232 855 q 544 797 489 855 l 544 788 m 760 321 q 676 65 760 153 q 441 -22 592 -22 q 228 47 326 -22 l 228 52 q 438 -4 314 -4 q 659 82 574 -4 q 721 176 701 124 q 741 315 741 228 l 745 330 l 760 321 m 790 873 l 783 860 q 665 630 709 734 l 646 639 l 654 656 q 713 774 688 727 l 768 870 l 774 882 l 790 873 "},"¶":{"x_min":32.140625,"x_max":900.96875,"ha":882,"o":"m 338 -69 l 338 514 l 324 514 q 131 564 200 514 l 131 581 q 306 534 204 534 l 325 534 l 338 534 l 338 569 q 107 629 182 569 q 32 815 32 690 q 64 936 32 883 q 152 1013 97 990 q 338 1037 211 1037 l 848 1037 q 840 1025 843 1029 l 795 965 q 759 902 788 956 q 749 883 755 896 l 742 888 q 710 946 727 931 q 633 978 674 978 q 616 975 628 978 l 616 -69 l 541 -69 l 541 922 l 468 922 l 468 -125 l 361 -125 l 346 -107 l 450 -107 l 450 940 l 541 940 l 541 976 l 416 976 l 416 -69 l 338 -69 m 900 1003 q 808 871 854 960 l 799 854 l 785 867 l 787 871 q 884 1013 837 974 l 887 1016 l 900 1003 m 723 898 q 679 922 704 922 q 669 921 673 922 l 667 920 l 667 -125 l 560 -125 l 545 -107 l 649 -107 l 649 940 q 665 940 660 940 q 723 898 710 940 "},"≠":{"x_min":22,"x_max":673,"ha":695,"o":"m 374 636 l 456 811 l 528 777 l 461 636 l 672 636 l 672 559 l 425 559 l 367 433 l 673 433 l 673 356 l 331 356 l 245 171 l 173 205 l 244 356 l 23 356 l 23 433 l 280 433 l 338 559 l 22 559 l 22 636 l 374 636 "},"•":{"x_min":272,"x_max":657,"ha":926,"o":"m 464 663 q 600 606 544 663 q 657 470 657 550 q 600 334 657 390 q 464 278 544 278 q 328 334 384 278 q 272 470 272 390 q 328 606 272 550 q 464 663 384 663 "},"¥":{"x_min":-59.703125,"x_max":893.515625,"ha":833,"o":"m 863 926 l 706 837 l 527 542 l 569 542 l 738 811 l 883 898 l 893 880 l 747 793 l 590 542 l 624 542 l 654 463 l 479 463 l 452 414 l 452 377 l 490 377 l 490 414 l 502 434 l 697 434 l 667 520 l 689 509 l 723 414 l 513 414 l 509 408 l 509 377 l 624 377 l 654 301 l 452 301 l 452 145 l 550 61 l 220 61 l 316 145 l 316 253 l 181 253 l 175 269 l 316 269 l 316 301 l 147 301 l 120 377 l 316 377 l 316 414 l 175 414 l 169 434 l 308 434 l 288 463 l 147 463 l 115 542 l 238 542 l 139 696 l 119 724 l 76 795 q -59 926 22 880 l 282 926 l 199 837 l 426 498 l 446 531 l 246 837 l 306 902 l 320 892 l 268 837 l 457 550 l 637 837 l 550 926 l 863 926 m 723 253 l 509 253 l 509 145 l 624 0 l 251 0 l 244 18 l 591 18 l 490 145 l 490 269 l 702 269 l 673 354 l 690 342 l 723 253 "},"(":{"x_min":88,"x_max":516,"ha":617,"o":"m 499 1023 l 516 1006 l 516 928 q 485 928 494 928 q 371 876 415 928 q 314 755 329 828 q 299 533 299 682 q 358 50 299 162 q 464 -7 382 5 l 464 -67 q 235 21 336 -67 q 121 202 154 93 q 88 504 88 311 q 114 757 88 660 q 204 926 141 854 q 310 1009 253 982 q 464 1046 368 1035 l 464 985 q 306 909 364 974 q 250 785 266 864 q 235 547 235 706 q 285 128 235 235 q 342 46 306 82 q 294 225 308 109 q 281 558 281 341 q 344 871 281 785 q 483 945 399 945 l 499 945 l 499 1023 m 516 -53 l 516 -129 q 352 -85 427 -119 q 234 -2 277 -52 l 234 1 q 445 -100 316 -82 l 486 -107 q 499 -109 488 -107 l 499 -38 l 516 -53 "},"U":{"x_min":22.78125,"x_max":829.234375,"ha":843,"o":"m 806 925 l 685 828 l 685 390 q 677 216 685 269 q 646 129 669 163 q 419 43 587 43 q 171 129 241 43 q 115 392 115 198 l 115 842 l 22 925 l 342 925 l 251 835 l 251 391 l 251 286 q 293 143 251 185 q 436 101 335 101 q 588 165 546 101 q 622 389 622 217 l 622 828 l 517 925 l 806 925 m 829 879 l 737 802 l 737 381 q 704 111 737 174 q 444 -16 638 -16 q 193 67 277 -16 l 198 64 l 222 51 q 437 2 306 2 q 685 120 624 2 q 718 376 718 183 l 718 810 l 819 893 l 829 879 m 371 888 l 304 821 l 304 317 l 304 270 l 325 184 q 384 122 340 158 l 385 115 q 306 183 328 139 q 285 319 285 227 l 285 828 l 361 902 l 371 888 "},"◊":{"x_min":102.40625,"x_max":823.96875,"ha":926,"o":"m 463 962 l 823 463 l 463 -35 l 102 463 l 463 962 m 463 839 l 189 463 l 463 86 l 736 463 l 463 839 "},"Ñ":{"x_min":-13.984375,"x_max":825.03125,"ha":834,"o":"m 801 926 q 701 852 723 886 q 668 697 668 801 l 668 653 l 668 56 l 553 56 l 232 677 l 232 308 l 232 278 l 240 180 q 301 80 253 112 l 307 75 q 214 275 214 106 l 214 339 l 214 710 l 178 781 l 178 390 q 202 147 178 205 q 316 63 226 89 l 375 0 l 8 0 l -2 18 l 337 18 l 301 56 l -13 56 q 95 136 68 85 q 123 308 123 186 l 123 850 l 32 926 l 375 926 l 279 861 l 608 221 l 608 302 l 326 850 l 421 915 l 434 902 l 350 845 l 608 339 l 608 656 l 608 692 q 588 849 608 810 q 493 926 569 889 l 801 926 m 825 875 l 812 855 q 741 810 760 843 q 723 699 723 777 l 723 0 l 577 0 l 568 18 l 705 18 l 705 692 q 729 825 705 788 q 825 875 754 863 m 587 1195 q 589 1177 589 1182 q 558 1095 589 1129 q 483 1061 527 1061 q 356 1099 435 1061 q 292 1123 311 1123 q 241 1070 247 1123 l 193 1070 q 228 1167 193 1128 q 316 1207 264 1207 q 444 1157 360 1207 q 496 1138 477 1138 q 526 1151 514 1138 q 539 1185 539 1165 q 538 1195 539 1189 l 587 1195 m 625 1176 l 639 1164 q 603 1060 639 1102 q 515 1018 567 1018 q 438 1038 481 1018 l 447 1047 q 512 1033 485 1033 q 624 1168 612 1033 l 625 1176 m 297 1090 l 297 1070 q 277 1019 282 1050 l 223 1019 l 212 1035 l 266 1035 q 297 1090 273 1073 "},"F":{"x_min":-0.28125,"x_max":798.546875,"ha":766,"o":"m 42 926 l 747 926 q 686 838 704 870 q 641 736 669 807 l 635 722 q 547 842 591 815 q 399 869 503 869 l 360 869 l 294 869 l 270 869 l 270 552 l 311 552 l 311 834 l 330 834 q 420 834 372 834 q 593 763 559 834 q 521 805 560 795 q 400 816 482 816 q 328 816 371 816 l 328 552 l 430 552 l 538 666 l 538 382 l 424 495 l 270 495 l 270 153 l 356 65 l 23 65 l 134 153 l 134 445 q 42 405 81 445 l 29 419 q 134 463 68 463 l 134 495 q 113 496 119 496 q 4 445 50 496 l 0 455 q 134 548 30 548 l 134 838 l 42 926 m 798 884 q 676 677 701 771 l 662 686 q 786 896 688 793 l 798 884 m 589 643 l 589 349 l 571 360 l 571 653 l 589 643 m 467 438 l 328 438 l 328 147 l 447 0 l 54 0 l 37 18 l 409 18 l 311 139 l 311 456 l 447 456 l 467 438 "},"­":{"x_min":0,"x_max":713.4375,"ha":713,"o":"m 615 524 l 645 444 l 28 444 l 0 524 l 615 524 m 713 395 l 72 395 l 57 414 l 688 414 l 657 507 l 678 491 l 713 395 "},":":{"x_min":66,"x_max":302,"ha":370,"o":"m 153 722 q 216 696 190 722 q 242 633 242 670 q 216 571 242 597 q 153 546 190 546 q 91 571 117 546 q 66 633 66 597 q 91 696 66 670 q 153 722 117 722 m 265 694 q 302 607 302 658 q 267 526 302 561 q 188 492 233 492 q 99 532 133 492 l 104 537 q 182 512 147 512 q 255 541 225 512 q 286 610 286 570 q 258 688 286 649 l 265 694 m 153 222 q 216 196 190 222 q 242 133 242 170 q 216 71 242 97 q 153 46 190 46 q 91 71 117 46 q 66 133 66 97 q 91 196 66 170 q 153 222 117 222 m 265 193 q 302 106 302 158 q 267 25 302 60 q 188 -9 233 -9 q 99 31 133 -9 l 104 36 q 182 11 147 11 q 255 40 225 11 q 286 110 286 69 q 258 188 286 149 l 265 193 "},"Û":{"x_min":22.78125,"x_max":829.234375,"ha":843,"o":"m 806 925 l 685 828 l 685 390 q 677 216 685 269 q 646 129 669 163 q 419 43 587 43 q 171 129 241 43 q 115 392 115 198 l 115 842 l 22 925 l 342 925 l 251 835 l 251 391 l 251 286 q 293 143 251 185 q 436 101 335 101 q 588 165 546 101 q 622 389 622 217 l 622 828 l 517 925 l 806 925 m 829 879 l 737 802 l 737 381 q 704 111 737 174 q 444 -16 638 -16 q 193 67 277 -16 l 198 64 l 222 51 q 437 2 306 2 q 685 120 624 2 q 718 376 718 183 l 718 810 l 819 893 l 829 879 m 371 888 l 304 821 l 304 317 l 304 270 l 325 184 q 384 122 340 158 l 385 115 q 306 183 328 139 q 285 319 285 227 l 285 828 l 361 902 l 371 888 m 438 1110 l 357 1016 l 297 1016 l 285 1030 l 350 1030 l 429 1121 l 412 1141 l 343 1063 l 271 1063 l 386 1198 l 473 1198 l 590 1063 l 481 1063 l 438 1110 m 682 1016 l 525 1016 l 513 1030 l 648 1030 l 530 1166 l 556 1161 l 682 1016 "},"*":{"x_min":27.703125,"x_max":463.390625,"ha":486,"o":"m 245 700 q 205 561 205 654 l 205 551 l 190 569 q 237 713 190 660 q 224 732 231 722 q 164 577 164 650 l 64 650 q 172 726 117 664 q 122 726 140 726 q 73 723 104 726 l 52 738 q 90 742 77 742 q 175 729 126 742 q 193 752 185 741 q 90 771 139 771 q 27 762 58 771 l 65 879 q 203 787 102 821 q 161 949 203 884 l 284 949 q 240 789 240 894 q 275 802 256 795 q 318 916 288 873 l 323 890 q 280 805 299 854 q 380 879 346 837 l 418 762 q 356 774 388 774 q 252 755 310 774 q 382 650 310 677 l 282 577 q 283 590 283 585 q 245 700 283 636 m 330 722 q 450 652 384 671 l 332 558 l 310 560 l 422 647 q 291 732 358 666 q 382 750 335 750 q 444 742 415 750 l 411 853 l 430 842 l 463 721 q 395 732 430 732 q 330 722 361 732 "},"†":{"x_min":46.109375,"x_max":770,"ha":817,"o":"m 219 1037 l 542 1037 l 451 944 l 451 710 l 492 710 l 492 936 l 568 1011 l 580 998 l 511 929 l 511 710 l 611 710 l 720 823 l 720 541 l 606 653 l 451 653 l 451 32 l 537 -58 l 205 -58 l 315 32 l 315 596 l 182 596 l 88 501 l 72 515 l 177 614 l 315 614 l 315 653 l 159 653 l 46 541 l 46 823 l 155 710 l 315 710 l 315 949 l 219 1037 m 770 800 l 770 507 l 752 517 l 752 810 l 770 800 m 647 596 l 509 596 l 509 27 l 628 -120 l 245 -120 l 228 -102 l 590 -102 l 492 20 l 492 614 l 628 614 l 647 596 "},"∕":{"x_min":-209.546875,"x_max":436.0625,"ha":172,"o":"m 391 941 l -145 51 l -209 51 l 327 941 l 391 941 m -197 11 l -125 11 l 423 921 l 436 907 l -115 -7 l -189 -7 l -197 11 "},"°":{"x_min":36,"x_max":373,"ha":422,"o":"m 293 912 q 351 856 329 893 q 373 775 373 819 q 325 659 373 708 q 212 611 277 611 q 93 659 141 611 l 98 663 q 201 625 149 625 q 309 670 264 625 q 355 779 355 716 q 285 906 355 855 l 293 912 m 175 939 q 273 898 232 939 q 314 800 314 857 q 273 701 314 742 q 175 661 232 661 q 76 701 117 661 q 36 800 36 742 q 76 898 36 857 q 175 939 117 939 m 175 881 q 118 856 142 881 q 94 799 94 832 q 118 742 94 766 q 175 718 142 718 q 233 741 209 718 q 257 799 257 765 q 233 857 257 833 q 175 881 209 881 "},"V":{"x_min":-33,"x_max":975.4375,"ha":861,"o":"m 932 1140 l 940 1132 q 795 949 851 1047 q 660 644 738 852 l 462 126 l 542 56 l 230 56 l 319 129 l 71 836 l -33 926 l 303 926 l 207 830 l 431 193 l 457 256 l 257 820 l 327 889 l 339 876 l 278 816 l 466 280 l 610 664 q 675 903 675 835 q 624 1022 675 972 l 637 1025 q 932 1140 834 1063 m 969 1099 l 975 1083 q 708 622 845 982 l 516 123 l 622 0 l 272 0 l 257 18 l 582 18 l 497 119 l 691 626 l 728 723 q 843 951 777 848 q 969 1099 910 1054 "},"å":{"x_min":0.265625,"x_max":1056.1875,"ha":1051,"o":"m 656 926 l 586 845 l 696 550 l 723 565 l 623 832 l 695 915 l 713 907 l 644 828 l 739 575 q 748 582 747 581 l 771 601 q 797 624 791 617 q 851 487 814 547 q 822 487 831 487 q 728 467 758 487 l 851 134 l 953 55 l 611 55 l 704 134 l 629 332 q 514 189 554 257 l 499 193 q 618 342 539 260 l 623 349 l 611 378 q 477 222 530 311 l 465 242 q 374 370 430 298 l 368 378 q 316 190 316 262 q 330 118 316 147 q 400 18 345 88 q 415 0 405 12 l 49 0 l 35 18 l 381 18 l 369 32 q 310 117 324 87 q 297 188 297 147 q 353 394 297 257 l 323 425 q 300 361 314 403 l 278 292 q 260 200 260 237 q 272 137 260 162 q 327 68 285 112 q 339 56 331 64 l 0 56 q 153 190 97 106 q 266 452 210 275 l 268 462 q 165 499 232 492 q 222 615 202 554 q 234 604 232 606 l 264 575 q 302 545 280 560 l 314 575 l 306 582 q 249 630 272 611 l 243 634 l 253 649 q 323 594 290 626 l 415 848 l 343 926 l 656 926 m 489 708 l 414 511 q 421 503 420 504 l 449 472 q 506 396 471 447 l 512 386 q 582 458 542 422 l 489 708 m 458 786 l 350 501 q 439 397 402 449 l 470 354 q 477 345 471 353 q 484 353 483 351 l 493 364 q 501 373 495 367 q 390 505 454 446 l 477 734 l 458 786 m 856 592 q 931 424 871 531 q 914 427 916 427 l 859 431 q 805 434 822 434 q 791 434 802 434 l 904 134 l 1056 0 l 663 0 l 650 18 l 1010 18 l 888 126 l 767 445 q 820 452 791 452 q 902 445 857 452 l 894 460 q 835 605 850 540 l 856 592 m 590 1213 q 652 1112 652 1181 q 618 1028 652 1063 q 538 993 585 993 q 447 1032 483 993 l 452 1037 q 531 1005 491 1005 q 606 1036 575 1005 q 638 1112 638 1068 q 583 1207 638 1169 l 590 1213 m 497 1234 q 566 1205 537 1234 q 595 1137 595 1177 q 566 1068 595 1096 q 497 1040 537 1040 q 428 1068 457 1040 q 400 1137 400 1096 q 428 1205 400 1177 q 497 1234 457 1234 m 498 1180 q 466 1167 479 1180 q 454 1136 454 1154 q 466 1105 454 1118 q 498 1093 479 1093 q 529 1105 516 1093 q 542 1136 542 1118 q 529 1167 542 1154 q 498 1180 516 1180 "}," ":{"x_min":0,"x_max":0,"ha":347},"0":{"x_min":36,"x_max":779,"ha":816,"o":"m 523 758 q 389 826 471 826 q 268 742 306 826 q 231 475 231 659 q 264 227 231 314 q 370 115 297 141 l 370 109 q 275 170 319 117 q 213 486 213 246 q 255 760 213 676 q 392 845 297 845 q 533 764 481 845 l 523 758 m 375 939 q 599 840 504 939 q 722 473 722 716 q 631 157 722 273 q 386 41 541 41 q 132 166 228 41 q 36 498 36 291 q 128 818 36 698 q 375 939 221 939 m 373 876 q 218 783 266 876 q 170 486 170 690 q 389 97 170 97 q 586 484 586 97 q 537 786 586 696 q 373 876 488 876 m 561 911 q 721 752 664 866 q 779 480 779 639 q 654 88 779 214 q 403 -14 554 -14 q 283 6 334 -14 q 172 79 232 27 l 178 84 q 395 3 277 3 q 662 127 566 3 q 759 472 759 251 q 710 740 759 634 q 561 905 662 846 l 561 911 "},"”":{"x_min":23.375,"x_max":552,"ha":571,"o":"m 473 931 q 494 838 494 884 q 293 604 494 668 l 288 614 l 294 620 q 364 760 364 678 q 327 860 364 818 q 340 865 336 864 q 473 931 417 894 m 541 911 q 552 835 552 871 q 327 558 552 643 l 318 576 l 329 580 q 488 692 443 625 q 533 831 533 759 q 521 920 533 866 l 541 911 m 209 931 q 230 838 230 884 q 28 604 230 669 l 23 614 l 30 620 q 100 760 100 679 q 64 860 100 818 q 76 865 72 864 q 209 931 153 893 m 276 911 q 288 835 288 869 q 63 558 288 643 l 54 576 l 66 580 q 225 692 181 626 q 269 831 269 760 q 257 920 269 866 l 276 911 "},"¾":{"x_min":39,"x_max":1173,"ha":1191,"o":"m 130 595 q 124 552 124 574 q 229 448 124 448 q 340 563 340 448 q 307 657 340 620 q 225 694 274 694 q 187 689 215 694 l 183 689 l 202 730 q 224 730 215 730 q 295 754 267 730 q 323 816 323 778 q 292 881 323 855 q 218 908 262 908 q 152 886 178 908 q 126 833 126 865 q 166 788 126 788 q 187 796 175 788 l 194 793 q 134 759 168 759 q 80 780 102 759 q 58 831 58 801 q 108 906 58 876 q 233 937 158 937 q 353 903 306 937 q 400 819 400 870 q 373 753 400 783 q 308 716 346 723 q 299 711 299 714 q 307 704 299 707 q 427 563 427 670 q 374 455 427 493 q 226 417 321 417 q 39 550 67 417 l 43 552 q 130 595 95 568 m 176 579 q 174 567 175 571 q 171 539 171 545 q 215 460 171 490 l 217 455 q 155 539 155 469 q 160 583 155 555 l 176 579 m 317 625 q 240 651 282 651 q 201 645 227 651 l 194 660 q 236 666 218 666 q 317 625 294 666 m 414 653 q 474 533 474 598 q 414 407 474 455 q 258 360 355 360 q 165 375 209 360 q 101 414 120 391 l 98 419 l 102 417 l 136 397 q 252 372 176 372 q 400 418 342 372 q 458 535 458 464 q 433 620 458 586 l 414 645 q 411 649 413 646 l 414 653 m 381 903 l 386 902 q 430 861 411 892 q 449 799 449 831 q 364 687 449 721 l 349 695 q 433 800 433 722 q 385 899 433 851 q 381 903 383 901 m 312 825 q 308 830 309 829 q 227 877 275 877 q 168 825 168 877 q 180 802 168 812 l 176 798 q 152 831 152 807 q 172 874 152 857 q 225 892 193 892 q 315 830 295 892 l 312 825 m 227 769 q 152 728 200 728 q 80 761 118 728 l 79 765 l 83 762 l 97 752 q 146 738 115 738 q 213 777 190 738 l 227 769 m 900 940 l 363 51 l 299 51 l 836 940 l 900 940 m 311 11 l 383 11 l 933 920 l 945 906 l 393 -7 l 319 -7 l 311 11 m 954 556 l 954 552 q 889 399 940 485 q 766 233 839 313 l 766 223 l 792 223 q 907 367 867 302 q 983 538 947 432 l 997 531 l 997 526 q 939 395 985 479 q 860 277 894 312 l 813 227 l 809 223 l 946 223 l 946 374 q 1015 436 993 402 l 1023 436 l 1023 223 l 1057 223 l 1057 421 l 1073 413 l 1073 223 q 1128 177 1128 223 q 1100 148 1128 148 q 1074 167 1074 148 q 1076 178 1074 175 l 1079 181 q 1080 184 1080 183 q 1059 195 1080 195 l 1052 195 l 1023 195 l 1023 100 l 1075 55 l 894 55 l 946 97 l 946 134 l 745 134 l 736 149 l 946 149 l 946 195 l 704 195 l 704 208 q 811 384 771 289 q 852 556 852 478 l 954 556 m 1135 207 q 1173 161 1173 194 q 1162 131 1173 144 q 1137 119 1151 119 q 1100 130 1122 119 l 1099 136 q 1125 129 1115 129 q 1159 163 1159 129 q 1135 207 1159 184 m 1147 0 l 931 0 l 917 14 l 1120 14 l 1057 84 l 1057 146 l 1073 138 l 1073 85 l 1147 0 "},"@":{"x_min":33,"x_max":963,"ha":1001,"o":"m 573 266 q 433 201 503 201 q 327 252 371 201 l 327 255 q 434 217 368 217 q 558 275 497 217 l 568 286 q 680 219 612 219 q 863 324 785 219 q 942 570 942 429 q 885 770 942 685 q 721 901 828 856 l 723 910 q 899 780 835 870 q 963 570 963 690 q 879 310 963 422 q 686 199 796 199 q 573 266 616 199 m 257 75 l 257 79 q 500 3 345 3 q 680 32 604 3 q 820 126 757 61 l 833 115 q 698 20 787 54 q 499 -14 610 -14 q 365 5 419 -14 q 257 75 310 25 m 548 677 q 520 690 533 690 q 436 621 468 690 q 405 441 405 552 q 446 305 405 330 l 445 301 q 388 450 388 317 q 424 633 388 563 q 520 704 461 704 q 552 681 539 704 l 548 677 m 721 729 l 736 711 l 700 419 q 697 387 697 398 q 721 323 697 347 q 806 419 774 350 q 838 579 838 489 q 740 802 838 710 q 503 895 642 895 q 228 770 343 895 q 114 470 114 645 q 220 197 114 307 q 484 88 326 88 q 740 173 622 88 q 774 188 759 187 q 789 175 789 190 q 742 122 789 153 q 473 44 624 44 q 161 171 289 44 q 33 481 33 298 q 215 844 33 705 q 490 940 341 940 q 781 836 665 940 q 898 578 898 732 q 827 356 898 451 q 663 261 757 261 q 572 354 572 261 q 421 257 510 257 q 298 314 344 257 q 252 468 252 372 q 325 679 252 591 q 503 768 399 768 q 597 747 545 768 q 640 736 624 736 q 678 747 662 736 l 687 741 l 651 465 l 645 405 q 643 374 643 384 q 656 332 643 348 q 688 316 668 316 q 710 319 695 316 q 679 384 679 341 q 682 421 679 394 l 721 729 m 565 482 l 576 583 q 577 597 577 587 q 554 695 577 658 q 492 733 530 733 q 391 654 430 733 q 353 451 353 576 q 375 335 353 377 q 439 293 398 293 q 520 342 487 293 q 565 482 554 392 m 684 816 l 670 820 q 527 841 592 841 q 272 729 374 841 q 171 451 171 618 q 219 263 171 345 q 353 141 267 180 l 347 133 q 152 451 152 226 q 259 742 152 626 q 528 859 367 859 q 684 816 636 859 "},"ö":{"x_min":33,"x_max":834.3125,"ha":867,"o":"m 553 774 l 542 781 q 423 817 477 817 q 245 466 245 817 q 354 126 245 210 l 348 120 q 252 246 281 168 q 224 458 224 324 q 421 835 224 835 q 553 774 511 835 m 408 935 q 672 810 573 935 q 771 476 771 685 q 673 161 771 278 q 412 44 576 44 q 181 126 282 44 q 33 488 33 248 q 134 814 33 693 q 408 935 236 935 m 408 877 q 179 473 179 877 q 404 101 179 101 q 565 199 510 101 q 620 488 620 298 q 567 788 620 703 q 408 877 511 877 m 625 900 q 778 740 721 853 q 834 478 834 627 q 723 125 834 259 q 432 -9 612 -9 q 217 69 317 -9 l 217 72 q 427 11 300 11 q 706 139 597 11 q 816 466 816 267 q 766 726 816 615 q 625 893 716 837 l 625 900 m 523 1197 q 569 1178 550 1197 q 588 1132 588 1159 q 569 1085 588 1104 q 523 1067 550 1067 q 476 1085 495 1067 q 458 1132 458 1104 q 476 1178 458 1159 q 523 1197 495 1197 m 607 1167 q 645 1100 645 1150 q 621 1039 645 1064 q 561 1015 597 1015 q 498 1047 521 1015 l 498 1051 q 552 1029 529 1029 q 609 1052 585 1029 q 633 1108 633 1075 q 607 1167 633 1134 m 373 1167 q 411 1100 411 1150 q 387 1039 411 1064 q 327 1015 363 1015 q 264 1047 287 1015 l 264 1051 q 318 1029 295 1029 q 375 1052 351 1029 q 399 1108 399 1075 q 373 1167 399 1134 m 287 1197 q 333 1178 314 1197 q 352 1132 352 1159 q 333 1085 352 1104 q 287 1067 314 1067 q 240 1085 259 1067 q 222 1132 222 1104 q 240 1177 222 1158 q 287 1197 259 1197 "},"i":{"x_min":27.734375,"x_max":424.9375,"ha":425,"o":"m 27 926 l 349 926 l 258 833 l 258 127 l 344 56 l 27 56 l 122 133 l 122 841 l 27 926 m 380 887 l 311 818 l 311 127 l 424 0 l 71 0 l 54 18 l 384 18 l 292 121 l 292 824 l 368 900 l 380 887 "},"≤":{"x_min":58,"x_max":638,"ha":695,"o":"m 638 869 l 638 800 l 243 546 l 638 281 l 638 98 l 58 490 l 58 500 l 638 869 m 58 62 l 638 62 l 638 0 l 58 0 l 58 62 "},"Õ":{"x_min":33,"x_max":834.3125,"ha":867,"o":"m 553 774 l 542 781 q 423 817 477 817 q 245 466 245 817 q 354 126 245 210 l 348 120 q 252 246 281 168 q 224 458 224 324 q 421 835 224 835 q 553 774 511 835 m 408 935 q 672 810 573 935 q 771 476 771 685 q 673 161 771 278 q 412 44 576 44 q 181 126 282 44 q 33 488 33 248 q 134 814 33 693 q 408 935 236 935 m 408 877 q 179 473 179 877 q 404 101 179 101 q 565 199 510 101 q 620 488 620 298 q 567 788 620 703 q 408 877 511 877 m 625 900 q 778 740 721 853 q 834 478 834 627 q 723 125 834 259 q 432 -9 612 -9 q 217 69 317 -9 l 217 72 q 427 11 300 11 q 706 139 597 11 q 816 466 816 267 q 766 726 816 615 q 625 893 716 837 l 625 900 m 604 1195 q 606 1177 606 1182 q 575 1094 606 1128 q 500 1060 544 1060 q 373 1099 452 1060 q 308 1123 328 1123 q 257 1070 265 1123 l 210 1070 q 245 1167 210 1128 q 332 1207 280 1207 q 461 1156 377 1207 q 513 1137 494 1137 q 543 1151 531 1137 q 556 1184 556 1165 q 555 1195 556 1188 l 604 1195 m 642 1175 l 656 1163 q 620 1060 656 1102 q 532 1018 584 1018 q 455 1038 498 1018 l 463 1047 q 529 1033 502 1033 q 641 1167 629 1033 l 642 1175 m 314 1090 l 314 1070 q 294 1019 299 1049 l 240 1019 l 230 1035 l 283 1035 q 314 1090 290 1073 "},"þ":{"x_min":5.234375,"x_max":790,"ha":804,"o":"m 378 926 l 287 833 l 287 741 l 323 741 l 323 825 l 399 901 l 410 887 l 342 819 l 342 741 l 371 741 q 632 687 554 741 q 732 500 732 620 q 694 374 732 427 q 588 296 656 320 q 371 273 519 273 l 287 273 l 287 130 l 367 55 l 54 55 l 149 134 l 149 222 q 137 222 140 222 q 43 201 88 222 l 37 213 q 119 239 83 239 l 143 239 l 149 240 l 149 273 q 127 275 133 275 q 12 240 54 275 l 5 250 q 138 326 47 326 l 149 326 l 149 841 l 54 926 l 378 926 m 287 672 l 287 330 l 296 330 l 314 330 q 323 331 316 330 l 323 634 l 397 634 q 506 618 474 634 q 561 555 538 603 q 505 604 539 590 q 411 618 471 618 l 342 618 l 342 331 q 524 370 466 331 q 582 493 582 409 q 530 629 582 587 q 364 672 479 672 q 287 672 333 672 m 698 668 q 764 596 739 647 q 790 480 790 545 q 682 268 790 333 q 400 220 598 220 q 342 220 365 220 l 342 126 l 448 0 l 108 0 l 90 18 l 409 18 l 323 118 l 323 237 q 442 237 378 237 q 693 297 612 237 q 774 487 774 358 q 757 578 774 540 q 698 668 741 617 "},"]":{"x_min":101.265625,"x_max":468,"ha":607,"o":"m 101 971 l 101 1037 l 413 1037 l 413 -65 l 101 -65 l 101 1 l 262 1 l 262 915 l 135 915 l 123 934 l 262 934 l 262 971 l 101 971 m 452 1000 l 468 983 l 468 -120 l 136 -120 l 124 -101 l 452 -101 l 452 1000 "},"m":{"x_min":-23.09375,"x_max":1021,"ha":1016,"o":"m 941 926 l 848 831 l 848 134 l 932 56 l 619 56 l 714 134 l 714 591 l 499 0 l 434 0 l 428 18 l 487 18 l 714 649 l 714 752 l 462 56 l 414 56 l 229 603 l 229 244 q 238 142 229 172 q 283 77 247 113 l 344 0 l -10 0 l -23 18 l 310 18 l 285 56 l -17 56 l -3 62 q 95 146 71 104 q 120 280 120 189 l 120 841 l 30 926 l 381 926 l 283 837 l 474 269 l 499 328 l 325 831 l 414 897 l 428 885 l 344 826 l 505 353 l 680 837 l 597 926 l 941 926 m 174 765 l 174 277 q 195 123 174 165 q 283 62 216 81 l 277 72 q 211 205 211 119 l 211 256 l 211 657 l 174 765 m 979 873 l 903 818 l 903 134 l 1021 0 l 660 0 l 651 18 l 979 18 l 885 124 l 885 829 l 965 884 l 979 873 "},"8":{"x_min":48,"x_max":789,"ha":833,"o":"m 271 537 q 105 722 105 609 q 148 844 105 794 q 310 955 192 893 q 425 1024 388 996 l 446 1039 q 461 1058 461 1049 q 455 1065 461 1063 l 445 1070 q 430 1100 430 1077 q 467 1140 430 1140 q 500 1121 485 1140 q 515 1078 515 1102 q 393 948 515 1019 l 310 901 q 214 770 214 845 q 240 702 214 730 q 336 640 266 673 q 442 599 393 612 q 599 757 599 646 q 563 835 599 803 q 476 868 527 868 q 384 811 409 868 q 365 792 376 792 q 344 825 344 792 q 379 892 344 865 q 466 919 414 919 q 601 871 546 919 q 657 755 657 823 q 621 655 657 699 q 502 566 586 612 q 511 562 510 563 l 543 549 q 551 545 545 548 q 695 737 695 616 q 684 793 695 770 q 637 865 673 816 q 631 872 635 867 q 711 729 711 823 q 671 619 711 673 q 567 537 631 566 q 693 425 648 494 q 738 276 738 356 q 647 93 738 163 q 413 23 556 23 q 150 97 252 23 q 48 287 48 171 q 97 424 48 366 q 258 532 147 482 l 271 537 m 404 477 q 226 282 226 409 q 317 108 226 184 l 317 102 q 238 180 267 131 q 209 285 209 229 q 384 485 209 425 l 317 506 q 163 291 163 430 q 234 130 163 190 q 426 70 306 70 q 575 116 520 70 q 630 244 630 163 q 578 374 630 319 q 417 473 527 429 l 404 477 m 521 1130 q 557 1062 557 1098 q 461 934 557 994 l 454 930 l 427 930 q 539 1060 539 996 q 515 1124 539 1089 l 521 1130 m 680 475 q 758 394 728 451 q 789 270 789 336 q 687 53 789 136 q 420 -29 586 -29 q 165 54 259 -29 l 165 57 l 175 51 q 283 2 228 17 q 418 -11 338 -11 q 674 66 578 -11 q 771 275 771 144 q 718 427 771 362 l 686 466 q 680 475 686 467 m 579 775 q 495 816 541 816 q 413 775 441 816 l 403 775 q 495 834 432 834 q 585 775 556 834 l 579 775 m 335 851 q 269 755 269 805 q 301 683 269 710 l 297 678 q 252 764 252 716 q 335 872 252 817 l 335 851 "},"R":{"x_min":23.53125,"x_max":915.09375,"ha":883,"o":"m 60 844 q 405 938 220 938 q 642 875 549 938 q 736 716 736 813 q 674 577 736 638 q 508 489 613 516 q 635 238 554 360 q 796 51 715 116 l 786 47 q 587 -50 685 12 l 577 -56 l 574 -35 q 453 410 531 227 l 450 417 q 325 382 403 395 l 320 381 l 320 127 l 439 0 l 88 0 l 77 18 l 400 18 l 302 123 l 302 396 l 316 398 q 445 429 393 406 q 441 439 441 437 l 434 459 q 430 467 433 461 q 272 440 389 454 l 265 439 l 265 136 l 342 56 l 42 56 l 131 136 l 131 364 l 125 364 q 54 344 85 355 l 48 342 l 42 355 q 89 371 72 367 l 125 380 l 131 381 l 131 417 q 30 399 90 417 l 23 396 q 37 440 24 406 q 46 471 38 443 q 48 476 47 472 q 96 476 79 476 q 130 477 114 476 l 130 810 q 65 842 98 829 l 60 844 m 265 862 l 265 497 q 302 500 284 497 l 302 833 q 391 844 339 844 q 571 756 523 844 q 483 812 520 797 q 392 828 445 828 q 320 819 351 828 l 320 500 l 327 501 q 525 578 460 526 q 590 715 590 631 q 531 839 590 790 q 384 889 473 889 q 265 862 313 889 m 592 455 q 743 182 634 315 q 915 31 811 98 q 623 -94 759 -9 l 617 -98 l 603 -87 q 879 37 733 -2 q 572 454 684 168 l 568 465 q 776 705 776 544 q 722 850 776 771 q 791 692 791 788 q 592 455 791 536 "},"á":{"x_min":0.265625,"x_max":1056.5625,"ha":1052,"o":"m 656 926 l 585 845 l 697 550 l 724 565 l 623 832 l 695 915 l 713 907 l 644 828 l 739 575 q 749 582 748 581 l 771 601 q 797 624 792 617 q 851 487 815 547 q 823 487 832 487 q 729 467 758 487 l 851 134 l 953 55 l 611 55 l 704 134 l 629 332 q 514 189 554 257 l 499 193 q 618 342 539 260 l 623 349 l 611 378 q 477 222 530 311 l 465 242 q 375 370 429 298 l 368 378 q 316 190 316 262 q 330 118 316 147 q 400 18 345 88 q 415 0 405 12 l 49 0 l 35 18 l 381 18 l 369 32 q 310 117 324 87 q 297 188 297 147 q 353 394 297 257 l 323 425 q 300 361 314 403 l 278 292 q 260 200 260 237 q 272 137 260 162 q 327 68 285 112 q 339 56 331 64 l 0 56 q 153 190 97 106 q 266 452 210 275 l 268 462 q 165 499 232 492 q 222 615 202 554 q 234 604 232 606 l 264 575 q 302 545 280 560 l 314 575 l 306 582 q 249 630 272 611 l 243 634 l 253 649 q 323 594 290 626 l 415 848 l 343 926 l 656 926 m 488 708 l 414 511 q 421 503 420 504 l 448 472 q 505 396 471 447 l 512 386 q 581 458 541 422 l 488 708 m 458 786 l 350 501 q 439 397 402 449 l 470 354 q 477 345 471 353 q 484 353 483 351 l 493 364 q 501 373 495 367 q 390 505 453 446 l 477 734 l 458 786 m 857 592 q 931 424 872 531 q 914 427 916 427 l 859 431 q 805 434 822 434 q 792 434 802 434 l 905 134 l 1056 0 l 663 0 l 651 18 l 1011 18 l 889 126 l 768 445 q 821 452 791 452 q 902 445 857 452 l 894 460 q 836 605 851 540 l 857 592 m 718 1196 l 552 1062 l 480 1062 l 579 1196 l 718 1196 m 509 1005 l 494 1024 l 577 1024 l 744 1159 l 757 1142 l 587 1005 l 509 1005 "},"×":{"x_min":132.921875,"x_max":681.5625,"ha":815,"o":"m 132 665 l 193 724 l 376 541 l 390 555 l 250 696 l 271 701 l 404 569 l 555 720 l 615 660 l 436 481 l 609 308 l 550 247 l 415 382 l 243 209 l 221 214 l 402 395 l 376 421 l 198 243 l 138 303 l 316 481 l 132 665 m 503 469 l 674 298 l 613 237 l 590 237 l 650 296 l 476 469 l 657 650 l 597 710 l 619 710 l 681 648 l 503 469 "},"o":{"x_min":33,"x_max":834.3125,"ha":867,"o":"m 553 774 l 542 781 q 423 817 477 817 q 245 466 245 817 q 355 126 245 210 l 349 120 q 252 246 281 168 q 224 458 224 324 q 421 835 224 835 q 553 774 511 835 m 408 935 q 672 810 573 935 q 771 476 771 685 q 673 161 771 278 q 412 44 576 44 q 181 126 282 44 q 33 488 33 248 q 134 814 33 693 q 408 935 236 935 m 408 877 q 179 473 179 877 q 404 101 179 101 q 565 199 510 101 q 620 488 620 298 q 567 788 620 703 q 408 877 511 877 m 625 900 q 778 740 721 853 q 834 478 834 627 q 723 125 834 259 q 432 -9 612 -9 q 217 69 317 -9 l 217 72 q 427 11 301 11 q 706 139 597 11 q 816 466 816 267 q 766 726 816 615 q 625 893 716 837 l 625 900 "},"5":{"x_min":47.234375,"x_max":769,"ha":834,"o":"m 132 913 l 486 913 l 509 913 q 602 922 577 913 q 627 961 627 932 q 622 970 628 969 q 614 964 620 970 q 595 957 606 957 q 564 987 564 957 q 597 1019 564 1019 q 643 993 622 1019 q 665 936 665 967 q 607 838 665 869 q 425 808 549 808 l 193 808 l 193 578 l 204 587 q 231 606 218 599 l 231 772 l 428 772 l 486 772 l 574 782 q 661 833 627 794 q 696 921 696 872 q 677 993 696 954 l 681 993 l 686 984 q 710 909 710 943 q 646 797 710 840 q 484 754 583 754 l 429 754 l 249 754 l 249 615 q 387 649 312 649 q 623 562 534 649 q 713 335 713 476 q 619 108 713 192 q 365 25 526 25 q 149 84 234 25 q 47 247 64 143 l 56 252 q 205 341 155 301 q 199 269 199 303 q 244 128 199 178 q 373 79 290 79 q 516 151 464 79 q 569 348 569 223 q 518 528 569 465 q 373 591 467 591 q 175 473 250 591 l 132 499 l 132 913 m 640 581 q 734 473 700 542 q 769 322 769 404 q 665 66 769 164 q 396 -31 562 -31 q 193 26 287 -31 l 193 32 q 393 -11 294 -11 q 652 79 556 -11 q 748 324 748 170 q 640 576 748 474 l 640 581 m 266 320 q 260 254 260 281 q 290 161 260 201 q 375 103 321 121 l 375 95 q 278 150 315 104 q 241 263 241 197 q 249 324 241 291 l 266 320 m 536 447 l 529 457 q 379 537 468 537 q 295 517 330 537 q 218 447 260 497 l 203 455 q 380 553 267 553 q 542 447 492 553 l 536 447 "},"õ":{"x_min":33,"x_max":834.3125,"ha":867,"o":"m 553 774 l 542 781 q 423 817 477 817 q 245 466 245 817 q 354 126 245 210 l 348 120 q 252 246 281 168 q 224 458 224 324 q 421 835 224 835 q 553 774 511 835 m 408 935 q 672 810 573 935 q 771 476 771 685 q 673 161 771 278 q 412 44 576 44 q 181 126 282 44 q 33 488 33 248 q 134 814 33 693 q 408 935 236 935 m 408 877 q 179 473 179 877 q 404 101 179 101 q 565 199 510 101 q 620 488 620 298 q 567 788 620 703 q 408 877 511 877 m 625 900 q 778 740 721 853 q 834 478 834 627 q 723 125 834 259 q 432 -9 612 -9 q 217 69 317 -9 l 217 72 q 427 11 300 11 q 706 139 597 11 q 816 466 816 267 q 766 726 816 615 q 625 893 716 837 l 625 900 m 604 1195 q 606 1177 606 1182 q 575 1094 606 1128 q 500 1060 544 1060 q 373 1099 452 1060 q 308 1123 328 1123 q 257 1070 265 1123 l 210 1070 q 245 1167 210 1128 q 332 1207 280 1207 q 461 1156 377 1207 q 513 1137 494 1137 q 543 1151 531 1137 q 556 1184 556 1165 q 555 1195 556 1188 l 604 1195 m 642 1175 l 656 1163 q 620 1060 656 1102 q 532 1018 584 1018 q 455 1038 498 1018 l 463 1047 q 529 1033 502 1033 q 641 1167 629 1033 l 642 1175 m 314 1090 l 314 1070 q 294 1019 299 1049 l 240 1019 l 230 1035 l 283 1035 q 314 1090 290 1073 "},"7":{"x_min":81.625,"x_max":778.46875,"ha":833,"o":"m 725 913 q 632 640 711 789 l 568 519 q 473 104 473 338 l 473 55 l 292 55 q 317 213 292 114 q 491 549 354 362 l 575 664 q 627 755 601 700 l 255 755 l 255 740 l 255 727 q 160 592 255 592 q 99 613 127 592 l 130 613 q 158 608 146 608 q 237 721 237 608 l 237 748 l 237 772 l 634 772 l 638 780 q 646 809 645 797 l 199 809 l 199 779 q 130 638 199 638 q 95 648 110 638 q 81 672 81 658 q 111 705 81 705 q 133 696 122 705 q 144 690 139 690 q 163 742 163 690 l 163 779 l 163 913 l 725 913 m 778 886 q 687 613 765 755 l 620 492 q 535 123 535 337 q 541 9 535 75 l 542 0 l 328 0 l 318 18 l 519 18 q 515 109 515 62 q 606 504 515 339 l 669 617 q 761 877 742 747 l 762 886 l 778 886 "},"K":{"x_min":28.09375,"x_max":981.484375,"ha":940,"o":"m 33 926 l 350 926 l 257 836 l 257 426 l 294 469 l 294 831 l 369 905 l 380 890 l 310 822 l 310 490 l 520 741 q 566 839 566 795 q 540 888 566 865 q 478 919 514 911 l 478 926 l 835 926 l 835 919 q 582 728 717 890 l 488 616 l 738 129 l 851 55 l 500 55 l 589 122 l 420 458 l 310 323 l 310 129 l 420 0 l 72 0 l 54 18 l 380 18 l 294 122 l 294 332 l 412 477 l 397 507 l 257 340 l 257 129 l 338 56 l 28 56 l 121 135 l 121 845 l 33 926 m 868 861 q 669 748 768 861 l 550 615 l 789 129 l 981 0 l 550 0 l 531 18 l 923 18 l 779 117 l 531 615 l 657 757 q 861 878 756 868 l 868 861 "},",":{"x_min":23.375,"x_max":288,"ha":364,"o":"m 209 206 q 230 113 230 158 q 28 -120 230 -55 l 23 -111 l 30 -105 q 100 34 100 -47 q 64 135 100 92 q 76 140 72 138 q 209 206 151 167 m 276 185 q 288 110 288 143 q 63 -167 288 -81 l 54 -148 l 66 -144 q 224 -32 180 -99 q 269 105 269 35 q 257 194 269 140 l 276 185 "},"d":{"x_min":28.09375,"x_max":807,"ha":839,"o":"m 48 926 l 315 926 q 605 850 511 926 q 746 502 746 739 q 623 146 746 256 q 498 76 567 96 q 316 56 430 56 l 28 56 l 121 127 l 121 848 l 48 926 m 254 869 l 254 108 l 291 108 l 291 824 q 355 830 326 830 q 443 818 410 830 q 507 778 475 807 q 354 812 436 812 q 308 809 336 812 l 308 108 q 423 120 383 108 q 497 169 462 133 q 596 504 596 268 q 489 818 596 734 q 285 869 425 869 l 254 869 m 70 0 l 59 18 l 308 18 q 585 68 490 18 q 790 489 790 177 q 698 798 790 697 l 671 828 q 663 838 669 830 q 807 492 807 747 q 664 97 807 224 q 308 0 555 0 l 70 0 "},"¨":{"x_min":136,"x_max":559,"ha":695,"o":"m 437 1197 q 483 1178 464 1197 q 502 1132 502 1159 q 483 1085 502 1104 q 437 1067 464 1067 q 390 1085 409 1067 q 372 1132 372 1104 q 390 1178 372 1159 q 437 1197 409 1197 m 521 1167 q 559 1100 559 1150 q 534 1039 559 1064 q 474 1015 510 1015 q 411 1047 434 1015 l 411 1051 q 466 1029 442 1029 q 523 1052 499 1029 q 547 1108 547 1075 q 521 1167 547 1134 m 287 1167 q 325 1100 325 1150 q 300 1039 325 1064 q 240 1015 276 1015 q 177 1047 200 1015 l 177 1051 q 232 1029 208 1029 q 289 1052 265 1029 q 313 1108 313 1075 q 287 1167 313 1134 m 201 1197 q 247 1178 228 1197 q 266 1132 266 1159 q 247 1085 266 1104 q 201 1067 228 1067 q 154 1085 173 1067 q 136 1132 136 1104 q 154 1178 136 1159 q 201 1197 173 1197 "},"Ô":{"x_min":33,"x_max":834.3125,"ha":867,"o":"m 553 774 l 542 781 q 423 817 477 817 q 245 466 245 817 q 355 126 245 210 l 349 120 q 252 246 281 168 q 224 458 224 324 q 421 835 224 835 q 553 774 511 835 m 408 935 q 672 810 573 935 q 771 476 771 685 q 673 161 771 278 q 412 44 576 44 q 181 126 282 44 q 33 488 33 248 q 134 814 33 693 q 408 935 236 935 m 408 877 q 179 473 179 877 q 404 101 179 101 q 565 199 510 101 q 620 488 620 298 q 567 788 620 703 q 408 877 511 877 m 625 900 q 778 740 721 853 q 834 478 834 627 q 723 125 834 259 q 432 -9 612 -9 q 217 69 317 -9 l 217 72 q 427 11 301 11 q 706 139 597 11 q 816 466 816 267 q 766 726 816 615 q 625 893 716 837 l 625 900 m 414 1111 l 333 1016 l 274 1016 l 261 1030 l 326 1030 l 404 1122 l 387 1141 l 318 1063 l 247 1063 l 361 1198 l 448 1198 l 565 1063 l 456 1063 l 414 1111 m 657 1016 l 500 1016 l 488 1030 l 623 1030 l 506 1167 l 531 1162 l 657 1016 "},"E":{"x_min":-0.421875,"x_max":876.765625,"ha":863,"o":"m 762 926 l 751 913 q 642 718 682 828 q 631 741 635 734 q 551 845 594 822 q 398 868 509 868 q 276 868 347 868 l 276 555 l 320 555 l 320 831 q 418 836 371 836 q 545 817 504 836 q 617 746 585 799 q 604 756 608 752 q 524 806 549 798 q 428 814 500 814 q 351 814 406 814 l 337 814 l 337 555 l 461 555 l 549 675 l 549 382 l 461 496 l 276 496 l 276 115 l 320 115 l 320 464 l 467 464 l 484 446 l 337 446 l 337 115 q 533 134 475 115 q 625 212 591 154 l 661 273 q 669 288 663 277 q 712 169 686 214 q 799 65 739 124 l 38 65 l 142 143 l 142 446 q 38 411 85 439 l 29 425 q 142 464 70 455 l 142 496 q 125 497 130 497 q 0 446 56 497 q 142 555 30 555 l 142 844 l 38 926 l 762 926 m 795 878 l 790 872 q 680 685 707 761 l 668 700 q 785 892 714 805 l 795 878 m 596 652 l 596 352 l 579 361 l 579 661 l 596 652 m 876 60 l 841 0 l 100 0 l 89 18 l 832 18 l 855 60 q 718 253 758 150 l 739 245 q 865 71 777 158 l 876 60 "},"Y":{"x_min":-32.703125,"x_max":1006,"ha":891,"o":"m 975 1164 l 979 1159 l 972 1151 q 772 895 851 1025 q 729 824 742 845 l 477 421 l 477 146 l 575 56 l 245 56 l 343 146 l 343 421 l 180 671 l 144 728 q 65 837 96 803 q -25 919 35 872 l -32 926 l 309 926 l 225 838 l 451 498 l 472 532 l 271 838 l 343 906 l 357 895 l 295 838 l 483 548 l 635 788 q 701 944 701 892 q 643 1043 701 987 q 967 1160 840 1090 l 975 1164 m 1006 1124 l 1006 1096 l 999 1089 q 901 980 942 1035 q 779 798 860 926 l 534 412 l 534 146 l 654 0 l 230 0 l 222 18 l 619 18 l 516 146 l 516 416 l 766 811 l 805 873 q 1006 1124 910 1041 "},"\"":{"x_min":56,"x_max":422.796875,"ha":469,"o":"m 165 926 l 119 653 l 56 653 l 56 926 l 165 926 m 110 601 l 86 615 l 151 615 l 204 898 l 220 890 l 167 601 l 110 601 m 367 926 l 321 653 l 258 653 l 258 926 l 367 926 m 312 601 l 288 615 l 353 615 l 406 898 l 422 890 l 369 601 l 312 601 "},"‹":{"x_min":23.0625,"x_max":265.171875,"ha":279,"o":"m 23 459 l 136 648 l 194 648 l 120 459 l 194 273 l 130 273 l 23 459 m 157 433 l 231 616 l 246 598 l 179 435 l 265 222 l 177 222 l 155 239 l 234 239 l 157 433 "},"˙":{"x_min":253,"x_max":442,"ha":694,"o":"m 404 1167 q 442 1100 442 1150 q 417 1039 442 1064 q 357 1015 393 1015 q 294 1047 317 1015 l 294 1051 q 349 1029 325 1029 q 406 1052 382 1029 q 430 1108 430 1075 q 404 1167 430 1134 m 318 1197 q 364 1178 345 1197 q 383 1132 383 1159 q 364 1085 383 1104 q 318 1067 345 1067 q 271 1085 290 1067 q 253 1132 253 1104 q 271 1178 253 1159 q 318 1197 290 1197 "},"ê":{"x_min":-0.421875,"x_max":876.765625,"ha":863,"o":"m 762 926 l 751 913 q 642 718 682 828 q 631 741 635 734 q 551 845 594 822 q 398 868 509 868 q 276 868 347 868 l 276 555 l 320 555 l 320 831 q 418 836 371 836 q 545 817 504 836 q 617 746 585 799 q 604 756 608 752 q 524 806 549 798 q 428 814 500 814 q 351 814 406 814 l 337 814 l 337 555 l 461 555 l 549 675 l 549 382 l 461 496 l 276 496 l 276 115 l 320 115 l 320 464 l 467 464 l 484 446 l 337 446 l 337 115 q 533 134 475 115 q 625 212 591 154 l 661 273 q 669 288 663 277 q 712 169 686 214 q 799 65 739 124 l 38 65 l 142 143 l 142 446 q 38 411 85 439 l 29 425 q 142 464 70 455 l 142 496 q 125 497 130 497 q 0 446 56 497 q 142 555 30 555 l 142 844 l 38 926 l 762 926 m 795 878 l 790 872 q 680 685 707 761 l 668 700 q 785 892 714 805 l 795 878 m 596 652 l 596 352 l 579 361 l 579 661 l 596 652 m 876 60 l 841 0 l 100 0 l 89 18 l 832 18 l 855 60 q 718 253 758 150 l 739 245 q 865 71 777 158 l 876 60 m 411 1111 l 330 1016 l 270 1016 l 258 1030 l 324 1030 l 402 1122 l 385 1141 l 315 1063 l 244 1063 l 358 1198 l 446 1198 l 563 1063 l 454 1063 l 411 1111 m 655 1016 l 498 1016 l 486 1030 l 621 1030 l 503 1167 l 528 1162 l 655 1016 "},"Ï":{"x_min":10,"x_max":424.484375,"ha":425,"o":"m 27 926 l 349 926 l 258 833 l 258 127 l 343 56 l 27 56 l 122 133 l 122 841 l 27 926 m 379 887 l 310 818 l 310 127 l 424 0 l 71 0 l 54 18 l 384 18 l 291 121 l 291 824 l 368 900 l 379 887 m 293 1197 q 339 1178 320 1197 q 358 1132 358 1159 q 339 1085 358 1104 q 293 1067 320 1067 q 246 1085 265 1067 q 228 1132 228 1104 q 246 1178 228 1159 q 293 1197 265 1197 m 377 1167 q 415 1100 415 1150 q 390 1039 415 1064 q 330 1015 366 1015 q 266 1047 290 1015 l 266 1051 q 321 1029 298 1029 q 379 1052 355 1029 q 403 1108 403 1075 q 377 1167 403 1134 m 161 1167 q 199 1100 199 1150 q 174 1039 199 1064 q 114 1015 150 1015 q 51 1047 74 1015 l 51 1051 q 106 1029 83 1029 q 163 1052 139 1029 q 187 1108 187 1075 q 161 1167 187 1134 m 75 1197 q 121 1178 102 1197 q 140 1132 140 1159 q 121 1085 140 1104 q 75 1067 102 1067 q 28 1085 47 1067 q 10 1132 10 1104 q 28 1178 10 1159 q 75 1197 47 1197 "},"„":{"x_min":23.375,"x_max":552,"ha":571,"o":"m 473 206 q 494 113 494 159 q 293 -120 494 -56 l 288 -111 l 294 -105 q 364 34 364 -47 q 327 135 364 92 q 340 140 336 138 q 473 206 417 168 m 541 185 q 552 110 552 145 q 327 -167 552 -82 l 318 -149 l 329 -144 q 487 -32 442 -99 q 533 105 533 34 q 521 194 533 141 l 541 185 m 209 206 q 230 113 230 158 q 28 -120 230 -56 l 23 -111 l 30 -105 q 100 34 100 -46 q 64 135 100 92 q 76 140 72 138 q 209 206 153 168 m 276 185 q 288 110 288 144 q 63 -167 288 -81 l 54 -149 l 66 -144 q 225 -32 181 -99 q 269 105 269 35 q 257 194 269 140 l 276 185 "},"Â":{"x_min":0.265625,"x_max":1056.5625,"ha":1052,"o":"m 656 926 l 585 845 l 697 550 l 724 565 l 623 832 l 695 915 l 713 907 l 644 828 l 739 575 q 749 582 748 581 l 771 601 q 797 624 792 617 q 851 487 815 547 q 823 487 832 487 q 729 467 758 487 l 851 134 l 953 55 l 611 55 l 704 134 l 629 332 q 514 189 554 257 l 499 193 q 618 342 539 260 l 623 349 l 611 378 q 477 222 530 311 l 465 242 q 375 370 429 298 l 368 378 q 316 190 316 262 q 330 118 316 147 q 400 18 345 88 q 415 0 405 12 l 49 0 l 35 18 l 381 18 l 369 32 q 310 117 324 87 q 297 188 297 147 q 353 394 297 257 l 323 425 q 300 361 314 403 l 278 292 q 260 200 260 237 q 272 137 260 162 q 327 68 285 112 q 339 56 331 64 l 0 56 q 153 190 97 106 q 266 452 210 275 l 268 462 q 165 499 232 492 q 222 615 202 554 q 234 604 232 606 l 264 575 q 302 545 280 560 l 314 575 l 306 582 q 249 630 272 611 l 243 634 l 253 649 q 323 594 290 626 l 415 848 l 343 926 l 656 926 m 488 708 l 414 511 q 421 503 420 504 l 448 472 q 505 396 471 447 l 512 386 q 581 458 541 422 l 488 708 m 458 786 l 350 501 q 439 397 402 449 l 470 354 q 477 345 471 353 q 484 353 483 351 l 493 364 q 501 373 495 367 q 390 505 453 446 l 477 734 l 458 786 m 857 592 q 931 424 872 531 q 914 427 916 427 l 859 431 q 805 434 822 434 q 792 434 802 434 l 905 134 l 1056 0 l 663 0 l 651 18 l 1011 18 l 889 126 l 768 445 q 821 452 791 452 q 902 445 857 452 l 894 460 q 836 605 851 540 l 857 592 m 506 1111 l 425 1016 l 366 1016 l 353 1030 l 419 1030 l 497 1122 l 479 1141 l 410 1063 l 339 1063 l 453 1199 l 541 1199 l 657 1063 l 549 1063 l 506 1111 m 750 1016 l 593 1016 l 580 1030 l 716 1030 l 598 1167 l 623 1162 l 750 1016 "},"Í":{"x_min":27.734375,"x_max":443.921875,"ha":425,"o":"m 27 926 l 349 926 l 258 833 l 258 127 l 344 56 l 27 56 l 122 133 l 122 841 l 27 926 m 380 887 l 311 818 l 311 127 l 424 0 l 71 0 l 54 18 l 384 18 l 292 121 l 292 824 l 368 900 l 380 887 m 404 1196 l 238 1062 l 166 1062 l 265 1196 l 404 1196 m 195 1005 l 180 1024 l 263 1024 l 431 1159 l 443 1142 l 273 1005 l 195 1005 "},"´":{"x_min":301.78125,"x_max":578.484375,"ha":694,"o":"m 539 1196 l 373 1062 l 301 1062 l 401 1196 l 539 1196 m 331 1005 l 315 1024 l 398 1024 l 565 1159 l 578 1142 l 408 1005 l 331 1005 "},"ì":{"x_min":-8.890625,"x_max":424.9375,"ha":425,"o":"m 27 926 l 349 926 l 258 833 l 258 127 l 344 56 l 27 56 l 122 133 l 122 841 l 27 926 m 380 887 l 311 818 l 311 127 l 424 0 l 71 0 l 54 18 l 384 18 l 292 121 l 292 824 l 368 900 l 380 887 m 132 1195 l 225 1065 l 146 1065 l -8 1195 l 132 1195 m 316 1019 l 201 1019 l 182 1036 l 277 1036 l 192 1153 l 221 1147 l 316 1019 "},"±":{"x_min":104,"x_max":712,"ha":816,"o":"m 104 182 l 459 182 l 459 417 l 696 417 l 696 500 l 712 485 l 712 398 l 478 398 l 478 182 l 657 182 l 657 97 l 104 97 l 104 182 m 337 780 l 422 780 l 422 538 l 459 538 l 459 741 l 478 730 l 478 538 l 657 538 l 657 453 l 422 453 l 422 227 l 337 227 l 337 398 l 138 398 l 126 417 l 337 417 l 337 453 l 104 453 l 104 538 l 337 538 l 337 780 m 696 144 l 712 129 l 712 41 l 139 41 l 127 60 l 696 60 l 696 144 "},"Ú":{"x_min":22.78125,"x_max":829.234375,"ha":843,"o":"m 806 925 l 685 828 l 685 390 q 677 216 685 269 q 646 129 669 163 q 419 43 587 43 q 171 129 241 43 q 115 392 115 198 l 115 842 l 22 925 l 342 925 l 251 835 l 251 391 l 251 286 q 293 143 251 185 q 436 101 335 101 q 588 165 546 101 q 622 389 622 217 l 622 828 l 517 925 l 806 925 m 829 879 l 737 802 l 737 381 q 704 111 737 174 q 444 -16 638 -16 q 193 67 277 -16 l 198 64 l 222 51 q 437 2 306 2 q 685 120 624 2 q 718 376 718 183 l 718 810 l 819 893 l 829 879 m 371 888 l 304 821 l 304 317 l 304 270 l 325 184 q 384 122 340 158 l 385 115 q 306 183 328 139 q 285 319 285 227 l 285 828 l 361 902 l 371 888 m 650 1196 l 484 1062 l 412 1062 l 512 1196 l 650 1196 m 442 1005 l 426 1024 l 509 1024 l 676 1159 l 689 1142 l 519 1005 l 442 1005 "},"|":{"x_min":296,"x_max":400,"ha":695,"o":"m 296 926 l 400 926 l 400 -231 l 296 -231 l 296 926 "},"§":{"x_min":27.3125,"x_max":730,"ha":758,"o":"m 625 1035 l 631 1033 q 584 950 600 992 q 534 843 546 860 q 528 860 530 855 q 466 969 506 936 q 359 1003 426 1003 q 252 968 294 1003 q 210 880 210 933 q 270 777 210 817 q 240 852 240 811 q 277 936 240 904 q 376 969 315 969 q 496 913 462 969 l 492 910 q 378 952 439 952 q 292 922 326 952 q 259 848 259 893 q 285 783 259 812 q 355 742 311 755 q 597 639 534 689 q 661 502 661 589 q 513 322 661 373 q 625 145 625 262 q 549 -16 625 46 q 355 -80 474 -80 q 216 -59 285 -80 l 161 -43 q 102 -34 127 -34 q 32 -56 70 -34 l 27 -47 q 127 151 97 55 l 138 148 q 286 -25 154 7 q 178 129 201 19 l 196 131 q 256 11 212 55 q 360 -33 299 -33 q 484 8 434 -33 q 534 110 534 49 q 494 167 534 143 q 348 225 454 192 q 159 298 207 270 q 104 369 111 326 l 125 355 q 250 279 144 314 l 357 244 q 517 172 476 204 q 453 236 489 217 q 283 297 416 256 q 117 378 166 332 q 68 499 68 424 q 110 612 68 567 q 228 670 153 657 q 107 846 107 714 q 176 996 107 940 q 364 1052 245 1052 q 509 1027 431 1052 q 563 1017 545 1017 q 625 1035 592 1017 m 301 643 q 192 605 226 633 q 159 525 159 577 q 244 420 159 457 q 193 516 193 459 q 321 609 193 609 l 381 600 l 390 589 q 322 597 347 597 q 243 572 274 597 q 212 511 212 548 q 261 421 212 458 q 394 369 292 397 l 431 358 q 528 399 493 368 q 563 478 563 430 q 502 574 563 539 q 347 630 468 594 q 301 643 332 634 m 600 300 q 693 135 693 240 q 598 -58 693 17 q 357 -134 504 -134 q 255 -121 303 -134 l 177 -100 q 119 -93 150 -93 q 66 -108 89 -93 l 58 -88 q 114 -73 85 -73 q 182 -83 144 -73 l 260 -103 q 357 -115 306 -115 q 584 -42 495 -115 q 673 141 673 29 q 596 297 673 231 l 578 309 q 710 502 710 389 q 624 657 710 594 l 624 660 q 730 501 730 603 q 600 300 730 379 m 679 1011 q 582 818 617 907 l 566 824 q 619 938 579 863 q 659 1014 629 956 l 661 1020 l 679 1011 "},"Ý":{"x_min":-32.703125,"x_max":1006,"ha":891,"o":"m 975 1164 l 979 1159 l 972 1151 q 772 895 851 1025 q 729 824 742 845 l 477 421 l 477 146 l 575 56 l 245 56 l 343 146 l 343 421 l 180 671 l 144 728 q 65 837 96 803 q -25 919 35 872 l -32 926 l 309 926 l 225 838 l 451 498 l 472 532 l 271 838 l 343 906 l 357 895 l 295 838 l 483 548 l 635 788 q 701 944 701 892 q 643 1043 701 987 q 967 1160 840 1090 l 975 1164 m 1006 1123 l 1006 1095 l 999 1089 q 901 980 942 1034 q 779 798 860 926 l 534 412 l 534 146 l 654 0 l 230 0 l 222 18 l 619 18 l 516 146 l 516 416 l 766 811 l 805 873 q 1006 1123 910 1041 m 636 1196 l 470 1062 l 399 1062 l 498 1196 l 636 1196 m 428 1005 l 413 1024 l 496 1024 l 663 1159 l 675 1142 l 505 1005 l 428 1005 "},"b":{"x_min":9.421875,"x_max":838,"ha":898,"o":"m 45 834 q 407 941 206 941 q 645 875 553 941 q 738 705 738 809 q 578 520 738 566 l 578 513 q 617 502 594 508 q 735 574 692 519 q 778 705 778 628 q 699 876 778 801 l 699 880 l 706 874 q 795 698 795 805 q 642 492 795 549 q 745 405 708 461 q 782 278 782 348 q 708 116 782 177 q 513 56 635 56 l 28 56 l 122 135 l 122 429 q 28 421 81 429 l 22 440 q 122 447 83 447 l 122 483 l 105 483 q 9 477 67 483 l 39 541 l 50 541 q 90 541 76 541 q 122 538 110 541 l 122 793 l 45 834 m 258 844 l 258 538 q 268 538 265 538 l 280 538 q 291 538 282 538 l 291 816 q 405 843 350 843 q 506 819 469 843 q 569 741 543 796 l 550 752 q 404 829 499 829 q 310 799 352 829 l 310 538 l 338 538 q 531 581 468 538 q 595 713 595 624 q 542 839 595 791 q 404 887 489 887 q 258 844 329 887 m 258 484 l 258 108 l 291 108 l 291 443 q 360 443 339 443 q 523 422 473 443 q 604 344 574 401 l 596 344 q 512 408 563 390 q 365 426 462 426 l 310 426 l 310 117 l 331 117 l 429 117 q 621 292 621 117 q 558 443 621 402 q 322 484 495 484 q 258 484 305 484 m 765 434 q 838 263 838 378 q 757 73 838 148 q 526 0 678 0 l 65 0 l 53 18 l 481 18 q 682 46 621 18 q 819 268 819 110 q 757 428 819 356 l 765 434 "},"q":{"x_min":33,"x_max":923.03125,"ha":890,"o":"m 531 806 q 521 810 524 809 q 430 835 468 835 q 283 741 328 835 q 239 435 239 647 q 375 111 239 191 l 369 111 q 259 219 297 132 q 222 448 222 305 q 268 754 222 660 q 421 848 315 848 q 531 811 486 848 l 531 806 m 617 111 q 764 49 678 49 q 867 74 810 49 l 872 72 q 819 -7 840 27 l 769 -98 l 766 -103 q 571 16 655 -83 q 431 -16 501 -16 q 251 42 318 -16 l 253 47 q 421 3 344 3 q 559 29 497 3 q 555 36 556 33 q 537 59 545 51 q 407 36 474 36 q 139 166 245 36 q 33 492 33 296 q 137 818 33 693 q 410 943 241 943 q 676 820 575 943 q 777 496 777 697 q 742 287 777 373 q 623 117 707 200 l 617 111 m 581 212 q 628 501 628 312 q 399 889 628 889 q 177 482 177 889 q 238 195 177 299 q 407 92 300 92 q 495 111 453 92 q 389 185 455 185 q 373 184 384 185 l 420 242 q 540 172 470 228 l 548 165 q 567 191 556 175 l 571 195 q 452 265 525 240 l 461 281 q 573 219 520 259 l 581 212 m 637 894 q 787 745 731 855 q 843 492 843 636 q 716 119 843 275 q 836 80 754 87 l 836 76 q 797 72 810 72 q 688 116 737 72 q 824 493 824 254 q 637 890 824 754 l 637 894 m 923 40 q 819 -121 868 -30 l 815 -129 l 798 -121 q 851 -32 821 -75 l 904 44 l 907 50 l 923 40 "},"Ö":{"x_min":33,"x_max":834.3125,"ha":867,"o":"m 553 774 l 542 781 q 423 817 477 817 q 245 466 245 817 q 354 126 245 210 l 348 120 q 252 246 281 168 q 224 458 224 324 q 421 835 224 835 q 553 774 511 835 m 408 935 q 672 810 573 935 q 771 476 771 685 q 673 161 771 278 q 412 44 576 44 q 181 126 282 44 q 33 488 33 248 q 134 814 33 693 q 408 935 236 935 m 408 877 q 179 473 179 877 q 404 101 179 101 q 565 199 510 101 q 620 488 620 298 q 567 788 620 703 q 408 877 511 877 m 625 900 q 778 740 721 853 q 834 478 834 627 q 723 125 834 259 q 432 -9 612 -9 q 217 69 317 -9 l 217 72 q 427 11 300 11 q 706 139 597 11 q 816 466 816 267 q 766 726 816 615 q 625 893 716 837 l 625 900 m 523 1197 q 569 1178 550 1197 q 588 1132 588 1159 q 569 1085 588 1104 q 523 1067 550 1067 q 476 1085 495 1067 q 458 1132 458 1104 q 476 1178 458 1159 q 523 1197 495 1197 m 607 1167 q 645 1100 645 1150 q 621 1039 645 1064 q 561 1015 597 1015 q 498 1047 521 1015 l 498 1051 q 552 1029 529 1029 q 609 1052 585 1029 q 633 1108 633 1075 q 607 1167 633 1134 m 373 1167 q 411 1100 411 1150 q 387 1039 411 1064 q 327 1015 363 1015 q 264 1047 287 1015 l 264 1051 q 318 1029 295 1029 q 375 1052 351 1029 q 399 1108 399 1075 q 373 1167 399 1134 m 287 1197 q 333 1178 314 1197 q 352 1132 352 1159 q 333 1085 352 1104 q 287 1067 314 1067 q 240 1085 259 1067 q 222 1132 222 1104 q 240 1177 222 1158 q 287 1197 259 1197 "},"z":{"x_min":23.0625,"x_max":866.703125,"ha":890,"o":"m 767 926 l 223 113 l 266 113 l 799 911 l 811 894 l 289 114 l 357 114 l 410 114 l 438 114 q 544 135 494 114 q 619 190 594 156 q 674 283 651 232 q 794 56 731 134 l 23 56 l 525 811 l 512 811 l 425 811 q 254 784 301 811 q 187 675 208 758 l 172 690 q 228 786 185 748 q 295 820 257 812 q 423 828 334 828 q 526 828 479 828 l 537 828 l 563 867 q 469 867 516 867 q 277 855 329 867 q 185 803 224 843 q 136 717 155 771 l 131 728 q 35 918 97 806 l 31 926 l 767 926 m 866 61 l 832 0 l 57 0 l 43 18 l 821 18 l 845 61 q 722 276 767 156 l 745 267 q 861 67 780 165 l 866 61 "},"™":{"x_min":45.921875,"x_max":1168.515625,"ha":1215,"o":"m 535 926 q 530 917 531 919 l 503 870 q 476 809 492 852 l 475 807 l 471 810 l 470 815 q 436 875 458 858 q 370 892 415 892 l 333 892 l 329 892 l 329 475 l 376 434 l 191 434 l 248 479 l 248 851 l 239 851 l 218 851 q 166 836 181 851 q 147 785 151 822 l 132 788 l 133 793 q 158 849 138 834 q 231 865 178 865 l 248 865 l 248 889 q 212 891 227 891 q 132 872 155 891 q 109 803 109 853 l 102 803 q 47 921 86 851 l 45 926 l 535 926 m 570 896 q 511 784 539 857 l 510 780 l 496 790 l 497 794 q 555 904 528 873 l 558 906 l 570 896 m 452 836 q 395 855 425 855 q 369 855 383 855 l 369 470 l 435 398 l 226 398 l 213 412 l 408 412 l 354 469 l 354 869 q 377 869 370 869 q 428 862 412 869 q 452 836 443 856 m 1111 926 l 1057 873 l 1057 479 l 1106 435 l 919 435 l 976 479 l 976 727 l 856 398 l 817 398 l 809 412 l 845 412 l 976 765 l 976 828 l 824 435 l 796 435 l 690 731 l 690 541 q 712 456 690 481 l 727 439 l 767 398 l 549 398 l 537 412 l 738 412 l 719 435 l 537 435 l 545 439 q 605 486 591 464 q 619 561 619 509 l 619 878 l 565 926 l 776 926 l 717 875 l 832 555 l 847 593 l 747 870 l 801 906 l 814 897 l 763 863 l 855 613 l 955 875 l 906 926 l 1111 926 m 652 835 l 652 560 q 664 473 652 497 q 717 439 677 449 l 714 444 q 675 519 675 471 l 675 547 l 675 774 l 652 835 m 1144 890 l 1098 859 l 1098 473 l 1168 398 l 953 398 l 943 412 l 1139 412 l 1083 471 l 1083 869 l 1130 900 l 1144 890 "},"ã":{"x_min":0.265625,"x_max":1056,"ha":1051,"o":"m 656 926 l 585 845 l 696 550 l 723 565 l 623 832 l 695 915 l 713 907 l 644 828 l 739 575 q 748 582 747 581 l 771 601 q 796 624 791 617 q 851 487 814 547 q 822 487 831 487 q 728 467 758 487 l 851 134 l 952 55 l 610 55 l 704 134 l 629 332 q 514 189 554 257 l 498 193 q 618 342 538 260 l 623 348 l 610 378 q 477 222 530 311 l 464 242 q 374 370 429 298 l 367 378 q 316 190 316 262 q 330 117 316 147 q 400 18 344 88 q 415 0 404 12 l 49 0 l 35 18 l 380 18 l 369 32 q 310 117 324 87 q 297 188 297 147 q 353 394 297 257 l 323 425 q 300 361 314 403 l 278 292 q 260 200 260 236 q 272 137 260 162 q 327 68 285 112 q 339 55 331 64 l 0 55 q 153 190 97 106 q 266 452 210 275 l 268 462 q 165 499 232 492 q 222 615 202 554 q 234 604 232 606 l 264 575 q 302 545 280 560 l 314 575 l 306 582 q 249 630 272 611 l 243 634 l 253 649 q 323 594 290 626 l 415 848 l 343 926 l 656 926 m 488 708 l 413 511 q 420 503 419 504 l 448 472 q 505 396 470 447 l 512 386 q 581 458 541 422 l 488 708 m 457 786 l 350 501 q 438 397 401 449 l 470 354 q 477 345 470 353 q 483 353 483 351 l 493 364 q 500 373 495 367 q 390 505 453 446 l 477 734 l 457 786 m 856 592 q 931 424 871 531 q 914 427 916 427 l 859 431 q 805 434 822 434 q 791 434 802 434 l 904 133 l 1056 0 l 663 0 l 651 18 l 1010 18 l 888 126 l 767 445 q 820 452 790 452 q 902 445 857 452 l 893 460 q 835 605 850 540 l 856 592 m 697 1195 q 699 1177 699 1182 q 668 1095 699 1129 q 593 1061 637 1061 q 466 1099 545 1061 q 401 1123 421 1123 q 350 1070 357 1123 l 303 1070 q 338 1167 303 1128 q 425 1207 373 1207 q 554 1157 470 1207 q 606 1138 587 1138 q 636 1151 624 1138 q 649 1185 649 1165 q 648 1195 649 1188 l 697 1195 m 735 1176 l 749 1164 q 713 1060 749 1102 q 625 1018 677 1018 q 548 1038 591 1018 l 556 1047 q 622 1033 595 1033 q 734 1168 722 1033 l 735 1176 m 407 1090 l 407 1070 q 387 1019 392 1050 l 333 1019 l 322 1035 l 376 1035 q 407 1090 383 1073 "},"æ":{"x_min":-23.1875,"x_max":1413.40625,"ha":1399,"o":"m 1289 926 q 1173 724 1209 823 q 1169 735 1170 731 q 1104 839 1137 815 q 993 864 1072 864 l 932 864 l 801 864 l 801 563 l 843 563 l 843 830 q 917 830 879 830 q 1072 816 1029 830 q 1141 760 1116 802 q 1131 766 1135 764 q 1049 803 1087 796 q 903 811 1011 811 l 861 811 l 861 563 l 996 563 l 1085 685 l 1085 373 l 990 501 l 801 501 l 801 115 l 843 115 l 843 465 l 990 465 l 1008 448 l 861 448 l 861 115 l 870 115 l 977 115 l 1032 115 q 1166 160 1121 124 q 1228 270 1211 196 q 1299 112 1261 168 l 1324 76 q 1338 55 1327 70 l 559 55 l 673 153 l 673 307 l 593 207 l 586 227 l 673 334 l 673 397 l 559 252 q 495 329 539 274 q 437 396 463 369 l 432 401 l 366 296 q 318 163 318 221 q 335 96 318 124 q 413 7 352 69 l 421 0 l 13 0 l 3 18 l 388 18 l 350 56 l -23 56 q 115 153 46 81 q 276 368 185 226 l 344 473 q 282 498 310 492 l 260 503 q 253 505 258 504 l 322 606 q 328 599 327 600 l 344 581 q 371 555 358 566 l 384 543 q 390 538 386 542 l 407 563 q 402 568 402 567 l 377 596 l 348 630 l 344 635 l 353 653 q 360 647 358 648 l 386 618 l 417 586 l 421 582 l 586 835 l 482 926 l 1289 926 m 419 411 q 390 439 406 426 l 330 348 q 263 178 263 247 q 342 68 263 106 q 300 157 300 106 q 367 332 300 231 l 419 411 m 674 763 l 503 508 l 599 401 l 674 486 l 674 763 m 674 860 l 430 498 l 560 356 l 587 387 l 480 507 l 674 797 l 674 860 m 1314 896 l 1320 882 q 1213 706 1264 818 l 1209 699 l 1199 710 q 1314 896 1245 827 m 1134 662 l 1134 344 l 1116 352 l 1116 671 l 1134 662 m 1413 58 l 1378 0 l 602 0 l 594 18 l 1370 18 l 1391 51 l 1387 56 q 1279 258 1300 167 l 1301 251 l 1303 246 l 1328 187 q 1372 110 1348 142 l 1407 66 q 1413 58 1408 64 "},"®":{"x_min":46,"x_max":1042.3125,"ha":1088,"o":"m 287 711 q 495 764 385 764 q 637 728 581 764 q 693 637 693 692 q 656 557 693 592 q 556 508 619 522 q 624 368 580 437 q 711 262 667 300 l 715 258 l 709 256 q 599 201 649 234 l 593 197 l 591 209 q 525 457 568 350 q 465 441 504 447 l 463 441 l 463 300 l 555 206 l 323 206 l 308 224 l 519 224 l 447 296 l 447 452 l 453 453 q 519 471 493 458 q 517 477 517 476 l 512 490 q 510 495 511 492 q 463 486 488 490 l 415 480 l 412 479 l 412 307 l 457 261 l 277 261 l 331 307 l 331 427 q 323 425 325 426 q 297 417 308 421 q 289 414 294 416 l 281 429 q 307 438 300 436 l 323 441 q 331 443 325 442 l 331 467 q 270 456 309 467 l 266 455 l 266 460 q 274 480 267 462 q 279 498 275 484 q 281 501 280 498 q 309 501 299 501 q 327 501 321 501 l 330 501 l 330 691 q 291 709 311 703 l 287 711 m 411 721 l 411 512 q 447 518 426 512 l 447 699 q 496 705 467 705 q 594 661 568 705 q 505 691 550 691 q 462 686 482 691 l 462 519 q 606 636 606 545 q 571 707 606 679 q 482 736 536 736 q 411 721 439 736 m 625 478 q 695 343 647 405 q 808 239 743 281 q 639 165 720 215 l 635 162 l 618 174 q 772 243 688 220 q 604 482 666 316 l 601 489 q 727 629 727 532 q 693 709 727 664 q 741 614 741 672 q 625 478 741 524 m 738 788 l 719 794 q 533 831 618 831 q 188 467 188 831 q 254 238 188 321 q 469 113 320 155 l 459 106 q 235 222 292 156 q 167 462 167 303 q 522 849 167 849 q 738 788 671 849 m 518 935 q 848 805 718 935 q 978 475 978 675 q 853 161 978 278 q 522 44 729 44 q 233 126 361 44 q 46 488 46 248 q 174 814 46 693 q 518 935 302 935 m 511 886 q 127 473 127 886 q 226 189 127 287 q 515 92 326 92 q 796 193 700 92 q 893 489 893 294 q 868 669 893 598 q 789 792 844 740 q 511 886 689 886 m 791 900 q 974 740 906 854 q 1042 478 1042 626 q 904 125 1042 259 q 542 -9 766 -9 q 271 69 397 -9 l 271 72 q 538 11 378 11 q 888 140 753 11 q 1024 475 1024 269 q 961 727 1024 617 q 791 892 899 838 l 791 900 "},"É":{"x_min":-0.421875,"x_max":876.765625,"ha":863,"o":"m 762 926 l 751 913 q 642 718 682 828 q 631 741 635 734 q 551 845 594 822 q 398 868 509 868 q 276 868 347 868 l 276 555 l 320 555 l 320 831 q 418 836 371 836 q 545 817 504 836 q 617 746 585 799 q 604 756 608 752 q 524 806 549 798 q 428 814 500 814 q 351 814 406 814 l 337 814 l 337 555 l 461 555 l 549 675 l 549 382 l 461 496 l 276 496 l 276 115 l 320 115 l 320 464 l 467 464 l 484 446 l 337 446 l 337 115 q 533 134 475 115 q 625 212 591 154 l 661 273 q 669 288 663 277 q 712 169 686 214 q 799 65 739 124 l 38 65 l 142 143 l 142 446 q 38 411 85 439 l 29 425 q 142 464 70 455 l 142 496 q 125 497 130 497 q 0 446 56 497 q 142 555 30 555 l 142 844 l 38 926 l 762 926 m 795 878 l 790 872 q 680 685 707 761 l 668 700 q 785 892 714 805 l 795 878 m 596 652 l 596 352 l 579 361 l 579 661 l 596 652 m 876 60 l 841 0 l 100 0 l 89 18 l 832 18 l 855 60 q 718 253 758 150 l 739 245 q 865 71 777 158 l 876 60 m 493 1196 l 328 1062 l 255 1062 l 355 1196 l 493 1196 m 284 1005 l 269 1024 l 353 1024 l 520 1159 l 532 1142 l 362 1005 l 284 1005 "},"~":{"x_min":179.71875,"x_max":745.984375,"ha":926,"o":"m 721 1019 l 745 1003 q 661 900 712 939 q 560 861 611 861 q 480 877 530 861 l 440 890 l 400 903 q 322 918 356 918 q 216 858 267 918 q 204 845 212 854 l 179 861 q 367 1005 261 1005 q 487 975 404 1005 q 594 950 562 950 q 721 1019 665 950 "},"³":{"x_min":39,"x_max":474,"ha":509,"o":"m 130 595 q 124 552 124 574 q 229 448 124 448 q 340 563 340 448 q 307 657 340 620 q 225 694 274 694 q 187 690 215 694 l 183 689 l 202 730 q 224 730 215 730 q 295 754 267 730 q 323 816 323 778 q 292 881 323 855 q 218 908 262 908 q 152 887 178 908 q 126 833 126 866 q 166 789 126 789 q 187 797 175 789 l 194 794 q 134 760 168 760 q 80 780 102 760 q 58 831 58 801 q 108 906 58 876 q 233 937 158 937 q 353 904 306 937 q 400 819 400 871 q 373 754 400 783 q 308 717 346 724 q 299 711 299 715 q 307 704 299 707 q 427 563 427 671 q 374 455 427 493 q 226 417 321 417 q 39 550 67 417 l 43 552 q 130 595 95 569 m 176 579 q 174 567 175 571 q 171 539 171 545 q 215 460 171 490 l 217 455 q 155 539 155 469 q 160 584 155 555 l 176 579 m 317 626 q 240 652 282 652 q 201 646 227 652 l 194 661 q 236 667 218 667 q 317 626 294 667 m 414 654 q 474 533 474 599 q 414 407 474 455 q 258 360 355 360 q 165 375 209 360 q 101 414 120 391 l 98 419 l 102 417 l 136 397 q 252 372 176 372 q 400 418 342 372 q 458 536 458 464 q 433 621 458 587 l 414 646 q 411 650 413 647 l 414 654 m 381 904 l 386 902 q 430 862 411 892 q 449 799 449 831 q 364 688 449 722 l 349 695 q 433 801 433 723 q 385 900 433 852 q 381 904 383 901 m 312 826 q 308 831 309 830 q 227 878 275 878 q 168 826 168 878 q 180 803 168 813 l 176 799 q 152 832 152 808 q 172 875 152 858 q 225 893 193 893 q 315 831 295 893 l 312 826 m 227 770 q 152 729 200 729 q 80 762 118 729 l 79 766 l 83 763 l 97 753 q 146 739 115 739 q 213 778 190 739 l 227 770 "},"¡":{"x_min":37.09375,"x_max":393.140625,"ha":430,"o":"m 162 457 l 188 457 q 188 443 188 445 q 226 198 188 322 q 326 1 265 74 q 229 -61 260 -27 q 172 -166 198 -94 q 126 -54 154 -92 q 37 11 97 -16 l 44 23 q 134 212 107 123 q 162 446 162 302 l 162 457 m 393 -33 l 380 -39 q 285 -103 319 -71 q 222 -190 252 -134 l 200 -200 q 360 -26 231 -98 q 268 171 303 52 q 234 408 234 290 l 253 408 l 258 401 q 288 165 258 257 q 387 -23 319 72 l 393 -33 m 178 723 q 240 697 214 723 q 266 635 266 671 q 240 572 266 598 q 178 547 214 547 q 115 572 141 547 q 90 635 90 598 q 115 697 90 671 q 178 723 141 723 m 288 694 q 326 607 326 659 q 291 526 326 561 q 211 492 257 492 q 122 532 156 492 l 127 537 q 206 512 170 512 q 279 541 248 512 q 310 611 310 570 q 282 689 310 649 l 288 694 "},"[":{"x_min":139,"x_max":506,"ha":608,"o":"m 139 1037 l 450 1037 l 450 971 l 290 971 l 290 1 l 329 1 l 329 934 l 490 934 l 490 999 l 506 982 l 506 915 l 349 915 l 349 1 l 450 1 l 450 -65 l 139 -65 l 139 1037 m 490 -35 l 506 -52 l 506 -120 l 174 -120 l 162 -101 l 490 -101 l 490 -35 "},"L":{"x_min":27.421875,"x_max":802.03125,"ha":760,"o":"m 27 925 l 351 925 l 256 833 l 256 107 l 261 107 l 285 105 l 292 105 l 292 826 l 365 900 l 374 885 l 309 818 l 309 105 q 367 103 339 103 q 530 150 475 103 q 604 308 585 198 q 735 55 668 123 l 27 55 l 121 132 l 121 839 l 27 925 m 802 60 l 771 0 l 63 0 l 46 18 l 764 18 l 783 60 q 664 265 709 152 l 661 272 l 683 264 l 688 252 q 796 67 733 152 l 802 60 "}," ":{"x_min":0,"x_max":0,"ha":347},"∑":{"x_min":66.078125,"x_max":864.96875,"ha":926,"o":"m 66 926 l 808 926 l 808 693 l 780 693 q 717 841 767 798 q 555 884 667 884 l 251 884 l 528 373 l 190 -235 l 554 -235 q 744 -185 679 -235 q 837 -19 810 -136 l 864 -19 l 818 -324 l 66 -324 l 412 298 l 66 926 "},"%":{"x_min":23,"x_max":850,"ha":869,"o":"m 689 925 l 203 49 l 144 49 l 628 925 l 689 925 m 716 909 l 727 890 l 237 -1 l 172 -1 l 161 17 l 228 17 l 716 909 m 252 847 q 217 862 235 862 q 169 832 182 862 q 157 725 157 802 q 202 552 157 600 l 193 552 q 150 614 162 576 q 139 727 139 651 q 154 845 139 813 q 212 877 170 877 q 258 847 239 877 l 252 847 m 197 953 q 327 885 277 953 q 377 710 377 818 q 331 546 377 604 q 204 488 286 488 q 71 551 119 488 q 23 725 23 614 q 70 890 23 828 q 197 953 118 953 m 199 898 q 130 856 151 898 q 109 720 109 815 q 203 535 109 535 q 292 716 292 535 q 199 898 292 898 m 321 920 l 332 920 q 406 833 379 889 q 433 705 433 776 q 381 527 433 596 q 249 459 330 459 q 192 475 216 459 l 202 475 q 237 469 220 469 q 365 535 314 469 q 416 704 416 602 q 321 920 416 831 m 671 362 q 634 375 652 375 q 576 300 576 375 l 576 215 l 576 181 q 620 65 584 103 l 612 65 q 568 128 580 91 q 557 240 557 164 q 572 358 557 326 q 630 390 588 390 q 675 362 657 390 l 671 362 m 615 468 q 744 400 694 468 q 795 225 795 332 q 749 60 795 118 q 622 2 704 2 q 489 65 537 2 q 441 240 441 129 q 488 405 441 343 q 615 468 536 468 m 617 413 q 548 371 569 413 q 527 235 527 330 q 621 50 527 50 q 710 230 710 50 q 617 413 710 413 m 739 434 l 750 434 q 823 347 797 403 q 850 219 850 290 q 799 41 850 110 q 666 -27 748 -27 q 610 -11 633 -27 l 620 -11 q 656 -17 637 -17 q 783 49 733 -17 q 834 217 834 115 q 739 434 834 344 "},"P":{"x_min":5.234375,"x_max":808,"ha":822,"o":"m 66 926 l 370 926 q 646 872 564 926 q 751 685 751 805 q 711 559 751 612 q 599 481 671 505 q 371 458 527 458 l 287 458 l 287 130 l 370 55 l 54 55 l 149 135 l 149 407 q 137 408 140 408 q 43 387 88 408 l 37 399 q 119 425 83 425 l 143 425 l 149 425 l 149 458 q 127 461 133 461 q 12 425 55 461 l 5 435 q 138 512 46 512 l 149 512 l 149 843 l 66 926 m 287 857 l 287 515 l 296 515 l 314 515 q 323 516 316 515 l 323 819 l 397 819 q 519 803 483 819 q 580 740 555 788 q 517 789 555 775 q 411 803 479 803 l 342 803 l 342 516 q 538 555 475 516 q 601 678 601 594 q 545 814 601 771 q 365 857 489 857 q 287 857 333 857 m 716 853 q 782 781 757 832 q 808 665 808 730 q 694 454 808 518 q 400 406 608 406 q 342 406 365 406 l 342 126 l 448 0 l 108 0 l 90 18 l 409 18 l 323 118 l 323 423 q 448 423 381 423 q 707 484 622 423 q 792 672 792 545 q 775 764 792 725 q 716 853 759 803 "},"∏":{"x_min":-10,"x_max":936,"ha":926,"o":"m -10 926 l 936 926 l 936 899 l 905 899 q 829 878 846 899 q 813 788 813 858 l 813 -186 q 829 -276 813 -256 q 901 -297 845 -297 l 935 -297 l 935 -324 l 527 -324 l 527 -297 l 556 -297 q 633 -276 616 -297 q 650 -186 650 -256 l 650 788 q 633 878 650 858 q 557 899 616 899 l 371 899 q 295 878 312 899 q 279 788 279 858 l 279 -186 q 295 -276 279 -256 q 368 -297 312 -297 l 402 -297 l 402 -324 l -6 -324 l -6 -297 l 23 -297 q 99 -276 82 -297 q 116 -186 116 -256 l 116 788 q 99 878 116 858 q 23 899 82 899 l -10 899 l -10 926 "},"À":{"x_min":0.265625,"x_max":1056.5625,"ha":1052,"o":"m 656 926 l 585 845 l 697 550 l 724 565 l 623 832 l 695 915 l 713 907 l 644 828 l 739 575 q 749 582 748 581 l 771 601 q 797 624 792 617 q 851 487 815 547 q 823 487 832 487 q 729 467 758 487 l 851 134 l 953 55 l 611 55 l 704 134 l 629 332 q 514 189 554 257 l 499 193 q 618 342 539 260 l 623 349 l 611 378 q 477 222 530 311 l 465 242 q 375 370 429 298 l 368 378 q 316 190 316 262 q 330 118 316 147 q 400 18 345 88 q 415 0 405 12 l 49 0 l 35 18 l 381 18 l 369 32 q 310 117 324 87 q 297 188 297 147 q 353 394 297 257 l 323 425 q 300 361 314 403 l 278 292 q 260 200 260 237 q 272 137 260 162 q 327 68 285 112 q 339 56 331 64 l 0 56 q 153 190 97 106 q 266 452 210 275 l 268 462 q 165 499 232 492 q 222 615 202 554 q 234 604 232 606 l 264 575 q 302 545 280 560 l 314 575 l 306 582 q 249 630 272 611 l 243 634 l 253 649 q 323 594 290 626 l 415 848 l 343 926 l 656 926 m 488 708 l 414 511 q 421 503 420 504 l 448 472 q 505 396 471 447 l 512 386 q 581 458 541 422 l 488 708 m 458 786 l 350 501 q 439 397 402 449 l 470 354 q 477 345 471 353 q 484 353 483 351 l 493 364 q 501 373 495 367 q 390 505 453 446 l 477 734 l 458 786 m 857 592 q 931 424 872 531 q 914 427 916 427 l 859 431 q 805 434 822 434 q 792 434 802 434 l 905 134 l 1056 0 l 663 0 l 651 18 l 1011 18 l 889 126 l 768 445 q 821 452 791 452 q 902 445 857 452 l 894 460 q 836 605 851 540 l 857 592 m 446 1196 l 539 1065 l 460 1065 l 305 1196 l 446 1196 m 630 1019 l 516 1019 l 497 1036 l 591 1036 l 506 1154 l 535 1148 l 630 1019 "},"_":{"x_min":22,"x_max":671,"ha":694,"o":"m 22 -125 l 671 -125 l 671 -204 l 22 -204 l 22 -125 "},"ñ":{"x_min":-13.984375,"x_max":825.03125,"ha":834,"o":"m 801 926 q 701 852 723 886 q 668 697 668 801 l 668 653 l 668 56 l 553 56 l 232 677 l 232 308 l 232 278 l 240 180 q 301 80 253 112 l 307 75 q 214 275 214 106 l 214 339 l 214 710 l 178 781 l 178 390 q 202 147 178 205 q 316 63 226 89 l 375 0 l 8 0 l -2 18 l 337 18 l 301 56 l -13 56 q 95 136 68 85 q 123 308 123 186 l 123 850 l 32 926 l 375 926 l 279 861 l 608 221 l 608 302 l 326 850 l 421 915 l 434 902 l 350 845 l 608 339 l 608 656 l 608 692 q 588 849 608 810 q 493 926 569 889 l 801 926 m 825 875 l 812 855 q 741 810 760 843 q 723 699 723 777 l 723 0 l 577 0 l 568 18 l 705 18 l 705 692 q 729 825 705 788 q 825 875 754 863 m 587 1195 q 589 1177 589 1182 q 558 1095 589 1129 q 483 1061 527 1061 q 356 1099 435 1061 q 292 1123 311 1123 q 241 1070 247 1123 l 193 1070 q 228 1167 193 1128 q 316 1207 264 1207 q 444 1157 360 1207 q 496 1138 477 1138 q 526 1151 514 1138 q 539 1185 539 1165 q 538 1195 539 1189 l 587 1195 m 625 1176 l 639 1164 q 603 1060 639 1102 q 515 1018 567 1018 q 438 1038 481 1018 l 447 1047 q 512 1033 485 1033 q 624 1168 612 1033 l 625 1176 m 297 1090 l 297 1070 q 277 1019 282 1050 l 223 1019 l 212 1035 l 266 1035 q 297 1090 273 1073 "},"+":{"x_min":104,"x_max":712,"ha":816,"o":"m 337 780 l 422 780 l 422 538 l 459 538 l 459 741 l 478 730 l 478 538 l 657 538 l 657 453 l 422 453 l 422 227 l 337 227 l 337 398 l 138 398 l 126 417 l 337 417 l 337 453 l 104 453 l 104 538 l 337 538 l 337 780 m 478 398 l 478 156 l 389 156 l 374 172 l 459 172 l 459 417 l 696 417 l 696 500 l 712 485 l 712 398 l 478 398 "},"‚":{"x_min":23.375,"x_max":288,"ha":364,"o":"m 209 206 q 230 113 230 158 q 28 -120 230 -55 l 23 -111 l 30 -105 q 100 34 100 -47 q 64 135 100 92 q 76 140 72 138 q 209 206 151 167 m 276 185 q 288 110 288 143 q 63 -167 288 -81 l 54 -148 l 66 -144 q 224 -32 180 -99 q 269 105 269 35 q 257 194 269 140 l 276 185 "},"½":{"x_min":106,"x_max":1152,"ha":1191,"o":"m 295 926 l 295 471 l 336 426 l 167 426 l 220 471 l 220 805 q 171 794 195 794 q 115 831 141 794 l 120 829 l 145 813 q 171 809 152 809 q 220 821 192 809 l 220 854 q 154 834 192 834 q 106 867 106 834 q 125 888 106 888 q 142 874 142 888 q 142 868 142 871 l 141 864 l 146 859 q 152 858 148 858 q 206 877 179 858 q 246 926 233 897 l 295 926 m 324 910 l 340 903 l 340 456 l 415 371 l 190 371 l 182 385 l 387 385 l 324 455 l 324 910 m 899 940 l 363 51 l 299 51 l 835 940 l 899 940 m 311 11 l 383 11 l 932 920 l 944 906 l 393 -7 l 318 -7 l 311 11 m 1106 171 l 1106 56 l 723 56 q 886 257 751 176 q 991 337 964 302 q 1018 426 1018 371 q 989 504 1018 475 q 911 534 960 534 q 836 509 865 534 q 807 446 807 485 q 824 396 807 416 q 870 376 842 376 q 920 400 898 376 l 927 397 q 898 345 922 365 q 840 326 875 326 q 763 355 794 326 q 733 429 733 385 q 782 527 733 488 q 906 567 831 567 q 1041 522 986 567 q 1097 412 1097 477 q 963 254 1097 323 l 900 222 q 800 135 831 186 l 790 118 l 788 116 l 823 116 q 941 214 856 170 l 998 243 q 1130 402 1130 308 q 1059 530 1130 475 l 1061 533 q 1146 402 1146 495 q 1010 231 1146 297 l 953 204 q 846 120 869 162 l 844 116 l 958 116 q 1063 126 1036 116 q 1097 171 1089 137 l 1106 171 m 1152 143 l 1152 0 l 763 0 l 748 14 l 1136 14 l 1136 152 l 1152 143 m 1013 422 l 1010 428 q 916 491 980 491 q 870 475 888 491 q 853 435 853 459 q 880 386 853 403 l 880 381 q 838 436 838 390 q 859 487 838 467 q 916 507 881 507 q 985 482 958 507 q 1013 422 1013 458 m 962 372 l 960 366 q 856 288 935 288 q 771 336 798 288 q 850 300 811 300 q 947 379 931 300 l 962 372 "},"Æ":{"x_min":-23.1875,"x_max":1413.40625,"ha":1399,"o":"m 1289 926 q 1173 724 1209 823 q 1169 735 1170 731 q 1104 839 1137 815 q 993 864 1072 864 l 932 864 l 801 864 l 801 563 l 843 563 l 843 830 q 917 830 879 830 q 1072 816 1029 830 q 1141 760 1116 802 q 1131 766 1135 764 q 1049 803 1087 796 q 903 811 1011 811 l 861 811 l 861 563 l 996 563 l 1085 685 l 1085 373 l 990 501 l 801 501 l 801 115 l 843 115 l 843 465 l 990 465 l 1008 448 l 861 448 l 861 115 l 870 115 l 977 115 l 1032 115 q 1166 160 1121 124 q 1228 270 1211 196 q 1299 112 1261 168 l 1324 76 q 1338 55 1327 70 l 559 55 l 673 153 l 673 307 l 593 207 l 586 227 l 673 334 l 673 397 l 559 252 q 495 329 539 274 q 437 396 463 369 l 432 401 l 366 296 q 318 163 318 221 q 335 96 318 124 q 413 7 352 69 l 421 0 l 13 0 l 3 18 l 388 18 l 350 56 l -23 56 q 115 153 46 81 q 276 368 185 226 l 344 473 q 282 498 310 492 l 260 503 q 253 505 258 504 l 322 606 q 328 599 327 600 l 344 581 q 371 555 358 566 l 384 543 q 390 538 386 542 l 407 563 q 402 568 402 567 l 377 596 l 348 630 l 344 635 l 353 653 q 360 647 358 648 l 386 618 l 417 586 l 421 582 l 586 835 l 482 926 l 1289 926 m 419 411 q 390 439 406 426 l 330 348 q 263 178 263 247 q 342 68 263 106 q 300 157 300 106 q 367 332 300 231 l 419 411 m 674 763 l 503 508 l 599 401 l 674 486 l 674 763 m 674 860 l 430 498 l 560 356 l 587 387 l 480 507 l 674 797 l 674 860 m 1314 896 l 1320 882 q 1213 706 1264 818 l 1209 699 l 1199 710 q 1314 896 1245 827 m 1134 662 l 1134 344 l 1116 352 l 1116 671 l 1134 662 m 1413 58 l 1378 0 l 602 0 l 594 18 l 1370 18 l 1391 51 l 1387 56 q 1279 258 1300 167 l 1301 251 l 1303 246 l 1328 187 q 1372 110 1348 142 l 1407 66 q 1413 58 1408 64 "},"Ë":{"x_min":-0.421875,"x_max":875.96875,"ha":862,"o":"m 762 926 l 751 913 q 641 718 682 828 q 631 741 634 734 q 551 845 594 822 q 398 868 508 868 q 276 868 347 868 l 276 555 l 320 555 l 320 831 q 418 836 371 836 q 544 817 504 836 q 617 746 585 799 q 604 756 608 752 q 524 806 549 798 q 428 814 500 814 q 351 814 406 814 l 337 814 l 337 555 l 461 555 l 549 675 l 549 382 l 461 496 l 276 496 l 276 115 l 320 115 l 320 464 l 466 464 l 484 446 l 337 446 l 337 115 q 533 134 475 115 q 624 212 591 154 l 660 273 q 668 288 662 277 q 712 169 686 214 q 798 65 738 124 l 38 65 l 142 143 l 142 446 q 38 411 85 439 l 29 425 q 142 464 70 455 l 142 496 q 125 497 130 497 q 0 446 56 497 q 142 555 30 555 l 142 844 l 38 926 l 762 926 m 794 878 l 789 872 q 679 685 707 761 l 667 700 q 785 892 713 805 l 794 878 m 596 652 l 596 352 l 579 361 l 579 661 l 596 652 m 875 60 l 840 0 l 100 0 l 89 18 l 831 18 l 854 60 q 717 253 757 150 l 738 245 q 865 71 776 158 l 875 60 m 520 1197 q 566 1178 547 1197 q 585 1132 585 1159 q 566 1085 585 1104 q 520 1067 547 1067 q 473 1085 492 1067 q 455 1132 455 1104 q 473 1178 455 1159 q 520 1197 492 1197 m 605 1167 q 642 1100 642 1150 q 618 1039 642 1064 q 558 1015 594 1015 q 495 1047 519 1015 l 495 1051 q 550 1029 527 1029 q 606 1052 583 1029 q 630 1108 630 1075 q 605 1167 630 1134 m 370 1167 q 408 1100 408 1150 q 384 1039 408 1064 q 324 1015 360 1015 q 261 1047 284 1015 l 261 1051 q 316 1029 293 1029 q 372 1052 348 1029 q 396 1108 396 1075 q 370 1167 396 1134 m 285 1197 q 331 1178 312 1197 q 350 1132 350 1159 q 331 1085 350 1104 q 285 1067 312 1067 q 238 1085 257 1067 q 220 1132 220 1104 q 238 1178 220 1159 q 285 1197 257 1197 "},"'":{"x_min":56,"x_max":220.125,"ha":267,"o":"m 165 927 l 119 654 l 56 654 l 56 927 l 165 927 m 110 602 l 86 616 l 151 616 l 204 898 l 220 891 l 167 602 l 110 602 "},"Š":{"x_min":-13.390625,"x_max":757,"ha":771,"o":"m 665 918 q 608 819 629 870 q 553 694 567 717 l 550 690 q 546 702 547 697 q 515 786 527 763 q 478 832 502 810 q 337 887 416 887 q 217 846 265 887 q 169 745 169 806 q 340 590 169 631 l 455 562 q 700 303 700 503 q 616 116 700 192 q 408 41 532 41 q 235 64 331 41 l 156 84 q 77 96 108 96 q -7 69 36 96 l -13 79 q 104 320 70 205 l 116 317 q 202 151 131 210 q 388 93 273 93 q 533 135 479 93 q 587 248 587 177 q 512 383 587 330 q 292 454 458 421 q 106 537 164 479 q 49 700 49 596 q 125 874 49 807 q 326 941 202 941 q 511 912 405 941 q 584 899 561 899 q 657 922 618 899 l 665 918 m 706 889 l 700 879 q 653 790 673 833 q 599 678 606 690 l 596 674 l 580 680 l 582 687 q 639 803 602 731 l 685 893 l 689 899 l 706 889 m 508 754 q 348 834 434 834 q 262 804 296 834 q 229 728 229 774 q 297 625 229 678 l 303 621 l 299 616 q 210 732 210 656 q 248 818 210 785 q 347 852 286 852 q 449 827 405 852 q 513 757 493 802 l 508 754 m 665 485 q 757 294 757 415 q 656 74 757 164 q 412 -15 556 -15 q 279 0 339 -15 l 171 26 q 90 36 133 36 q 19 20 51 36 l 11 39 q 82 56 46 56 q 175 43 123 56 l 279 18 q 411 4 342 4 q 642 90 547 4 q 738 299 738 176 q 665 481 738 403 l 665 485 m 181 290 q 316 117 206 167 l 316 111 q 163 286 190 148 l 181 290 m 97 509 l 120 497 q 250 430 142 457 l 360 403 q 508 355 471 375 q 561 294 545 335 l 556 292 q 490 343 525 327 q 353 383 454 359 q 156 442 206 417 q 97 509 106 467 m 387 1120 l 455 1198 l 527 1198 l 413 1063 l 325 1063 l 208 1198 l 317 1198 l 387 1120 m 562 1153 l 445 1013 l 385 1013 l 371 1030 l 436 1030 l 549 1168 l 562 1153 "},"ª":{"x_min":33,"x_max":525,"ha":543,"o":"m 92 804 q 40 880 70 845 q 106 902 67 885 q 233 930 171 930 q 366 895 325 930 q 408 783 408 861 l 408 538 l 440 491 l 331 491 q 208 438 278 438 q 129 460 173 438 q 191 447 162 447 q 318 506 263 447 l 318 563 q 248 501 280 518 q 172 485 216 485 q 72 522 111 485 q 33 617 33 560 q 85 712 33 677 q 258 737 122 737 q 329 799 329 737 q 318 848 329 824 q 265 855 294 855 q 135 772 188 855 l 121 781 q 258 866 174 866 q 313 854 289 866 q 221 887 284 887 q 92 804 144 887 m 323 731 q 230 699 293 705 q 125 610 125 689 q 150 550 125 575 q 144 584 144 569 q 249 675 144 664 q 323 692 297 679 l 323 704 l 323 731 m 323 671 q 263 660 293 663 q 158 569 158 651 q 162 543 158 557 q 198 536 183 536 q 288 574 253 536 q 323 671 323 612 m 510 440 l 371 440 l 352 454 l 492 454 l 445 519 l 445 765 q 436 829 445 807 q 403 875 428 850 q 450 827 437 854 q 463 751 463 800 l 463 506 l 510 440 m 470 407 l 470 350 l 33 350 l 33 407 l 470 407 m 509 369 l 525 354 l 525 294 l 67 294 l 56 313 l 509 313 l 509 369 "},"Œ":{"x_min":33,"x_max":1337.4375,"ha":1323,"o":"m 513 0 l 509 0 q 425 -12 457 -12 q 217 66 315 -12 l 217 69 q 435 7 302 7 q 497 13 471 7 l 515 17 l 521 18 l 1292 18 l 1315 61 q 1178 253 1218 151 l 1199 245 q 1326 72 1237 159 l 1337 61 l 1302 0 l 513 0 m 553 771 q 423 815 479 815 q 245 464 245 815 q 355 124 245 207 l 349 115 q 253 241 282 163 q 224 454 224 320 q 421 832 224 832 q 553 771 511 832 m 530 56 l 526 53 q 433 41 490 41 q 141 161 249 41 q 33 485 33 281 q 134 810 33 689 q 408 931 236 931 q 505 920 457 931 l 1222 920 l 1211 907 q 1102 712 1142 821 q 1091 734 1095 727 q 1012 839 1055 816 q 859 862 969 862 l 759 862 l 737 862 l 737 555 l 781 555 l 781 827 q 879 827 833 827 q 1005 809 964 827 q 1077 739 1045 791 q 1064 750 1068 746 q 985 799 1009 791 q 889 808 960 808 q 812 808 863 808 l 798 808 l 798 555 l 922 555 l 1009 675 l 1009 382 l 922 496 l 737 496 l 737 115 l 781 115 l 781 464 l 928 464 l 945 446 l 798 446 l 798 115 q 994 134 936 115 q 1085 211 1051 154 l 1121 274 q 1129 288 1123 277 q 1173 163 1146 211 q 1259 56 1199 116 l 530 56 m 614 427 l 614 521 q 603 686 614 628 q 567 784 593 744 q 409 873 510 873 q 179 470 179 873 q 405 99 179 99 q 601 291 553 99 l 603 295 q 614 427 614 349 m 1255 878 l 1250 872 q 1140 685 1168 761 l 1128 700 q 1246 892 1174 805 l 1255 878 m 1056 652 l 1056 352 l 1039 361 l 1039 661 l 1056 652 "},"˛":{"x_min":206,"x_max":451.53125,"ha":694,"o":"m 416 12 q 323 -70 364 -19 q 282 -154 282 -121 q 311 -181 282 -181 q 401 -113 352 -181 l 410 -113 q 396 -215 396 -151 l 396 -221 q 291 -250 339 -250 q 231 -223 256 -250 q 206 -160 206 -197 q 327 12 206 -78 l 416 12 m 443 -34 l 435 -40 q 341 -148 363 -93 l 324 -154 q 438 -22 342 -87 l 443 -34 m 451 -157 l 438 -259 q 355 -282 397 -282 q 286 -264 317 -282 l 286 -259 q 343 -268 314 -268 q 424 -239 388 -268 l 438 -142 l 451 -157 "},"ð":{"x_min":12.484375,"x_max":807,"ha":839,"o":"m 47 926 l 327 926 q 642 819 539 926 q 746 494 746 713 q 643 162 746 269 q 325 55 540 55 l 27 55 l 121 126 l 121 446 l 68 446 l 61 463 l 121 463 l 121 494 l 36 494 l 12 556 l 121 556 l 121 850 l 47 926 m 254 867 l 254 556 l 292 556 l 292 823 q 359 829 317 829 q 506 777 449 829 q 353 810 429 810 q 309 807 332 810 l 309 556 l 416 556 l 438 494 l 254 494 l 254 107 l 292 107 l 292 463 l 483 463 l 456 534 l 475 526 l 506 446 l 309 446 l 309 107 q 327 107 323 107 q 530 209 468 107 q 597 496 597 319 q 529 776 597 675 q 282 867 467 867 l 254 867 m 663 838 q 807 492 807 745 q 690 121 807 242 q 333 0 573 0 l 70 0 l 59 18 l 328 18 q 677 133 565 18 q 790 491 790 249 q 762 687 790 613 q 663 838 735 761 "},"T":{"x_min":-32.4375,"x_max":827.34375,"ha":804,"o":"m 784 926 q 776 910 778 914 l 730 829 q 686 720 706 785 l 684 717 l 678 722 l 676 730 q 620 838 656 808 q 509 868 583 868 q 448 865 478 868 l 440 865 l 440 129 l 520 55 l 209 55 l 305 134 l 305 810 l 256 810 q 155 782 185 810 q 125 686 125 755 l 104 686 q 145 796 112 765 q 256 827 179 827 l 297 827 l 305 827 l 305 861 q 238 865 270 865 q 111 829 150 865 q 72 709 72 793 l 61 709 q -28 919 32 803 l -32 926 l 784 926 m 827 883 q 729 685 780 823 l 726 678 l 711 691 l 713 697 q 810 892 763 838 l 813 897 l 827 883 m 646 777 q 525 811 594 811 q 493 809 509 811 l 493 127 l 602 0 l 255 0 l 239 18 l 564 18 l 474 122 l 474 829 l 510 829 q 603 818 576 829 q 646 777 631 808 "},"š":{"x_min":-13.390625,"x_max":757,"ha":771,"o":"m 665 918 q 608 819 629 870 q 553 694 567 717 l 550 690 q 546 702 547 697 q 515 786 527 763 q 478 832 502 810 q 337 887 416 887 q 217 846 265 887 q 169 745 169 806 q 340 590 169 631 l 455 562 q 700 303 700 503 q 616 116 700 192 q 408 41 532 41 q 235 64 331 41 l 156 84 q 77 96 108 96 q -7 69 36 96 l -13 79 q 104 320 70 205 l 116 317 q 202 151 131 210 q 388 93 273 93 q 533 135 479 93 q 587 248 587 177 q 512 383 587 330 q 292 454 458 421 q 106 537 164 479 q 49 700 49 596 q 125 874 49 807 q 326 941 202 941 q 511 912 405 941 q 584 899 561 899 q 657 922 618 899 l 665 918 m 706 889 l 700 879 q 653 790 673 833 q 599 678 606 690 l 596 674 l 580 680 l 582 687 q 639 803 602 731 l 685 893 l 689 899 l 706 889 m 508 754 q 348 834 434 834 q 262 804 296 834 q 229 728 229 774 q 297 625 229 678 l 303 621 l 299 616 q 210 732 210 656 q 248 818 210 785 q 347 852 286 852 q 449 827 405 852 q 513 757 493 802 l 508 754 m 665 485 q 757 294 757 415 q 656 74 757 164 q 412 -15 556 -15 q 279 0 339 -15 l 171 26 q 90 36 133 36 q 19 20 51 36 l 11 39 q 82 56 46 56 q 175 43 123 56 l 279 18 q 411 4 342 4 q 642 90 547 4 q 738 299 738 176 q 665 481 738 403 l 665 485 m 181 290 q 316 117 206 167 l 316 111 q 163 286 190 148 l 181 290 m 97 509 l 120 497 q 250 430 142 457 l 360 403 q 508 355 471 375 q 561 294 545 335 l 556 292 q 490 343 525 327 q 353 383 454 359 q 156 442 206 417 q 97 509 106 467 m 387 1120 l 455 1198 l 527 1198 l 413 1063 l 325 1063 l 208 1198 l 317 1198 l 387 1120 m 562 1153 l 445 1013 l 385 1013 l 371 1030 l 436 1030 l 549 1168 l 562 1153 "},"Þ":{"x_min":5.234375,"x_max":790,"ha":804,"o":"m 378 926 l 287 833 l 287 741 l 323 741 l 323 825 l 399 901 l 410 887 l 342 819 l 342 741 l 371 741 q 632 687 554 741 q 732 500 732 620 q 694 374 732 427 q 588 296 656 320 q 371 273 519 273 l 287 273 l 287 130 l 367 55 l 54 55 l 149 134 l 149 222 q 137 222 140 222 q 43 201 88 222 l 37 213 q 119 239 83 239 l 143 239 l 149 240 l 149 273 q 127 275 133 275 q 12 240 54 275 l 5 250 q 138 326 47 326 l 149 326 l 149 841 l 54 926 l 378 926 m 287 672 l 287 330 l 296 330 l 314 330 q 323 331 316 330 l 323 634 l 397 634 q 506 618 474 634 q 561 555 538 603 q 505 604 539 590 q 411 618 471 618 l 342 618 l 342 331 q 524 370 466 331 q 582 493 582 409 q 530 629 582 587 q 364 672 479 672 q 287 672 333 672 m 698 668 q 764 596 739 647 q 790 480 790 545 q 682 268 790 333 q 400 220 598 220 q 342 220 365 220 l 342 126 l 448 0 l 108 0 l 90 18 l 409 18 l 323 118 l 323 237 q 442 237 378 237 q 693 297 612 237 q 774 487 774 358 q 757 578 774 540 q 698 668 741 617 "},"j":{"x_min":-27.921875,"x_max":675.78125,"ha":712,"o":"m 647 926 l 556 834 l 556 330 l 556 309 q 590 240 556 258 q 504 95 582 151 q 310 39 426 39 q 35 206 96 39 l 26 232 q 9 259 19 252 q -27 271 0 266 l 174 422 q 164 287 164 355 q 200 141 164 196 q 297 87 236 87 q 420 281 420 87 l 420 842 l 328 926 l 647 926 m 675 888 l 609 820 l 609 324 l 609 298 l 618 256 q 656 221 627 239 q 597 102 646 163 q 321 -20 499 -20 q 105 57 186 -20 l 105 63 q 200 10 155 24 q 311 -4 245 -4 q 522 58 429 -4 q 635 214 614 121 q 597 257 604 240 q 591 328 591 275 l 591 827 l 665 902 l 675 888 m 237 406 l 236 397 q 223 286 223 321 q 321 108 223 155 l 311 108 q 205 275 205 139 q 219 406 205 344 l 237 406 "},"1":{"x_min":155,"x_max":627.1875,"ha":833,"o":"m 465 913 l 465 126 l 548 55 l 255 55 l 342 126 l 342 723 q 262 703 302 703 q 166 754 200 703 l 171 754 q 261 720 212 720 q 342 743 306 720 l 342 786 q 234 752 295 752 q 177 767 200 752 q 155 807 155 783 q 186 841 155 841 q 215 815 215 841 q 213 806 215 811 q 212 801 212 803 q 230 791 212 791 q 319 825 275 791 q 384 913 362 860 l 465 913 m 499 900 l 518 892 l 518 126 l 627 0 l 279 0 l 264 18 l 587 18 l 499 120 l 499 900 "},"›":{"x_min":31.203125,"x_max":260.421875,"ha":287,"o":"m 205 453 l 94 269 l 31 269 l 104 465 l 31 646 l 94 646 l 205 453 m 260 442 l 130 219 l 61 219 l 53 239 l 118 239 l 239 442 l 132 629 l 164 605 l 260 442 "},"ä":{"x_min":0.265625,"x_max":1056.234375,"ha":1051,"o":"m 656 926 l 585 845 l 696 550 l 724 565 l 623 832 l 695 915 l 713 907 l 644 828 l 739 575 q 749 582 747 581 l 771 601 q 797 624 791 617 q 851 487 814 547 q 822 487 831 487 q 728 467 758 487 l 851 134 l 953 55 l 610 55 l 704 134 l 628 332 q 514 189 554 257 l 498 193 q 618 342 538 260 l 623 349 l 610 378 q 477 222 530 311 l 464 242 q 375 370 429 298 l 368 378 q 316 190 316 262 q 330 118 316 147 q 400 18 345 88 q 415 0 405 12 l 49 0 l 35 18 l 381 18 l 370 32 q 310 117 324 87 q 297 188 297 147 q 353 394 297 257 l 323 425 q 300 361 314 403 l 278 292 q 260 200 260 237 q 272 137 260 162 q 327 68 285 112 q 339 56 331 64 l 0 56 q 153 190 97 106 q 266 452 210 275 l 268 462 q 165 499 232 492 q 222 615 202 554 q 234 604 232 606 l 264 575 q 302 545 280 560 l 314 575 l 306 582 q 249 630 272 611 l 243 634 l 253 649 q 323 594 290 626 l 415 848 l 343 926 l 656 926 m 488 708 l 414 511 q 421 503 420 504 l 448 472 q 505 396 471 447 l 512 386 q 581 458 541 422 l 488 708 m 458 786 l 350 501 q 439 397 402 449 l 470 354 q 477 345 471 353 q 483 353 483 351 l 493 364 q 501 373 495 367 q 390 505 453 446 l 477 734 l 458 786 m 856 592 q 931 424 871 531 q 914 427 916 427 l 859 431 q 805 434 822 434 q 791 434 802 434 l 905 134 l 1056 0 l 663 0 l 650 18 l 1010 18 l 888 126 l 768 445 q 820 452 791 452 q 902 445 857 452 l 894 460 q 835 605 850 540 l 856 592 m 625 1197 q 671 1178 652 1197 q 690 1132 690 1159 q 671 1085 690 1104 q 625 1067 652 1067 q 578 1085 597 1067 q 560 1132 560 1104 q 578 1177 560 1158 q 625 1197 597 1197 m 709 1167 q 747 1100 747 1150 q 722 1039 747 1064 q 662 1015 698 1015 q 599 1047 622 1015 l 599 1051 q 654 1029 630 1029 q 711 1052 687 1029 q 735 1108 735 1075 q 709 1167 735 1134 m 475 1167 q 513 1100 513 1150 q 488 1039 513 1064 q 429 1015 464 1015 q 366 1047 389 1015 l 366 1051 q 420 1029 397 1029 q 477 1052 453 1029 q 501 1108 501 1075 q 475 1167 501 1134 m 389 1197 q 435 1178 416 1197 q 454 1132 454 1159 q 435 1085 454 1104 q 389 1067 416 1067 q 342 1085 361 1067 q 324 1132 324 1104 q 342 1178 324 1159 q 389 1197 361 1197 "},"<":{"x_min":58,"x_max":638,"ha":695,"o":"m 638 865 l 638 796 l 243 542 l 638 276 l 638 94 l 58 486 l 58 496 l 638 865 "},"£":{"x_min":-13,"x_max":852.3125,"ha":834,"o":"m 229 149 l 219 138 q 118 179 158 179 q 70 141 70 179 q 81 109 70 128 l 70 105 q 56 140 56 122 q 73 178 56 163 q 117 194 91 194 q 229 149 178 194 m 784 364 q 802 231 802 297 q 592 34 802 34 q 312 136 454 34 q 122 42 220 42 q 26 75 66 42 q -13 154 -13 108 q 36 249 -13 212 q 165 286 86 286 q 280 262 216 286 l 290 258 q 292 283 292 273 q 240 420 292 352 l 80 420 l 52 499 l 204 499 q 156 676 156 580 q 238 867 156 794 q 456 941 321 941 q 657 880 576 941 q 766 707 738 819 l 597 673 l 597 685 q 552 830 597 776 q 432 884 508 884 q 324 850 366 884 q 283 764 283 817 q 321 611 283 708 l 360 517 l 367 499 l 539 499 l 567 420 l 387 420 q 390 386 390 402 q 362 235 390 299 l 392 220 q 419 330 419 271 l 419 381 l 419 388 l 611 388 l 574 499 l 597 487 l 636 371 l 438 371 l 438 353 q 408 212 438 279 q 577 164 490 164 q 684 201 644 164 q 725 299 725 238 q 715 364 725 327 l 784 364 m 256 174 q 123 223 186 223 q 55 202 82 223 q 28 152 28 182 q 50 105 28 123 q 113 88 73 88 q 256 174 211 88 m 843 333 l 843 323 q 852 218 852 256 q 783 48 852 110 q 594 -14 713 -14 q 469 2 523 -14 q 325 65 414 18 l 316 70 q 135 -7 225 -7 q 1 83 41 -7 l 4 83 q 141 9 60 9 q 232 33 184 9 q 311 94 280 57 q 596 4 464 4 q 771 62 709 4 q 834 225 834 120 q 823 342 834 275 l 843 333 m 96 371 l 90 388 l 250 388 l 255 371 l 96 371 m 571 774 q 439 837 513 837 q 341 751 341 837 q 372 628 341 705 q 414 517 404 546 l 402 513 q 323 754 323 693 q 354 826 323 799 q 437 854 386 854 q 575 774 540 854 l 571 774 m 613 627 l 613 643 l 801 681 q 658 894 787 797 q 755 817 705 877 q 822 667 802 762 l 613 627 "},"¹":{"x_min":106,"x_max":415.28125,"ha":509,"o":"m 295 926 l 295 470 l 336 425 l 167 425 l 220 470 l 220 804 q 171 793 195 793 q 115 830 141 793 l 120 828 l 145 812 q 171 808 152 808 q 220 820 192 808 l 220 853 q 154 833 192 833 q 106 866 106 833 q 125 887 106 887 q 142 873 142 887 q 142 867 142 870 l 141 863 l 146 858 q 152 857 148 857 q 206 876 179 857 q 246 926 233 896 l 295 926 m 324 910 l 340 902 l 340 455 l 415 370 l 190 370 l 182 384 l 387 384 l 324 455 l 324 910 "},"t":{"x_min":-32.4375,"x_max":827.34375,"ha":804,"o":"m 784 926 q 776 910 778 914 l 730 829 q 686 720 706 785 l 684 717 l 678 722 l 676 730 q 620 838 656 808 q 509 868 583 868 q 448 865 478 868 l 440 865 l 440 129 l 520 55 l 209 55 l 305 134 l 305 810 l 256 810 q 155 782 185 810 q 125 686 125 755 l 104 686 q 145 796 112 765 q 256 827 179 827 l 297 827 l 305 827 l 305 861 q 238 865 270 865 q 111 829 150 865 q 72 709 72 793 l 61 709 q -28 919 32 803 l -32 926 l 784 926 m 827 883 q 729 685 780 823 l 726 678 l 711 691 l 713 697 q 810 892 763 838 l 813 897 l 827 883 m 646 777 q 525 811 594 811 q 493 809 509 811 l 493 127 l 602 0 l 255 0 l 239 18 l 564 18 l 474 122 l 474 829 l 510 829 q 603 818 576 829 q 646 777 631 808 "},"¬":{"x_min":45.046875,"x_max":648,"ha":694,"o":"m 475 0 l 475 296 l 45 296 l 45 371 l 648 371 l 648 0 l 475 0 "},"ù":{"x_min":22.78125,"x_max":829.234375,"ha":843,"o":"m 806 925 l 685 828 l 685 390 q 677 216 685 269 q 646 129 669 163 q 419 43 587 43 q 171 129 241 43 q 115 392 115 198 l 115 842 l 22 925 l 342 925 l 251 835 l 251 391 l 251 286 q 293 143 251 185 q 436 101 335 101 q 588 165 546 101 q 622 389 622 217 l 622 828 l 517 925 l 806 925 m 829 879 l 737 802 l 737 381 q 704 111 737 174 q 444 -16 638 -16 q 193 67 277 -16 l 198 64 l 222 51 q 437 2 306 2 q 685 120 624 2 q 718 376 718 183 l 718 810 l 819 893 l 829 879 m 371 888 l 304 821 l 304 317 l 304 270 l 325 184 q 384 122 340 158 l 385 115 q 306 183 328 139 q 285 319 285 227 l 285 828 l 361 902 l 371 888 m 378 1194 l 471 1065 l 392 1065 l 236 1194 l 378 1194 m 562 1019 l 448 1019 l 429 1036 l 524 1036 l 439 1153 l 467 1147 l 562 1019 "},"W":{"x_min":-41.71875,"x_max":1213.578125,"ha":1097,"o":"m 1172 1158 q 1030 951 1078 1054 q 917 610 983 848 l 800 183 l 814 130 l 897 56 l 588 56 l 677 130 l 557 565 l 440 140 l 557 0 l 210 0 l 197 18 l 519 18 l 418 136 l 546 599 l 523 680 l 384 172 l 395 130 l 475 56 l 165 56 l 257 130 l 60 840 l -41 926 l 289 926 l 197 840 l 352 281 l 376 363 l 245 830 l 306 885 l 322 874 l 266 824 l 384 397 l 529 926 l 593 926 l 770 287 l 791 363 l 635 926 l 654 926 l 800 397 l 864 626 q 924 907 924 842 q 856 1021 924 980 q 1026 1090 935 1046 q 1162 1168 1117 1133 l 1172 1158 m 1213 1107 q 1079 905 1132 1017 q 972 590 1027 792 l 852 152 l 982 0 l 634 0 l 618 18 l 940 18 l 831 145 l 955 599 q 1062 910 1011 801 q 1197 1118 1113 1019 l 1213 1107 "},"ï":{"x_min":10,"x_max":424.484375,"ha":425,"o":"m 27 926 l 349 926 l 258 833 l 258 127 l 343 56 l 27 56 l 122 133 l 122 841 l 27 926 m 379 887 l 310 818 l 310 127 l 424 0 l 71 0 l 54 18 l 384 18 l 291 121 l 291 824 l 368 900 l 379 887 m 293 1197 q 339 1178 320 1197 q 358 1132 358 1159 q 339 1085 358 1104 q 293 1067 320 1067 q 246 1085 265 1067 q 228 1132 228 1104 q 246 1178 228 1159 q 293 1197 265 1197 m 377 1167 q 415 1100 415 1150 q 390 1039 415 1064 q 330 1015 366 1015 q 266 1047 290 1015 l 266 1051 q 321 1029 298 1029 q 379 1052 355 1029 q 403 1108 403 1075 q 377 1167 403 1134 m 161 1167 q 199 1100 199 1150 q 174 1039 199 1064 q 114 1015 150 1015 q 51 1047 74 1015 l 51 1051 q 106 1029 83 1029 q 163 1052 139 1029 q 187 1108 187 1075 q 161 1167 187 1134 m 75 1197 q 121 1178 102 1197 q 140 1132 140 1159 q 121 1085 140 1104 q 75 1067 102 1067 q 28 1085 47 1067 q 10 1132 10 1104 q 28 1178 10 1159 q 75 1197 47 1197 "},">":{"x_min":58,"x_max":638,"ha":695,"o":"m 58 94 l 58 163 l 452 417 l 58 683 l 58 865 l 638 473 l 638 462 l 58 94 "},"v":{"x_min":-33,"x_max":975.4375,"ha":861,"o":"m 932 1140 l 940 1132 q 795 949 851 1047 q 660 644 738 852 l 462 126 l 542 56 l 230 56 l 319 129 l 71 836 l -33 926 l 303 926 l 207 830 l 431 193 l 457 256 l 257 820 l 327 889 l 339 876 l 278 816 l 466 280 l 610 664 q 675 903 675 835 q 624 1022 675 972 l 637 1025 q 932 1140 834 1063 m 969 1099 l 975 1083 q 708 622 845 982 l 516 123 l 622 0 l 272 0 l 257 18 l 582 18 l 497 119 l 691 626 l 728 723 q 843 951 777 848 q 969 1099 910 1054 "},"û":{"x_min":22.78125,"x_max":829.234375,"ha":843,"o":"m 806 925 l 685 828 l 685 390 q 677 216 685 269 q 646 129 669 163 q 419 43 587 43 q 171 129 241 43 q 115 392 115 198 l 115 842 l 22 925 l 342 925 l 251 835 l 251 391 l 251 286 q 293 143 251 185 q 436 101 335 101 q 588 165 546 101 q 622 389 622 217 l 622 828 l 517 925 l 806 925 m 829 879 l 737 802 l 737 381 q 704 111 737 174 q 444 -16 638 -16 q 193 67 277 -16 l 198 64 l 222 51 q 437 2 306 2 q 685 120 624 2 q 718 376 718 183 l 718 810 l 819 893 l 829 879 m 371 888 l 304 821 l 304 317 l 304 270 l 325 184 q 384 122 340 158 l 385 115 q 306 183 328 139 q 285 319 285 227 l 285 828 l 361 902 l 371 888 m 438 1110 l 357 1016 l 297 1016 l 285 1030 l 350 1030 l 429 1121 l 412 1141 l 343 1063 l 271 1063 l 386 1198 l 473 1198 l 590 1063 l 481 1063 l 438 1110 m 682 1016 l 525 1016 l 513 1030 l 648 1030 l 530 1166 l 556 1161 l 682 1016 "},"Ò":{"x_min":33,"x_max":834.3125,"ha":867,"o":"m 553 774 l 542 781 q 423 817 477 817 q 245 466 245 817 q 355 126 245 210 l 349 120 q 252 246 281 168 q 224 458 224 324 q 421 835 224 835 q 553 774 511 835 m 408 935 q 672 810 573 935 q 771 476 771 685 q 673 161 771 278 q 412 44 576 44 q 181 126 282 44 q 33 488 33 248 q 134 814 33 693 q 408 935 236 935 m 408 877 q 179 473 179 877 q 404 101 179 101 q 565 199 510 101 q 620 488 620 298 q 567 788 620 703 q 408 877 511 877 m 625 900 q 778 740 721 853 q 834 478 834 627 q 723 125 834 259 q 432 -9 612 -9 q 217 69 317 -9 l 217 72 q 427 11 301 11 q 706 139 597 11 q 816 466 816 267 q 766 726 816 615 q 625 893 716 837 l 625 900 m 353 1195 l 447 1065 l 368 1065 l 212 1195 l 353 1195 m 537 1019 l 423 1019 l 404 1036 l 498 1036 l 414 1154 l 443 1147 l 537 1019 "},"&":{"x_min":92,"x_max":1011.109375,"ha":1113,"o":"m 380 629 q 362 754 362 696 q 407 900 362 845 q 527 955 452 955 q 645 909 596 955 q 694 800 694 864 q 508 612 694 670 q 659 313 580 428 q 676 364 670 336 q 560 586 606 472 l 570 590 q 732 788 732 656 q 700 889 732 836 l 694 897 q 748 778 748 850 q 584 574 748 649 q 680 387 632 461 q 683 452 683 420 q 676 534 683 502 l 683 530 q 854 431 774 460 q 709 235 773 349 q 863 124 788 124 q 912 140 892 124 l 924 151 q 942 159 934 159 q 965 139 965 159 q 920 83 965 111 q 831 55 875 55 q 684 106 763 55 q 435 1 587 1 q 195 92 295 1 l 200 98 q 435 19 308 19 q 668 118 577 19 q 642 137 654 127 q 420 62 544 62 q 183 140 275 62 q 92 341 92 218 q 157 513 92 445 q 368 626 223 581 l 380 629 m 416 520 q 294 324 294 452 q 329 205 294 254 q 429 136 364 156 l 429 127 q 318 190 361 137 q 276 317 276 243 q 408 538 276 458 l 405 547 q 396 570 400 558 q 275 473 318 539 q 232 324 232 408 q 286 175 232 235 q 424 116 341 116 q 591 195 516 116 q 416 520 503 316 m 541 686 q 615 803 615 724 q 589 874 615 846 q 526 903 564 903 q 450 814 450 903 q 490 663 450 743 q 497 667 495 666 l 514 674 q 524 678 516 674 q 491 803 491 756 q 545 871 491 871 q 591 848 566 871 l 586 841 l 581 845 q 547 856 562 856 q 505 800 505 856 q 541 686 505 752 m 890 383 q 782 243 812 302 l 780 237 l 785 231 q 891 165 843 165 q 916 169 901 165 l 916 163 q 879 153 898 153 q 764 237 816 153 q 877 393 813 329 l 890 383 m 1011 105 q 956 31 996 61 q 871 2 916 2 q 764 39 808 2 l 764 44 q 856 19 808 19 q 991 106 941 19 l 994 111 l 1011 105 "},"˝":{"x_min":173.609375,"x_max":632.734375,"ha":694,"o":"m 399 1196 l 245 1062 l 173 1062 l 261 1196 l 399 1196 m 208 1005 l 190 1024 l 273 1024 l 322 1065 l 336 1049 l 284 1005 l 208 1005 m 588 1196 l 434 1062 l 362 1062 l 450 1196 l 588 1196 m 397 1005 l 379 1024 l 463 1024 l 618 1158 l 632 1142 l 474 1005 l 397 1005 "},"Ð":{"x_min":12.484375,"x_max":807,"ha":839,"o":"m 47 926 l 327 926 q 642 819 539 926 q 746 494 746 713 q 643 162 746 269 q 325 55 540 55 l 27 55 l 121 126 l 121 446 l 68 446 l 61 463 l 121 463 l 121 494 l 36 494 l 12 556 l 121 556 l 121 850 l 47 926 m 254 867 l 254 556 l 292 556 l 292 823 q 359 829 317 829 q 506 777 449 829 q 353 810 429 810 q 309 807 332 810 l 309 556 l 416 556 l 438 494 l 254 494 l 254 107 l 292 107 l 292 463 l 483 463 l 456 534 l 475 526 l 506 446 l 309 446 l 309 107 q 327 107 323 107 q 530 209 468 107 q 597 496 597 319 q 529 776 597 675 q 282 867 467 867 l 254 867 m 663 838 q 807 492 807 745 q 690 121 807 242 q 333 0 573 0 l 70 0 l 59 18 l 328 18 q 677 133 565 18 q 790 491 790 249 q 762 687 790 613 q 663 838 735 761 "},"I":{"x_min":27.734375,"x_max":424.9375,"ha":425,"o":"m 27 926 l 349 926 l 258 833 l 258 127 l 344 56 l 27 56 l 122 133 l 122 841 l 27 926 m 380 887 l 311 818 l 311 127 l 424 0 l 71 0 l 54 18 l 384 18 l 292 121 l 292 824 l 368 900 l 380 887 "},"ˉ":{"x_min":66,"x_max":627,"ha":694,"o":"m 573 1151 l 573 1084 l 66 1084 l 66 1151 l 573 1151 m 611 1113 l 627 1097 l 627 1029 l 100 1029 l 89 1048 l 611 1048 l 611 1113 "},"G":{"x_min":33,"x_max":919.578125,"ha":947,"o":"m 795 902 l 668 652 q 601 815 656 759 q 457 872 547 872 q 258 772 329 872 q 188 495 188 673 q 509 103 188 103 l 619 103 l 619 455 l 448 455 q 368 461 392 455 q 322 487 344 467 l 322 504 q 371 480 346 486 q 450 475 395 475 l 619 475 l 619 511 l 430 511 l 400 511 q 299 584 299 511 q 316 632 299 612 q 356 653 333 653 q 387 640 374 653 q 401 609 401 627 q 378 575 401 579 l 362 571 q 354 564 354 569 q 376 556 354 556 l 400 556 l 847 556 l 754 465 l 754 130 l 840 56 l 494 56 l 425 56 q 282 77 339 56 q 169 151 226 98 q 33 486 33 276 q 161 823 33 702 q 429 930 274 930 q 587 905 498 930 q 708 881 679 881 q 795 902 751 881 m 836 860 l 720 631 l 703 638 l 820 868 l 836 860 m 619 756 l 606 765 q 465 821 529 821 q 332 765 388 821 q 273 659 291 725 q 255 485 255 593 q 282 275 255 348 q 382 145 309 203 l 382 137 q 268 269 303 184 q 234 500 234 354 q 294 750 234 661 q 464 840 354 840 q 619 760 559 840 l 619 756 m 876 517 l 807 448 l 807 130 l 919 1 l 650 1 l 406 1 q 370 2 382 1 q 284 38 327 6 l 299 38 q 425 18 345 18 l 459 18 l 881 18 l 788 122 l 788 455 l 866 533 l 876 517 "},"`":{"x_min":126.140625,"x_max":450.984375,"ha":694,"o":"m 267 1195 l 360 1065 l 281 1065 l 126 1195 l 267 1195 m 450 1019 l 337 1019 l 318 1036 l 412 1036 l 327 1153 l 356 1147 l 450 1019 "},"r":{"x_min":23.53125,"x_max":915.09375,"ha":883,"o":"m 60 844 q 405 938 220 938 q 642 875 549 938 q 736 716 736 813 q 674 577 736 638 q 508 489 613 516 q 635 238 554 360 q 796 51 715 116 l 786 47 q 587 -50 685 12 l 577 -56 l 574 -35 q 453 410 531 227 l 450 417 q 325 382 403 395 l 320 381 l 320 127 l 439 0 l 88 0 l 77 18 l 400 18 l 302 123 l 302 396 l 316 398 q 445 429 393 406 q 441 439 441 437 l 434 459 q 430 467 433 461 q 272 440 389 454 l 265 439 l 265 136 l 342 56 l 42 56 l 131 136 l 131 364 l 125 364 q 54 344 85 355 l 48 342 l 42 355 q 89 371 72 367 l 125 380 l 131 381 l 131 417 q 30 399 90 417 l 23 396 q 37 440 24 406 q 46 471 38 443 q 48 476 47 472 q 96 476 79 476 q 130 477 114 476 l 130 810 q 65 842 98 829 l 60 844 m 265 862 l 265 497 q 302 500 284 497 l 302 833 q 391 844 339 844 q 571 756 523 844 q 483 812 520 797 q 392 828 445 828 q 320 819 351 828 l 320 500 l 327 501 q 525 578 460 526 q 590 715 590 631 q 531 839 590 790 q 384 889 473 889 q 265 862 313 889 m 592 455 q 743 182 634 315 q 915 31 811 98 q 623 -94 759 -9 l 617 -98 l 603 -87 q 879 37 733 -2 q 572 454 684 168 l 568 465 q 776 705 776 544 q 722 850 776 771 q 791 692 791 788 q 592 455 791 536 "},"¿":{"x_min":23,"x_max":589,"ha":603,"o":"m 389 532 q 437 431 437 494 q 401 299 437 368 q 293 168 381 261 l 265 138 q 214 35 214 83 q 241 -57 214 -4 l 217 -37 q 196 34 196 -2 q 214 104 196 73 q 280 183 232 136 q 389 318 358 260 q 421 445 421 376 q 369 536 421 507 l 373 543 q 403 618 403 591 q 375 688 403 647 l 381 693 q 420 617 420 657 q 389 532 420 586 m 477 182 q 527 55 527 121 q 458 -84 527 -30 q 282 -139 390 -139 q 97 -78 171 -139 q 23 71 23 -18 q 54 182 23 134 q 160 280 85 229 l 232 328 q 296 390 268 352 q 319 450 324 428 l 319 488 q 325 505 319 497 q 341 511 332 511 q 369 489 357 511 q 382 439 382 467 q 279 241 382 346 q 187 131 210 171 q 164 43 164 91 q 197 -49 164 -13 q 286 -85 231 -85 q 368 -55 334 -85 q 402 15 402 -25 q 346 92 402 60 q 353 97 352 96 l 390 118 q 477 182 429 140 m 270 722 q 333 696 307 722 q 359 634 359 670 q 333 571 359 597 q 270 546 307 546 q 208 571 234 546 q 183 634 183 597 q 208 696 183 670 q 270 722 234 722 m 304 491 q 216 531 245 497 l 220 536 q 300 512 258 512 l 304 491 m 529 179 q 589 40 589 126 q 503 -126 589 -57 q 297 -195 418 -195 q 50 -85 145 -195 l 54 -76 q 290 -176 156 -176 q 490 -111 410 -176 q 570 50 570 -47 q 559 108 570 85 l 531 172 l 529 179 "},"ý":{"x_min":-32.703125,"x_max":1006,"ha":891,"o":"m 975 1164 l 979 1159 l 972 1151 q 772 895 851 1025 q 729 824 742 845 l 477 421 l 477 146 l 575 56 l 245 56 l 343 146 l 343 421 l 180 671 l 144 728 q 65 837 96 803 q -25 919 35 872 l -32 926 l 309 926 l 225 838 l 451 498 l 472 532 l 271 838 l 343 906 l 357 895 l 295 838 l 483 548 l 635 788 q 701 944 701 892 q 643 1043 701 987 q 967 1160 840 1090 l 975 1164 m 1006 1123 l 1006 1095 l 999 1089 q 901 980 942 1034 q 779 798 860 926 l 534 412 l 534 146 l 654 0 l 230 0 l 222 18 l 619 18 l 516 146 l 516 416 l 766 811 l 805 873 q 1006 1123 910 1041 m 636 1196 l 470 1062 l 399 1062 l 498 1196 l 636 1196 m 428 1005 l 413 1024 l 496 1024 l 663 1159 l 675 1142 l 505 1005 l 428 1005 "},"x":{"x_min":-32.546875,"x_max":964.359375,"ha":969,"o":"m 864 926 l 715 828 l 498 552 l 746 144 l 864 56 l 514 56 l 600 139 l 446 391 l 254 144 l 366 0 l -4 0 l -14 18 l 330 18 l 233 144 l 436 408 l 417 438 l 195 157 l 278 56 l -32 56 l 126 157 l 388 489 l 177 835 l 48 926 l 406 926 l 317 848 l 468 601 l 493 633 l 366 835 l 441 907 l 453 895 l 388 835 l 503 646 l 651 835 l 566 926 l 864 926 m 889 874 l 756 796 l 564 547 l 798 161 l 964 0 l 543 0 l 531 18 l 920 18 l 783 152 l 543 547 l 744 808 l 878 888 l 889 874 "},"è":{"x_min":-0.421875,"x_max":876.765625,"ha":863,"o":"m 762 926 l 751 913 q 642 718 682 828 q 631 741 635 734 q 551 845 594 822 q 398 868 509 868 q 276 868 347 868 l 276 555 l 320 555 l 320 831 q 418 836 371 836 q 545 817 504 836 q 617 746 585 799 q 604 756 608 752 q 524 806 549 798 q 428 814 500 814 q 351 814 406 814 l 337 814 l 337 555 l 461 555 l 549 675 l 549 382 l 461 496 l 276 496 l 276 115 l 320 115 l 320 464 l 467 464 l 484 446 l 337 446 l 337 115 q 533 134 475 115 q 625 212 591 154 l 661 273 q 669 288 663 277 q 712 169 686 214 q 799 65 739 124 l 38 65 l 142 143 l 142 446 q 38 411 85 439 l 29 425 q 142 464 70 455 l 142 496 q 125 497 130 497 q 0 446 56 497 q 142 555 30 555 l 142 844 l 38 926 l 762 926 m 795 878 l 790 872 q 680 685 707 761 l 668 700 q 785 892 714 805 l 795 878 m 596 652 l 596 352 l 579 361 l 579 661 l 596 652 m 876 60 l 841 0 l 100 0 l 89 18 l 832 18 l 855 60 q 718 253 758 150 l 739 245 q 865 71 777 158 l 876 60 m 304 1195 l 398 1065 l 319 1065 l 164 1195 l 304 1195 m 488 1019 l 374 1019 l 355 1036 l 450 1036 l 365 1153 l 394 1147 l 488 1019 "},"º":{"x_min":33,"x_max":534,"ha":562,"o":"m 260 930 q 419 867 360 930 q 479 698 479 804 q 419 543 479 601 q 262 485 360 485 q 97 547 161 485 q 33 706 33 609 q 94 869 33 809 q 260 930 156 930 m 194 543 q 258 528 225 528 q 379 714 379 528 q 358 831 379 786 q 302 846 328 846 q 172 659 172 846 q 194 543 172 589 m 186 549 q 158 673 158 597 q 288 860 158 860 q 355 838 325 860 q 260 887 320 887 q 130 700 130 887 q 186 549 130 588 m 116 491 l 121 496 q 263 449 180 449 q 445 516 375 449 q 516 693 516 584 q 500 792 516 745 q 462 853 484 839 l 457 855 l 462 860 q 530 686 530 800 q 460 503 530 572 q 276 435 391 435 q 116 491 183 435 m 480 407 l 480 350 l 43 350 l 43 407 l 480 407 m 518 369 l 534 354 l 534 294 l 77 294 l 65 313 l 518 313 l 518 369 "},"Ø":{"x_min":32,"x_max":836,"ha":869,"o":"m 687 935 l 636 846 q 733 692 695 796 q 771 475 771 588 q 674 162 771 280 q 417 44 577 44 q 201 113 296 44 l 158 43 l 93 43 l 158 149 q 32 494 32 272 q 135 813 32 690 q 404 936 238 936 q 592 882 512 936 l 622 935 l 687 935 m 603 681 l 306 183 q 356 127 327 150 l 350 120 q 285 183 308 148 l 597 711 q 582 757 592 730 l 243 183 q 408 101 301 101 q 566 198 512 101 q 620 484 620 295 q 603 681 620 593 m 533 784 q 429 819 492 819 q 244 466 244 819 q 256 314 244 375 l 533 784 m 551 811 q 405 878 497 878 q 181 478 181 878 q 213 242 181 314 l 241 289 l 239 299 q 224 465 224 390 q 423 836 224 836 q 539 792 486 836 l 551 811 m 724 921 l 736 906 l 700 846 q 836 470 836 712 q 722 125 836 259 q 430 -8 609 -8 q 230 57 327 -8 l 188 -16 l 59 -16 l 70 3 l 177 3 l 218 72 q 423 11 332 11 q 708 139 599 11 q 818 475 818 268 q 781 689 818 591 q 679 846 744 787 l 724 921 "},"∞":{"x_min":4,"x_max":922,"ha":926,"o":"m 422 376 q 321 258 366 291 q 213 226 275 226 q 65 292 126 226 q 4 453 4 358 q 71 640 4 565 q 239 716 138 716 q 476 549 372 716 q 490 572 485 565 q 586 686 542 656 q 699 717 630 717 q 857 645 793 717 q 922 467 922 573 q 848 283 922 357 q 667 209 775 209 q 535 253 599 209 q 422 376 470 297 m 500 514 q 622 366 563 411 q 747 321 680 321 q 844 363 805 321 q 884 466 884 405 q 833 572 884 534 q 693 610 782 610 q 500 514 562 610 m 392 418 q 279 562 327 522 q 171 602 231 602 q 77 562 113 602 q 41 461 41 523 q 87 365 41 400 q 216 330 134 330 q 317 350 277 330 q 392 418 357 370 "},"÷":{"x_min":104,"x_max":712,"ha":816,"o":"m 657 538 l 657 453 l 104 453 l 104 538 l 657 538 m 696 500 l 712 485 l 712 397 l 139 397 l 127 416 l 696 416 l 696 500 m 377 772 q 427 751 406 772 q 448 701 448 730 q 427 651 448 672 q 377 631 406 631 q 327 651 348 631 q 307 701 307 672 q 327 751 307 730 q 377 772 348 772 m 465 745 q 501 676 501 718 q 472 609 501 638 q 404 581 443 581 q 333 615 360 581 l 336 619 q 400 600 372 600 q 458 623 434 600 q 483 679 483 646 q 461 741 483 710 l 465 745 m 377 361 q 427 340 406 361 q 448 290 448 319 q 427 240 448 261 q 377 220 406 220 q 327 240 348 220 q 307 290 307 261 q 327 340 307 319 q 377 361 348 361 m 465 335 q 501 265 501 307 q 472 198 501 227 q 404 170 443 170 q 333 205 360 170 l 336 209 q 400 189 372 189 q 458 212 434 189 q 483 268 483 235 q 461 330 483 299 l 465 335 "},"h":{"x_min":4.796875,"x_max":872.578125,"ha":873,"o":"m 44 926 l 363 926 l 271 835 l 271 542 q 307 538 286 538 l 307 828 l 381 902 l 394 890 l 325 820 l 325 537 l 347 535 q 448 531 399 531 q 570 537 519 531 l 570 849 l 487 926 l 800 926 l 707 835 l 707 128 l 789 55 l 477 55 l 570 134 l 570 422 q 452 409 512 409 q 334 415 395 409 l 325 415 l 325 128 l 436 0 l 86 0 l 68 18 l 399 18 l 307 119 l 307 427 l 327 427 q 456 427 416 427 q 570 441 521 427 l 570 464 q 421 456 506 456 q 354 457 375 456 l 286 463 q 271 464 282 464 l 271 128 l 357 55 l 44 55 l 135 134 l 135 432 q 44 386 78 432 l 29 393 q 135 446 69 446 l 135 473 q 14 415 59 473 l 4 422 q 135 537 44 520 l 135 843 l 44 926 m 829 887 l 760 820 l 760 128 l 872 0 l 520 0 l 503 18 l 833 18 l 743 120 l 743 827 l 818 902 l 829 887 "},".":{"x_min":67,"x_max":303,"ha":370,"o":"m 154 222 q 217 196 191 222 q 243 133 243 170 q 217 71 243 97 q 154 46 191 46 q 92 71 118 46 q 67 133 67 97 q 92 196 67 170 q 154 222 118 222 m 266 193 q 303 106 303 158 q 268 25 303 60 q 189 -9 234 -9 q 100 31 134 -9 l 105 36 q 183 11 148 11 q 256 40 226 11 q 287 110 287 69 q 259 188 287 149 l 266 193 "},";":{"x_min":23,"x_max":300,"ha":364,"o":"m 208 206 q 229 113 229 158 q 28 -120 229 -55 l 23 -111 l 29 -105 q 99 34 99 -47 q 63 135 99 92 q 76 140 71 138 q 208 206 150 167 m 276 185 q 287 110 287 143 q 63 -167 287 -81 l 54 -148 l 65 -144 q 224 -32 180 -99 q 269 105 269 35 q 257 194 269 140 l 276 185 m 151 721 q 213 695 187 721 q 239 632 239 669 q 213 570 239 596 q 151 545 187 545 q 88 570 114 545 q 63 632 63 596 q 88 695 63 669 q 151 721 114 721 m 261 693 q 300 606 300 657 q 265 525 300 560 q 184 491 231 491 q 95 531 129 491 l 100 536 q 180 511 143 511 q 253 540 222 511 q 284 609 284 569 q 256 687 284 648 l 261 693 "},"f":{"x_min":-0.28125,"x_max":798.546875,"ha":766,"o":"m 42 926 l 747 926 q 686 838 704 870 q 641 736 669 807 l 635 722 q 547 842 591 815 q 399 869 503 869 l 360 869 l 294 869 l 270 869 l 270 552 l 311 552 l 311 834 l 330 834 q 420 834 372 834 q 593 763 559 834 q 521 805 560 795 q 400 816 482 816 q 328 816 371 816 l 328 552 l 430 552 l 538 666 l 538 382 l 424 495 l 270 495 l 270 153 l 356 65 l 23 65 l 134 153 l 134 445 q 42 405 81 445 l 29 419 q 134 463 68 463 l 134 495 q 113 496 119 496 q 4 445 50 496 l 0 455 q 134 548 30 548 l 134 838 l 42 926 m 798 884 q 676 677 701 771 l 662 686 q 786 896 688 793 l 798 884 m 589 643 l 589 349 l 571 360 l 571 653 l 589 643 m 467 438 l 328 438 l 328 147 l 447 0 l 54 0 l 37 18 l 409 18 l 311 139 l 311 456 l 447 456 l 467 438 "},"“":{"x_min":23,"x_max":548.125,"ha":575,"o":"m 111 578 l 98 592 q 209 647 154 629 l 222 651 l 220 651 q 171 761 171 702 q 257 893 171 823 l 264 898 l 278 884 l 271 879 q 193 762 193 816 q 255 645 193 705 q 111 578 178 620 m 43 604 q 23 698 23 652 q 223 931 23 867 l 228 922 l 222 915 q 153 776 153 857 q 188 675 153 718 q 175 670 179 672 q 43 604 99 643 m 379 578 l 366 592 q 478 647 422 629 l 491 651 l 489 651 q 440 761 440 702 q 527 893 440 823 l 533 898 l 548 884 l 540 879 q 462 762 462 816 q 524 645 462 706 q 379 578 448 620 m 311 604 q 291 698 291 652 q 492 931 291 867 l 497 922 l 491 915 q 421 776 421 857 q 457 675 421 718 q 444 670 448 672 q 311 604 367 643 "},"A":{"x_min":0.265625,"x_max":1056.5625,"ha":1052,"o":"m 656 926 l 585 845 l 697 550 l 724 565 l 623 832 l 695 915 l 713 907 l 644 828 l 739 575 q 749 582 748 581 l 771 601 q 797 624 792 617 q 851 487 815 547 q 823 487 832 487 q 729 467 758 487 l 851 134 l 953 55 l 611 55 l 704 134 l 629 332 q 514 189 554 257 l 499 193 q 618 342 539 260 l 623 349 l 611 378 q 477 222 530 311 l 465 242 q 375 370 429 298 l 368 378 q 316 190 316 262 q 330 118 316 147 q 400 18 345 88 q 415 0 405 12 l 49 0 l 35 18 l 381 18 l 369 32 q 310 117 324 87 q 297 188 297 147 q 353 394 297 257 l 323 425 q 300 361 314 403 l 278 292 q 260 200 260 237 q 272 137 260 162 q 327 68 285 112 q 339 56 331 64 l 0 56 q 153 190 97 106 q 266 452 210 275 l 268 462 q 165 499 232 492 q 222 615 202 554 q 234 604 232 606 l 264 575 q 302 545 280 560 l 314 575 l 306 582 q 249 630 272 611 l 243 634 l 253 649 q 323 594 290 626 l 415 848 l 343 926 l 656 926 m 488 708 l 414 511 q 421 503 420 504 l 448 472 q 505 396 471 447 l 512 386 q 581 458 541 422 l 488 708 m 458 786 l 350 501 q 439 397 402 449 l 470 354 q 477 345 471 353 q 484 353 483 351 l 493 364 q 501 373 495 367 q 390 505 453 446 l 477 734 l 458 786 m 857 592 q 931 424 872 531 q 914 427 916 427 l 859 431 q 805 434 822 434 q 792 434 802 434 l 905 134 l 1056 0 l 663 0 l 651 18 l 1011 18 l 889 126 l 768 445 q 821 452 791 452 q 902 445 857 452 l 894 460 q 836 605 851 540 l 857 592 "},"6":{"x_min":57,"x_max":758.171875,"ha":833,"o":"m 544 711 q 537 721 537 718 q 398 892 537 892 q 314 866 356 892 q 247 797 272 840 q 189 455 189 698 q 237 176 189 258 q 382 88 290 88 q 513 165 461 88 q 566 359 566 242 q 523 531 566 469 q 405 594 480 594 q 310 556 347 594 q 261 450 272 519 q 236 416 255 416 q 207 455 207 416 q 269 596 207 539 q 424 654 332 654 q 615 570 542 654 q 688 350 688 487 q 606 122 688 209 q 393 36 525 36 q 155 149 242 36 q 84 299 111 207 q 57 485 57 391 q 158 816 57 685 q 412 948 259 948 q 569 904 501 948 q 673 782 637 861 l 667 780 l 630 762 q 544 711 573 732 m 527 765 l 522 769 l 494 797 q 407 835 457 835 q 310 786 350 835 q 255 616 276 744 l 253 610 l 247 588 q 400 852 247 852 q 481 827 445 852 q 527 765 516 802 m 602 910 q 689 846 644 892 q 758 750 734 800 l 750 747 q 669 716 677 719 l 582 675 l 576 672 l 569 686 q 734 760 641 729 q 602 905 696 835 l 602 910 m 540 418 q 408 534 480 534 q 313 429 338 534 q 258 363 296 363 q 251 364 256 363 q 251 351 251 353 q 403 112 251 165 l 410 109 l 410 105 q 285 177 335 105 q 235 357 235 249 q 235 383 235 364 q 256 381 244 381 q 290 413 281 381 l 296 434 q 410 551 332 551 q 494 513 456 551 q 545 418 532 476 l 540 418 m 668 555 q 723 466 699 533 q 748 336 748 400 q 638 70 748 175 q 422 -20 542 -20 q 242 46 324 -20 l 236 51 l 236 55 q 421 -2 336 -2 q 625 84 534 -2 q 729 332 729 183 q 672 547 729 439 l 668 555 "},"‘":{"x_min":23,"x_max":279.125,"ha":306,"o":"m 111 578 l 98 592 q 209 647 154 629 l 222 651 l 220 651 q 171 761 171 702 q 258 893 171 823 l 264 898 l 279 884 l 271 879 q 193 762 193 816 q 255 645 193 705 q 111 578 178 620 m 43 604 q 23 698 23 652 q 223 931 23 867 l 228 922 l 222 915 q 153 776 153 857 q 188 675 153 718 q 175 670 179 672 q 43 604 99 643 "},"π":{"x_min":-39.75,"x_max":772,"ha":694,"o":"m 772 655 l 772 561 l 581 561 l 571 535 q 542 407 542 462 l 542 187 q 553 87 542 113 q 598 62 565 62 q 641 69 608 62 q 664 74 648 71 l 664 47 l 484 -13 q 467 -18 471 -18 q 417 26 444 -18 q 396 122 396 61 l 396 334 q 425 455 396 409 l 460 506 l 483 542 q 498 561 486 547 l 265 561 l 265 408 q 252 243 265 356 q 226 69 239 131 q 148 -28 205 -28 q 102 -8 121 -28 q 83 40 83 11 q 99 104 83 70 l 114 133 q 169 323 145 194 q 194 560 194 452 q 76 537 120 560 q -19 447 32 514 l -39 467 l 49 597 q 184 655 89 655 l 772 655 "},"O":{"x_min":33,"x_max":834.3125,"ha":867,"o":"m 553 774 l 542 781 q 423 817 477 817 q 245 466 245 817 q 355 126 245 210 l 349 120 q 252 246 281 168 q 224 458 224 324 q 421 835 224 835 q 553 774 511 835 m 408 935 q 672 810 573 935 q 771 476 771 685 q 673 161 771 278 q 412 44 576 44 q 181 126 282 44 q 33 488 33 248 q 134 814 33 693 q 408 935 236 935 m 408 877 q 179 473 179 877 q 404 101 179 101 q 565 199 510 101 q 620 488 620 298 q 567 788 620 703 q 408 877 511 877 m 625 900 q 778 740 721 853 q 834 478 834 627 q 723 125 834 259 q 432 -9 612 -9 q 217 69 317 -9 l 217 72 q 427 11 301 11 q 706 139 597 11 q 816 466 816 267 q 766 726 816 615 q 625 893 716 837 l 625 900 "},"n":{"x_min":-13.984375,"x_max":825.03125,"ha":834,"o":"m 801 926 q 701 852 723 886 q 668 697 668 801 l 668 653 l 668 56 l 553 56 l 232 677 l 232 308 l 232 278 l 240 180 q 302 80 254 112 l 307 75 q 214 275 214 106 l 214 339 l 214 710 l 178 781 l 178 390 q 202 147 178 205 q 317 63 226 89 l 376 0 l 8 0 l -2 18 l 337 18 l 302 56 l -13 56 q 95 136 68 85 q 123 308 123 186 l 123 850 l 32 926 l 376 926 l 279 861 l 608 221 l 608 302 l 326 850 l 421 915 l 434 902 l 350 845 l 608 339 l 608 656 l 608 692 q 588 849 608 810 q 493 926 569 889 l 801 926 m 825 875 l 812 855 q 741 810 760 843 q 723 699 723 777 l 723 0 l 577 0 l 568 18 l 705 18 l 705 692 q 729 825 705 788 q 825 875 754 863 "},"3":{"x_min":70.125,"x_max":765,"ha":834,"o":"m 220 353 q 211 273 211 312 q 382 91 211 91 q 516 144 468 91 q 565 293 565 197 q 511 454 565 388 q 380 520 458 520 q 308 509 357 520 l 301 507 l 327 581 l 333 581 q 375 581 360 581 q 492 623 446 581 q 538 734 538 666 q 487 847 538 800 q 366 894 437 894 q 256 856 299 894 q 214 761 214 819 q 232 701 214 724 q 279 679 250 679 q 317 695 299 679 l 327 689 q 228 629 302 629 q 138 666 174 629 q 102 757 102 703 q 148 860 102 810 q 389 943 226 943 q 587 885 510 943 q 664 738 664 828 q 623 625 664 673 q 513 559 582 576 q 497 549 496 555 q 511 538 498 543 q 708 292 708 475 q 622 106 708 173 q 385 39 536 39 q 170 97 247 39 q 70 278 93 155 l 76 280 q 220 353 161 308 m 280 336 q 280 329 280 331 q 272 251 272 270 q 356 110 272 153 l 356 103 q 281 157 310 116 q 253 253 253 198 q 262 331 253 283 l 263 336 l 280 336 m 522 408 q 386 460 468 460 q 328 452 351 460 l 322 450 l 317 467 q 387 478 358 478 q 526 408 487 478 l 522 408 m 672 471 q 744 376 724 419 q 765 274 765 334 q 667 63 765 143 q 409 -17 569 -17 q 153 76 241 -17 l 153 80 l 159 74 q 406 -1 267 -1 q 650 76 555 -1 q 746 274 746 153 q 730 363 746 325 q 672 458 715 401 q 667 465 670 461 l 672 471 m 618 890 q 690 828 659 880 q 722 720 722 776 q 677 594 722 650 q 565 524 632 538 l 552 538 q 662 606 621 557 q 704 718 704 655 q 624 885 704 805 q 618 890 621 886 m 519 748 l 513 756 q 376 834 458 834 q 304 810 332 834 q 276 748 276 786 q 301 703 276 721 q 303 701 301 703 l 296 690 q 256 749 256 707 q 290 821 256 792 q 376 851 324 851 q 470 823 430 851 q 525 748 509 796 l 519 748 m 377 657 q 254 584 331 584 q 146 637 198 584 l 142 640 l 142 644 q 148 640 147 641 l 171 623 q 252 600 202 600 q 315 618 284 600 q 362 666 345 637 l 377 657 "},"9":{"x_min":68,"x_max":760.3125,"ha":834,"o":"m 559 379 q 338 285 475 285 q 226 309 280 285 q 146 375 173 334 l 146 379 q 336 303 201 303 q 568 419 487 303 q 568 520 568 472 q 529 767 568 690 q 458 848 504 817 q 362 879 412 879 q 238 814 283 879 q 193 641 193 750 q 241 474 193 535 q 371 413 289 413 q 518 530 493 413 l 523 558 q 540 574 527 574 q 562 536 562 574 q 495 396 562 453 q 331 340 428 340 q 142 417 216 340 q 68 612 68 494 q 154 837 68 746 q 367 929 240 929 q 606 809 513 929 q 699 502 699 690 q 627 198 699 337 q 428 -23 556 59 q 156 -107 298 -107 q 115 -85 115 -107 q 144 -63 115 -67 q 420 68 315 -44 q 559 379 526 181 m 524 746 q 382 824 459 824 q 256 633 256 824 q 286 498 256 553 q 368 428 316 443 l 368 423 q 271 490 307 433 q 236 634 236 548 q 274 788 236 733 q 381 843 312 843 q 465 816 426 843 q 524 746 504 790 m 567 887 q 760 502 760 782 q 570 22 760 215 q 383 -110 489 -62 q 174 -159 277 -159 l 157 -159 l 152 -142 q 455 -49 314 -142 q 666 184 590 39 q 742 500 742 330 q 567 880 742 773 l 567 887 "},"l":{"x_min":27.421875,"x_max":802.03125,"ha":760,"o":"m 27 925 l 351 925 l 256 833 l 256 107 l 261 107 l 285 105 l 292 105 l 292 826 l 365 900 l 374 885 l 309 818 l 309 105 q 367 103 339 103 q 530 150 475 103 q 604 308 585 198 q 735 55 668 123 l 27 55 l 121 132 l 121 839 l 27 925 m 802 60 l 771 0 l 63 0 l 46 18 l 764 18 l 783 60 q 664 265 709 152 l 661 272 l 683 264 l 688 252 q 796 67 733 152 l 802 60 "},"¤":{"x_min":48.46875,"x_max":767.125,"ha":815,"o":"m 527 554 q 397 598 451 598 q 265 432 265 598 q 329 277 265 315 l 323 271 q 244 429 244 313 q 395 615 244 615 q 527 554 485 615 m 225 235 l 113 123 l 53 184 l 158 288 q 100 454 100 357 q 148 615 100 551 l 48 715 l 108 776 l 213 671 q 248 688 230 681 l 177 758 l 199 764 l 267 696 q 382 715 323 715 q 541 672 472 715 l 641 771 l 700 710 l 603 613 q 652 450 652 537 q 600 283 652 353 l 701 182 l 641 122 l 575 188 q 406 142 504 142 q 250 181 328 142 l 158 90 l 137 95 l 239 197 l 244 192 q 401 162 328 162 q 560 203 485 162 l 534 229 q 386 195 464 195 q 225 235 300 195 m 383 657 q 200 446 200 657 q 379 252 200 252 q 548 460 548 252 q 508 609 548 562 q 383 657 468 657 m 665 274 l 767 172 l 704 111 l 682 111 l 742 170 l 641 272 q 703 456 703 351 q 684 564 703 536 l 658 606 q 654 613 658 607 l 742 700 l 682 761 l 705 761 l 767 698 l 678 609 q 721 451 721 553 q 710 361 721 395 q 665 274 699 326 "},"∂":{"x_min":39,"x_max":657,"ha":695,"o":"m 196 936 l 210 961 q 459 799 358 905 q 599 573 542 713 q 657 319 657 434 q 569 74 657 169 q 343 -21 481 -21 q 125 72 212 -21 q 39 308 39 166 q 125 537 39 444 q 339 631 212 631 q 423 617 391 631 q 495 566 455 603 q 508 553 499 562 q 387 781 459 692 q 196 936 315 869 m 348 594 q 259 557 299 594 q 204 452 227 526 q 181 307 181 379 q 201 164 181 236 q 250 62 221 93 q 344 16 292 16 q 466 98 417 16 q 515 307 515 181 q 470 517 515 441 q 348 594 426 594 "},"4":{"x_min":37.46875,"x_max":787,"ha":834,"o":"m 450 912 l 449 906 q 341 635 428 793 q 143 350 254 478 l 139 345 l 139 329 l 174 329 l 178 333 q 369 595 299 471 q 491 889 439 720 l 493 894 l 507 885 l 504 877 q 195 329 403 539 l 437 329 l 437 626 q 441 628 439 628 q 551 731 517 677 l 564 731 l 564 329 l 597 329 l 597 705 l 615 701 l 615 329 q 705 310 675 329 q 736 253 736 291 q 723 218 736 232 q 690 204 710 204 q 647 237 647 204 q 651 255 647 249 l 656 261 q 658 266 658 263 q 622 283 658 283 l 610 283 l 564 283 l 564 126 l 643 55 l 353 55 l 437 122 l 437 228 l 60 228 l 45 246 l 437 246 l 437 283 l 37 283 l 37 306 l 40 310 q 210 603 138 424 q 282 912 282 783 l 450 912 m 733 306 q 770 283 754 303 q 787 238 787 262 q 769 188 787 208 q 725 168 751 168 q 673 184 700 168 l 673 192 q 717 180 699 180 q 757 196 741 180 q 773 239 773 213 q 767 266 773 257 q 737 302 762 274 q 733 306 736 303 m 723 0 l 381 0 l 366 18 l 685 18 l 597 121 l 597 239 l 615 239 l 615 127 l 723 0 "},"p":{"x_min":5.234375,"x_max":808,"ha":822,"o":"m 66 926 l 370 926 q 646 872 564 926 q 751 685 751 805 q 711 559 751 612 q 599 481 671 505 q 371 458 527 458 l 287 458 l 287 130 l 370 55 l 54 55 l 149 135 l 149 407 q 137 408 140 408 q 43 387 88 408 l 37 399 q 119 425 83 425 l 143 425 l 149 425 l 149 458 q 127 461 133 461 q 12 425 55 461 l 5 435 q 138 512 46 512 l 149 512 l 149 843 l 66 926 m 287 857 l 287 515 l 296 515 l 314 515 q 323 516 316 515 l 323 819 l 397 819 q 519 803 483 819 q 580 740 555 788 q 517 789 555 775 q 411 803 479 803 l 342 803 l 342 516 q 538 555 475 516 q 601 678 601 594 q 545 814 601 771 q 365 857 489 857 q 287 857 333 857 m 716 853 q 782 781 757 832 q 808 665 808 730 q 694 454 808 518 q 400 406 608 406 q 342 406 365 406 l 342 126 l 448 0 l 108 0 l 90 18 l 409 18 l 323 118 l 323 423 q 448 423 381 423 q 707 484 622 423 q 792 672 792 545 q 775 764 792 725 q 716 853 759 803 "},"‡":{"x_min":45.765625,"x_max":770,"ha":817,"o":"m 492 478 l 492 688 l 628 688 l 648 670 l 509 670 l 509 478 l 611 478 l 720 588 l 720 304 l 606 421 l 451 421 l 451 32 l 537 -58 l 205 -58 l 315 32 l 315 364 l 182 364 l 88 265 l 72 279 l 177 382 l 315 382 l 315 421 l 159 421 l 45 304 l 45 588 l 155 478 l 315 478 l 315 670 l 182 670 l 88 575 l 72 589 l 177 688 l 315 688 l 315 727 l 159 727 l 46 614 l 46 897 l 155 784 l 315 784 l 315 949 l 219 1037 l 542 1037 l 451 944 l 451 784 l 492 784 l 492 936 l 568 1011 l 580 998 l 511 929 l 511 784 l 611 784 l 720 897 l 720 614 l 606 727 l 451 727 l 451 478 l 492 478 m 770 874 l 770 581 l 752 592 l 752 884 l 770 874 m 770 555 l 770 271 l 752 282 l 752 565 l 770 555 m 648 364 l 509 364 l 509 27 l 628 -120 l 245 -120 l 228 -102 l 590 -102 l 492 20 l 492 382 l 628 382 l 648 364 "},"à":{"x_min":0.265625,"x_max":1056.5625,"ha":1052,"o":"m 656 926 l 585 845 l 697 550 l 724 565 l 623 832 l 695 915 l 713 907 l 644 828 l 739 575 q 749 582 748 581 l 771 601 q 797 624 792 617 q 851 487 815 547 q 823 487 832 487 q 729 467 758 487 l 851 134 l 953 55 l 611 55 l 704 134 l 629 332 q 514 189 554 257 l 499 193 q 618 342 539 260 l 623 349 l 611 378 q 477 222 530 311 l 465 242 q 375 370 429 298 l 368 378 q 316 190 316 262 q 330 118 316 147 q 400 18 345 88 q 415 0 405 12 l 49 0 l 35 18 l 381 18 l 369 32 q 310 117 324 87 q 297 188 297 147 q 353 394 297 257 l 323 425 q 300 361 314 403 l 278 292 q 260 200 260 237 q 272 137 260 162 q 327 68 285 112 q 339 56 331 64 l 0 56 q 153 190 97 106 q 266 452 210 275 l 268 462 q 165 499 232 492 q 222 615 202 554 q 234 604 232 606 l 264 575 q 302 545 280 560 l 314 575 l 306 582 q 249 630 272 611 l 243 634 l 253 649 q 323 594 290 626 l 415 848 l 343 926 l 656 926 m 488 708 l 414 511 q 421 503 420 504 l 448 472 q 505 396 471 447 l 512 386 q 581 458 541 422 l 488 708 m 458 786 l 350 501 q 439 397 402 449 l 470 354 q 477 345 471 353 q 484 353 483 351 l 493 364 q 501 373 495 367 q 390 505 453 446 l 477 734 l 458 786 m 857 592 q 931 424 872 531 q 914 427 916 427 l 859 431 q 805 434 822 434 q 792 434 802 434 l 905 134 l 1056 0 l 663 0 l 651 18 l 1011 18 l 889 126 l 768 445 q 821 452 791 452 q 902 445 857 452 l 894 460 q 836 605 851 540 l 857 592 m 446 1196 l 539 1065 l 460 1065 l 305 1196 l 446 1196 m 630 1019 l 516 1019 l 497 1036 l 591 1036 l 506 1154 l 535 1148 l 630 1019 "},"Ü":{"x_min":22.78125,"x_max":829.234375,"ha":843,"o":"m 806 925 l 685 828 l 685 390 q 677 216 685 269 q 646 129 669 163 q 419 43 587 43 q 171 129 241 43 q 115 392 115 198 l 115 842 l 22 925 l 342 925 l 251 835 l 251 391 l 251 286 q 293 143 251 185 q 436 101 335 101 q 588 165 546 101 q 622 389 622 217 l 622 828 l 517 925 l 806 925 m 829 879 l 737 802 l 737 381 q 704 111 737 174 q 444 -16 638 -16 q 193 67 277 -16 l 198 64 l 222 51 q 437 2 306 2 q 685 120 624 2 q 718 376 718 183 l 718 810 l 819 893 l 829 879 m 370 888 l 304 821 l 304 317 l 304 270 l 324 184 q 383 122 340 158 l 385 115 q 306 183 328 139 q 285 319 285 227 l 285 828 l 361 902 l 370 888 m 548 1197 q 594 1178 575 1197 q 613 1132 613 1159 q 594 1085 613 1104 q 548 1067 575 1067 q 501 1085 520 1067 q 483 1132 483 1104 q 501 1178 483 1159 q 548 1197 520 1197 m 632 1167 q 670 1100 670 1150 q 645 1038 670 1063 q 586 1014 621 1014 q 522 1046 546 1014 l 522 1051 q 577 1028 554 1028 q 634 1051 610 1028 q 658 1108 658 1074 q 632 1167 658 1134 m 398 1167 q 436 1100 436 1150 q 411 1038 436 1063 q 351 1014 387 1014 q 288 1046 312 1014 l 288 1051 q 343 1028 320 1028 q 400 1051 376 1028 q 424 1108 424 1074 q 398 1167 424 1134 m 312 1197 q 358 1178 339 1197 q 377 1132 377 1159 q 358 1085 377 1104 q 312 1067 339 1067 q 265 1085 284 1067 q 247 1132 247 1104 q 265 1178 247 1159 q 312 1197 284 1197 "},"ó":{"x_min":33,"x_max":834.3125,"ha":867,"o":"m 553 774 l 542 781 q 423 817 477 817 q 245 466 245 817 q 355 126 245 210 l 349 120 q 252 246 281 168 q 224 458 224 324 q 421 835 224 835 q 553 774 511 835 m 408 935 q 672 810 573 935 q 771 476 771 685 q 673 161 771 278 q 412 44 576 44 q 181 126 282 44 q 33 488 33 248 q 134 814 33 693 q 408 935 236 935 m 408 877 q 179 473 179 877 q 404 101 179 101 q 565 199 510 101 q 620 488 620 298 q 567 788 620 703 q 408 877 511 877 m 625 900 q 778 740 721 853 q 834 478 834 627 q 723 125 834 259 q 432 -9 612 -9 q 217 69 317 -9 l 217 72 q 427 11 301 11 q 706 139 597 11 q 816 466 816 267 q 766 726 816 615 q 625 893 716 837 l 625 900 m 625 1196 l 460 1062 l 388 1062 l 487 1196 l 625 1196 m 417 1005 l 402 1024 l 485 1024 l 652 1159 l 665 1142 l 494 1005 l 417 1005 "},"√":{"x_min":23,"x_max":903,"ha":926,"o":"m 903 1144 l 903 1099 l 743 1099 l 486 0 l 338 0 l 219 493 l 23 493 l 23 538 l 340 538 l 449 69 l 702 1144 l 903 1144 "}}}
